<?xml version="1.0" standalone="no"?>
<!DOCTYPE svg PUBLIC "-//W3C//DTD SVG 1.1//EN" "http://www.w3.org/Graphics/SVG/1.1/DTD/svg11.dtd" >
<svg xmlns="http://www.w3.org/2000/svg" xmlns:xlink="http://www.w3.org/1999/xlink" version="1.1">
<metadata>
Created by FontForge 20201107 at Wed Nov 27 11:33:25 2024
 By www-data
Copyright 2023 The Playwrite Project Authors (https://github.com/TypeTogether/Playwrite)
</metadata>
<defs>
<font id="PlaywriteID-Regular" horiz-adv-x="0" >
  <font-face 
    font-family="Playwrite ID"
    font-weight="400"
    font-stretch="normal"
    units-per-em="1000"
    panose-1="0 0 0 0 0 0 0 0 0 0"
    ascent="800"
    descent="-200"
    x-height="515"
    cap-height="1453"
    bbox="-609 -958 2156 1924"
    underline-thickness="50"
    underline-position="-125"
    unicode-range="U+000D-25CC"
  />
<missing-glyph horiz-adv-x="1255" 
d="M196 1442h863v-1442h-863v1442zM282 1362v-1282h691v1282h-691z" />
    <glyph glyph-name=".notdef" horiz-adv-x="1255" 
d="M196 1442h863v-1442h-863v1442zM282 1362v-1282h691v1282h-691z" />
    <glyph glyph-name=".null" 
 />
    <glyph glyph-name="nonmarkingreturn" horiz-adv-x="333" 
 />
    <glyph glyph-name="CR" unicode="&#xd;" horiz-adv-x="300" 
 />
    <glyph glyph-name="space" unicode=" " horiz-adv-x="300" 
 />
    <glyph glyph-name="exclam" unicode="!" horiz-adv-x="554" 
d="M278 216q-44 0 -44 28v1182q0 14 11 20.5t33 6.5q44 0 44 -27v-1182q0 -14 -11 -21t-33 -7zM278 -14q-28 0 -42 15.5t-14 47.5t14 48t42 16q27 0 40.5 -16t14.5 -48t-13.5 -47.5t-41.5 -15.5z" />
    <glyph glyph-name="quotedbl" unicode="&#x22;" horiz-adv-x="366" 
d="M89 932q-19 0 -24.5 9.5t-6.5 21.5l-15 300q-1 16 9.5 28t36.5 12t36.5 -12t9.5 -28l-15 -300q-1 -12 -6.5 -21.5t-24.5 -9.5zM286 932q-19 0 -24.5 9.5t-6.5 21.5l-15 300q-1 16 9.5 28t36.5 12t36.5 -12t9.5 -28l-15 -300q-1 -12 -6.5 -21.5t-24.5 -9.5z" />
    <glyph glyph-name="numbersign" unicode="#" horiz-adv-x="925" 
d="M166 -20q-43 10 -35 39l55 209h-158q-15 0 -21.5 9t-6.5 31q0 23 6.5 31.5t21.5 8.5h179l67 258h-159q-15 0 -21 9t-6 31q0 23 6 31.5t21 8.5h180l61 232q7 27 50 16q42 -12 35 -39l-55 -209h259l61 232q7 27 50 16q42 -12 35 -39l-55 -209h162q15 0 21 -8.5t6 -31.5
q0 -22 -6 -31t-21 -9h-183l-67 -258h162q15 0 21.5 -8.5t6.5 -31.5q0 -22 -6.5 -31t-21.5 -9h-183l-61 -232q-7 -25 -50 -16q-20 5 -29.5 15t-5.5 24l55 209h-259l-61 -232q-7 -25 -50 -16zM298 308h259l67 258h-259z" />
    <glyph glyph-name="dollar" unicode="$" horiz-adv-x="1027" 
d="M493 -19q-49 0 -100 10t-100.5 30.5t-94 54.5t-80.5 81q-7 11 -6.5 20t14.5 23q14 15 23.5 16.5t28.5 -15.5q41 -41 87.5 -71.5t102.5 -47t125 -16.5q76 0 137 21.5t103.5 62.5t65 98.5t22.5 130.5q0 67 -22.5 115t-62.5 82.5t-93.5 61t-116.5 49.5q-53 21 -105 45
t-99 55.5t-83 74.5t-57 101.5t-21 137.5q0 83 28.5 148.5t79 110.5t117.5 69t144 24q79 0 141.5 -23t114.5 -60.5t101 -81.5q11 -10 9 -20.5t-13 -21.5q-12 -13 -23.5 -18.5t-22.5 3.5q-50 43 -99 73.5t-100 47t-108 16.5q-64 0 -114.5 -18.5t-86.5 -53t-55.5 -84
t-19.5 -111.5q0 -78 25.5 -130.5t68.5 -88t97 -61t113 -48.5q63 -23 126 -54t115 -75t83.5 -108.5t31.5 -156.5q0 -90 -29.5 -163.5t-85 -126t-133 -80.5t-173.5 -28zM523 -150q-40 0 -40 28v1694q0 27 40 27t40 -27v-1694q0 -28 -40 -28z" />
    <glyph glyph-name="percent" unicode="%" horiz-adv-x="1230" 
d="M328 834q-73 0 -127.5 39.5t-84.5 110t-30 160.5q0 54 11 101t32 85t50.5 65.5t67 42.5t81.5 15q72 0 126 -40t83.5 -109.5t29.5 -159.5q0 -54 -11 -101.5t-31.5 -86t-50 -65.5t-66.5 -42t-80 -15zM328 910q27 0 50.5 9.5t43 28.5t33 47t21 65t7.5 84q0 115 -44 174
t-111 59q-28 0 -52 -9.5t-43.5 -28.5t-33.5 -47.5t-21.5 -65.5t-7.5 -82q0 -115 44.5 -174.5t113.5 -59.5zM259 -9q-7 -12 -18 -11.5t-29 11.5q-19 11 -22.5 19.5t2.5 20.5l781 1412q7 11 17 11.5t29 -11.5t23.5 -19t-3.5 -21zM906 -19q-72 0 -127 40t-85 110t-30 160
q0 54 11 101t32 85.5t50.5 66t67.5 42t81 14.5q72 0 126 -39.5t83.5 -109.5t29.5 -160q0 -54 -10.5 -101.5t-31.5 -86t-50.5 -65.5t-66.5 -42t-80 -15zM906 58q27 0 50.5 9.5t43 28.5t33.5 47.5t21.5 65.5t7.5 82q0 115 -44 174t-112 59q-28 0 -51.5 -9.5t-43 -28.5t-34 -47
t-22 -65t-7.5 -83q0 -115 44.5 -174t113.5 -59z" />
    <glyph glyph-name="ampersand" unicode="&#x26;" horiz-adv-x="1275" 
d="M508 -19q-90 0 -163.5 30t-127 84.5t-82.5 130t-29 166.5q0 80 21.5 141t57.5 108t83.5 83t98.5 67q-51 63 -82 118.5t-45 110t-14 112.5q0 70 22.5 128.5t64 102t97 67t122.5 23.5q65 0 119 -22t93.5 -62t61.5 -94.5t22 -119.5q0 -64 -18.5 -114t-51.5 -88.5t-75.5 -70
t-90.5 -58t-97 -52.5l405 -463q50 84 77 192t27 231q0 14 10.5 20.5t32.5 6.5t33 -6.5t11 -20.5q0 -144 -34.5 -269t-96.5 -222l168 -192q11 -13 8.5 -25.5t-17.5 -27.5q-14 -13 -27.5 -16t-23.5 10l-159 182q-77 -90 -179.5 -140.5t-221.5 -50.5zM511 66q101 0 188 45
t153 126l-432 493q-45 -27 -85 -57.5t-70.5 -69t-47.5 -88t-17 -112.5q0 -106 39.5 -181.5t109.5 -115.5t162 -40zM442 833q46 24 89 48t81.5 50t67 57t44.5 69.5t16 86.5q0 68 -26.5 118.5t-73.5 78t-108 27.5q-66 0 -115 -30.5t-75 -84t-26 -122.5q0 -52 13.5 -101
t42 -97.5t70.5 -99.5z" />
    <glyph glyph-name="quotesingle" unicode="'" horiz-adv-x="169" 
d="M89 932q-19 0 -24.5 9.5t-6.5 21.5l-15 300q-1 16 9.5 28t36.5 12t36.5 -12t9.5 -28l-15 -300q-1 -12 -6.5 -21.5t-24.5 -9.5z" />
    <glyph glyph-name="parenleft" unicode="(" horiz-adv-x="466" 
d="M364 1459q-35 -76 -62.5 -160.5t-47.5 -176.5t-30.5 -193t-10.5 -210q0 -145 18.5 -276t52.5 -247t80 -217q11 -25 6 -35t-26 -18q-22 -9 -32.5 -6t-18.5 21q-52 112 -90 236t-58 259.5t-20 282.5q0 111 11.5 214.5t33 201t52.5 188t71 174.5q8 17 18.5 20.5t32.5 -5.5
q21 -9 26 -18.5t-6 -34.5z" />
    <glyph glyph-name="parenright" unicode=")" horiz-adv-x="466" 
d="M102 -21q35 76 62.5 160.5t47.5 176.5t30.5 193t10.5 210q0 145 -18.5 276t-52 247t-80.5 217q-11 25 -6 35t26 18q23 9 33 6t18 -21q54 -112 91 -236t57 -259t20 -283q0 -110 -11.5 -214t-33 -201.5t-52.5 -188t-71 -174.5q-8 -17 -18 -20.5t-33 5.5q-21 9 -26 18.5
t6 34.5z" />
    <glyph glyph-name="asterisk" unicode="*" horiz-adv-x="358" 
d="M179 1069q-28 0 -28 21v125l-108 -62q-9 -5 -17.5 -2t-15.5 15q-14 24 5 35l108 63l-108 62q-8 5 -10 14t5 21q7 13 15.5 16t17.5 -2l108 -63v126q0 9 7 15t21 6q27 0 27 -21v-126l109 63q8 5 17 2t16 -16q14 -23 -5 -35l-108 -62l108 -63q8 -4 10.5 -13t-5.5 -22
q-7 -12 -16 -15t-17 2l-109 63v-126q0 -21 -27 -21z" />
    <glyph glyph-name="plus" unicode="+" horiz-adv-x="763" 
d="M381 155q-21 0 -31.5 6.5t-10.5 19.5v510q0 14 10.5 20.5t31.5 6.5q22 0 32.5 -6.5t10.5 -20.5v-510q0 -13 -10.5 -19.5t-32.5 -6.5zM113 398q-11 0 -18 10t-7 30q0 40 25 40h537q11 0 18 -10t7 -30q0 -40 -25 -40h-537z" />
    <glyph glyph-name="comma" unicode="," horiz-adv-x="313" 
d="M86 -287q-14 0 -26.5 9t-12.5 22q0 4 3 10.5t7 14.5q18 35 29.5 71.5t17 86t5.5 120.5q0 19 13 28t34 9q23 0 36 -10.5t13 -29.5q0 -56 -10 -115t-30.5 -111.5t-49.5 -88.5q-5 -5 -11.5 -10.5t-17.5 -5.5z" />
    <glyph glyph-name="hyphen" unicode="-" horiz-adv-x="576" 
d="M125 301q-15 0 -21 9t-6 31q0 23 6 31.5t21 8.5h325q15 0 21.5 -8.5t6.5 -31.5q0 -22 -6.5 -31t-21.5 -9h-325z" />
    <glyph glyph-name="period" unicode="." horiz-adv-x="313" 
d="M156 -34q-31 0 -46.5 16.5t-15.5 48.5q0 33 15.5 49t46.5 16q32 0 47.5 -16t15.5 -49q0 -32 -15.5 -48.5t-47.5 -16.5z" />
    <glyph glyph-name="slash" unicode="/" horiz-adv-x="505" 
d="M46 -75q-21 6 -30 15.5t-5 23.5l399 1533q4 14 16 18t34 -2q20 -5 29.5 -15t5.5 -24l-399 -1533q-4 -13 -16.5 -17t-33.5 1z" />
    <glyph glyph-name="zero" unicode="0" horiz-adv-x="1140" 
d="M572 -19q-144 0 -249.5 88t-162 253.5t-56.5 396.5q0 115 14.5 213.5t42.5 180.5t68.5 145.5t92.5 106.5t115 65.5t135 22.5q144 0 248 -88t160.5 -252t56.5 -394q0 -116 -14.5 -215.5t-42.5 -181.5t-68 -145.5t-92 -107t-114 -66t-134 -22.5zM570 66q58 0 108 20
t91.5 59t73.5 95t54.5 128.5t34 160.5t11.5 190q0 203 -45 348t-128.5 223t-199.5 78q-57 0 -107 -20t-91.5 -58.5t-74 -94t-54.5 -127.5t-33.5 -159.5t-11.5 -189.5q0 -204 45 -350t128.5 -224.5t198.5 -78.5z" />
    <glyph glyph-name="one" unicode="1" horiz-adv-x="672" 
d="M362 -14q-23 0 -33.5 7.5t-10.5 20.5v1315q-34 -34 -72 -69t-78.5 -66.5t-80.5 -56.5q-16 -10 -29.5 -8.5t-23.5 18.5q-11 17 -8.5 29t18.5 22q45 31 87.5 65t86.5 75t92 93q8 9 15 13.5t16.5 6.5t24.5 2q23 0 31.5 -8.5t8.5 -18.5v-1412q0 -13 -10.5 -20.5t-33.5 -7.5z
" />
    <glyph glyph-name="two" unicode="2" horiz-adv-x="992" 
d="M110 0q-13 0 -23.5 10.5t-11.5 26t12 29.5l263 280q63 68 119 133t103 129t83.5 126.5t62.5 122.5t39.5 117.5t13.5 113.5q0 100 -36 161.5t-102 90t-155 28.5q-85 0 -158 -33t-146 -100q-16 -16 -29.5 -17.5t-28.5 12.5q-16 15 -16.5 29t14.5 29q42 46 99 83.5t126 59.5
t147 22q79 0 147 -22t120 -67t81 -113.5t29 -162.5q0 -61 -15.5 -125.5t-44 -130.5t-69.5 -134t-92 -137.5t-110.5 -139.5t-126.5 -141l-188 -200h638q14 0 21 -8t7 -29t-5.5 -32t-22.5 -11h-745z" />
    <glyph glyph-name="three" unicode="3" horiz-adv-x="1080" 
d="M512 -19q-84 0 -162.5 23.5t-148.5 71.5t-129 120q-9 11 -11.5 24.5t15.5 29.5q15 13 28.5 14t26.5 -16q54 -64 114.5 -106t127 -61.5t139.5 -19.5q84 0 149.5 21t111 62.5t69 104t23.5 144.5q0 103 -46.5 178t-130.5 115.5t-198 40.5h-101q-16 0 -21.5 11t-5.5 32
t6.5 29t20.5 8h105q81 0 140 24t97.5 65.5t57 95.5t18.5 114q0 71 -25.5 121.5t-68.5 81.5t-97 45.5t-112 14.5q-66 0 -122.5 -14.5t-107.5 -41t-101 -65.5q-18 -13 -30 -13.5t-26 13.5q-17 16 -15 29.5t12 23.5q41 41 101 75t133.5 55.5t155.5 21.5q83 0 154.5 -20.5
t125 -62.5t84 -108t30.5 -156q0 -56 -14 -108.5t-44 -97t-77 -78t-114 -52.5q108 -21 176 -75t100 -131.5t32 -170.5q0 -99 -28.5 -175.5t-84.5 -129t-139 -80t-193 -27.5z" />
    <glyph glyph-name="four" unicode="4" horiz-adv-x="1101" 
d="M820 -14q-22 0 -33 7t-11 21v404h-670q-19 0 -30 16.5t-1 36.5l454 964q6 14 18 18.5t30 -0.5q16 -4 25 -11t11 -16t-4 -21l-429 -907h596v515q0 28 44 28q22 0 33 -7t11 -21v-515h161q14 0 21 -8t7 -30q0 -20 -5.5 -31t-22.5 -11h-161v-404q0 -28 -44 -28z" />
    <glyph glyph-name="five" unicode="5" horiz-adv-x="1080" 
d="M543 -19q-56 0 -111 13t-109 39.5t-103.5 67t-93.5 95.5q-10 11 -12 24.5t15 29.5q15 13 28.5 14t26.5 -16q54 -64 112.5 -106t120.5 -61.5t126 -19.5q86 0 149.5 29.5t105.5 83t63.5 125t21.5 155.5q0 79 -22.5 145t-66 114.5t-105 75t-141.5 26.5q-61 0 -115.5 -12.5
t-99 -36t-79.5 -57.5q-18 -19 -35.5 -20.5t-28 8t-10.5 21.5l25 682q2 14 11.5 20.5t24.5 6.5h651q13 0 21 -8t8 -31q0 -21 -7 -31t-22 -10h-609l-19 -539q34 24 77.5 43.5t96 31.5t110.5 12q134 0 229 -55t146 -153.5t51 -232.5q0 -104 -29 -190.5t-85.5 -150t-136 -98
t-180.5 -34.5z" />
    <glyph glyph-name="six" unicode="6" horiz-adv-x="1161" 
d="M612 -19q-148 0 -251 72.5t-156.5 208.5t-53.5 325q0 157 24.5 287.5t75 234t131.5 176.5t193.5 115.5t259.5 52.5q39 3 50 -4t13 -27q2 -23 -4 -33t-25 -12q-143 -11 -248.5 -50.5t-178 -107.5t-117 -161.5t-64 -211.5t-19.5 -259q0 -136 28.5 -235.5t79 -164t118 -95.5
t144.5 -31q81 0 145.5 26.5t110 77.5t69 125t23.5 169q0 98 -42 172.5t-118.5 117t-180.5 42.5q-56 0 -108.5 -13.5t-98.5 -38t-84.5 -58t-66.5 -73.5t-43 -84l-26 69q22 61 63.5 111.5t99 88t125.5 58t141 20.5q100 0 179.5 -30t135.5 -84.5t85.5 -130t29.5 -167.5
q0 -115 -30 -203.5t-87 -150t-138.5 -93t-183.5 -31.5z" />
    <glyph glyph-name="seven" unicode="7" horiz-adv-x="877" 
d="M195 -12q-23 9 -28 19t3 29l577 1311h-691q-13 0 -20 7.5t-7 30.5q0 20 5.5 31t21.5 11h763q20 0 30 -17.5t2 -34.5l-595 -1352q-11 -26 -21.5 -35.5t-39.5 0.5z" />
    <glyph glyph-name="eight" unicode="8" horiz-adv-x="1080" 
d="M541 -19q-100 0 -182.5 28.5t-143 80.5t-94 123t-33.5 155q0 68 22.5 129.5t65.5 114t104.5 93t138.5 65.5q-83 32 -144 83.5t-94 117.5t-33 141q0 80 28 143.5t79.5 107.5t125 67t165.5 23q89 0 161 -22t122 -65.5t77 -104.5t27 -139q0 -54 -18 -104.5t-52.5 -95
t-84 -81.5t-112.5 -63q101 -34 174.5 -92.5t113 -135.5t39.5 -166q0 -87 -33.5 -161t-94 -128.5t-143 -84t-181.5 -29.5zM542 66q79 0 144 23t113 65t74 100.5t26 127.5q0 83 -43.5 152.5t-125 120t-195.5 76.5q-82 -21 -148 -56t-112 -82t-70 -103t-24 -120
q0 -67 26.5 -122.5t75 -96.5t114.5 -63t145 -22zM555 812q88 24 152.5 69.5t98.5 107t34 134.5q0 58 -20.5 103.5t-59.5 77.5t-94 48.5t-124 16.5t-124.5 -17.5t-95 -50.5t-60 -80.5t-20.5 -107.5q0 -69 37.5 -127.5t107.5 -103t168 -70.5z" />
    <glyph glyph-name="nine" unicode="9" horiz-adv-x="1161" 
d="M549 1457q149 0 251.5 -72.5t156 -208t53.5 -325.5q0 -157 -24.5 -287.5t-75.5 -234t-131.5 -176.5t-193 -115.5t-259.5 -52.5q-39 -3 -50 4t-13 27q-1 23 4.5 33.5t24.5 11.5q143 11 248.5 50.5t178.5 107.5t116.5 161.5t63.5 211.5t20 259q0 136 -28.5 235.5t-79 164
t-118 95.5t-144.5 31q-81 0 -145.5 -26.5t-110 -77.5t-69 -125t-23.5 -169q0 -97 41.5 -172t118 -117.5t180.5 -42.5q57 0 109.5 13.5t98.5 38t84.5 58t66 73.5t43.5 84l25 -69q-21 -61 -62.5 -111.5t-99 -88t-125.5 -58t-142 -20.5q-99 0 -178.5 30t-136 84.5t-86 130
t-29.5 167.5q0 115 30.5 203.5t87.5 150t138.5 93t183.5 31.5z" />
    <glyph glyph-name="colon" unicode=":" horiz-adv-x="313" 
d="M156 -34q-31 0 -46.5 16.5t-15.5 48.5q0 33 15.5 49t46.5 16q32 0 47.5 -16t15.5 -49q0 -32 -15.5 -48.5t-47.5 -16.5zM156 402q-31 0 -46.5 16.5t-15.5 48.5q0 33 15.5 49t46.5 16q32 0 47.5 -16t15.5 -49q0 -32 -15.5 -48.5t-47.5 -16.5z" />
    <glyph glyph-name="semicolon" unicode=";" horiz-adv-x="313" 
d="M156 402q-31 0 -46.5 16.5t-15.5 48.5q0 33 15.5 49t46.5 16q32 0 47.5 -16t15.5 -49q0 -32 -15.5 -48.5t-47.5 -16.5zM86 -287q-14 0 -26.5 9t-12.5 22q0 4 3 10.5t7 14.5q18 35 29.5 71.5t17 86t5.5 120.5q0 19 13 28t34 9q23 0 36 -10.5t13 -29.5q0 -56 -10 -115
t-30.5 -111.5t-49.5 -88.5q-5 -5 -11.5 -10.5t-17.5 -5.5z" />
    <glyph glyph-name="less" unicode="&#x3c;" horiz-adv-x="763" 
d="M619 200l-488 205q-16 8 -23.5 17.5t-7.5 26.5t7.5 27t23.5 17l488 205q23 9 33 4t18 -26q10 -21 5.5 -32.5t-20.5 -18.5l-424 -176l424 -176q15 -7 19 -18.5t-4 -33.5q-8 -21 -18.5 -25.5t-32.5 4.5z" />
    <glyph glyph-name="equal" unicode="=" horiz-adv-x="763" 
d="M113 523q-11 0 -18 10t-7 30q0 40 25 40h537q11 0 18 -10t7 -30q0 -40 -25 -40h-537zM113 273q-11 0 -18 10t-7 30q0 40 25 40h537q11 0 18 -10t7 -30q0 -40 -25 -40h-537z" />
    <glyph glyph-name="greater" unicode="&#x3e;" horiz-adv-x="763" 
d="M144 200q-22 -9 -32.5 -4.5t-18.5 25.5q-9 22 -4.5 33.5t19.5 18.5l423 176l-423 176q-16 7 -20.5 18.5t5.5 32.5q8 21 18.5 26t32.5 -4l487 -205q17 -7 24.5 -17t7.5 -27t-7.5 -26.5t-24.5 -17.5z" />
    <glyph glyph-name="question" unicode="?" horiz-adv-x="811" 
d="M317 216q-22 0 -33 7t-11 21v387q0 12 9 19.5t25 7.5q83 0 153.5 26.5t123 77t81 122t28.5 161.5q0 102 -35.5 175.5t-101.5 113t-158 39.5q-56 0 -115 -16t-116.5 -44t-106.5 -69q-10 -7 -21 -4.5t-22 13.5q-13 16 -14 27.5t9 20.5q54 48 118 82t133 52t135 18
q119 0 206 -49t134 -140t47 -219q0 -98 -31.5 -180t-88.5 -143.5t-135 -97.5t-169 -43v-337q0 -14 -11 -21t-33 -7zM317 -14q-28 0 -42 15.5t-14 47.5t14 48t42 16q27 0 41 -16t14 -48t-14 -47.5t-41 -15.5z" />
    <glyph glyph-name="at" unicode="@" horiz-adv-x="950" 
d="M297 248q0 51 11.5 91.5t34 69.5t54 44t70.5 15q23 0 50 -8.5t49 -20.5l1 4q4 10 12 15.5t27 5.5t29 -6t10 -18v-283q0 -21 9 -30t29 -9q34 0 62.5 14t49 39t32 59.5t11.5 75.5q0 101 -41 174t-117.5 112t-185.5 39q-81 0 -148.5 -28t-116.5 -79t-76 -120.5t-27 -151.5
q0 -81 26 -149.5t73 -118.5t112 -77.5t143 -27.5q53 0 104 13t95 35q20 10 33 -20q15 -29 -6 -39q-48 -25 -106.5 -38t-119.5 -13q-92 0 -169 32.5t-133 91t-87 138t-31 174.5t32 175.5t90 140t137.5 92.5t174.5 33q128 0 220.5 -46t141.5 -132t49 -205q0 -56 -18 -103
t-50 -81.5t-76.5 -53.5t-96.5 -19q-41 0 -66 18t-25 44v2v2q-25 -36 -57 -51t-69 -15q-66 0 -108 47t-42 147zM377 250q0 -39 9 -66.5t27.5 -41.5t45.5 -14q21 0 39.5 6.5t35.5 20t32 35.5v184q-23 13 -45 17t-44 4t-40 -8.5t-31.5 -26.5t-21 -45t-7.5 -65z" />
    <glyph glyph-name="A.dec_locl" unicode="A" horiz-adv-x="1550" 
d="M201 -17q-30 0 -56 3.5t-46 9t-33 12.5t-19 19t0 28q5 18 15.5 25t21.5 3q19 -7 51 -13t66 -6q43 0 83 17.5t79.5 58t78 109.5t78 171t79.5 243t82 325t86 418q6 28 24 37.5t45 9.5q28 0 45 -8.5t22 -38.5q19 -97 39.5 -199t46 -210t55 -225.5t65.5 -245t78 -269.5
q16 -53 32 -90t33 -60t37.5 -33.5t44.5 -10.5q38 0 68.5 37t54 111t39.5 184q2 17 13 23.5t32 2.5q20 -3 28 -12.5t6 -24.5q-17 -133 -50.5 -222t-81 -134t-109.5 -45q-40 0 -72.5 13t-58.5 42t-49 77t-46 118q-15 50 -29.5 98t-28.5 95h-441q-37 -101 -75 -176
t-77.5 -126.5t-80.5 -82.5t-84.5 -44.5t-90.5 -13.5zM637 503h391q-44 156 -79 296.5t-63.5 270.5t-51.5 254q-50 -267 -99.5 -469.5t-97.5 -351.5z" />
    <glyph glyph-name="B" unicode="B" horiz-adv-x="1085" 
d="M251 0q-44 0 -44 28v1371q0 28 45 28h310q124 0 211.5 -29.5t133.5 -96t46 -176.5q0 -83 -29.5 -146.5t-76 -108t-98.5 -71.5t-99 -37v-5q71 -1 135 -19.5t114.5 -55t80 -96t29.5 -144.5q0 -78 -22 -146t-64.5 -122.5t-103.5 -93.5t-136.5 -59.5t-165.5 -20.5h-266z
M295 80h222q96 0 170.5 27.5t126.5 77t78.5 115t26.5 140.5t-26.5 127.5t-76 84.5t-118 47t-151.5 15h-252v-634zM295 794h226q70 0 131.5 23t109 66t74.5 104t27 136q0 83 -36.5 132t-104 70.5t-160.5 21.5h-267v-553z" />
    <glyph glyph-name="C" unicode="C" horiz-adv-x="1159" 
d="M680 -19q-125 0 -226 52.5t-173 149.5t-110.5 232.5t-38.5 302.5q0 111 18.5 208.5t53 179t84.5 145.5t112.5 109.5t137 69t158.5 23.5q66 0 134 -20t129 -60.5t106 -101.5q8 -12 4.5 -21t-16.5 -20q-13 -12 -23.5 -14t-19.5 8q-46 46 -96.5 78.5t-105 49t-112.5 16.5
q-68 0 -129 -20t-113.5 -58.5t-94.5 -95t-72 -129t-46 -159.5t-16 -188q0 -151 33 -271.5t93.5 -205.5t144 -130t184.5 -45q56 0 105 16.5t93 46t84.5 67.5t77.5 79q8 10 19.5 7.5t25.5 -13.5q13 -11 16 -20t-5 -20q-62 -82 -129 -137.5t-138.5 -83t-148.5 -27.5z" />
    <glyph glyph-name="D" unicode="D" horiz-adv-x="1300" 
d="M251 0q-44 0 -44 28v1371q0 14 11 21t33 7h273q153 0 272 -43.5t202 -127t126 -202t43 -267.5q0 -148 -31.5 -271t-92 -219t-148.5 -162.5t-202.5 -100.5t-252.5 -34h-189zM295 85h144q120 0 219.5 30.5t175.5 89t128.5 144t80 195.5t27.5 243q0 129 -37 232t-107 175
t-171.5 110t-230.5 38h-229v-1257z" />
    <glyph glyph-name="E.cur" unicode="E" horiz-adv-x="1042" 
d="M558 -19q-128 0 -224 49t-148.5 137t-52.5 207q0 68 21 130.5t60 114t92 87.5t116 50q-70 21 -122.5 69.5t-81 117t-28.5 148.5q0 64 18 119t52.5 99.5t82 76.5t106 49.5t125.5 17.5q68 0 130 -16.5t116.5 -49.5t99.5 -81q14 -13 17.5 -29t-13.5 -33q-18 -15 -31 -12.5
t-30 18.5q-41 39 -88 64.5t-99 39.5t-107 14q-63 0 -115.5 -20.5t-91 -57t-59.5 -87t-21 -110.5q0 -86 36.5 -153.5t100 -106.5t145.5 -39h178q15 0 21.5 -8.5t6.5 -31.5q0 -22 -6.5 -31t-21.5 -9h-178q-73 0 -135 -25t-107.5 -70t-70.5 -106t-25 -134q0 -95 41.5 -165
t116.5 -109t175 -39q64 0 124.5 21t115.5 62.5t102 102.5q14 17 27 20t28 -11q17 -13 19 -26.5t-15 -36.5q-53 -71 -117 -119t-135.5 -73t-149.5 -25z" />
    <glyph glyph-name="F" unicode="F" horiz-adv-x="934" 
d="M251 -14q-44 0 -44 28v1385q0 14 11 21t33 7h627q15 0 21.5 -8.5t6.5 -31.5q0 -22 -6.5 -31t-21.5 -9h-583v-593h490q15 0 21 -8.5t6 -31.5q0 -22 -6 -31t-21 -9h-490v-660q0 -14 -11 -21t-33 -7z" />
    <glyph glyph-name="G.cur" unicode="G" horiz-adv-x="1395" 
d="M880 -958q-63 0 -108 27t-68.5 76.5t-23.5 117.5q0 91 34 178t91 168.5t129.5 156t149.5 139.5q52 45 103.5 84.5t99 74t88.5 62.5q21 15 32.5 11t22.5 -21q11 -16 9 -29.5t-17 -24.5q-40 -27 -89 -63t-102.5 -77t-107.5 -88q-68 -59 -130.5 -125.5t-112 -138.5
t-78.5 -149t-29 -157q0 -64 31 -101t85 -37q78 0 122 76.5t44 208.5v1016q-33 -93 -81 -168t-106.5 -129t-125.5 -83t-140 -29q-105 0 -194.5 50.5t-155 142.5t-101.5 217t-36 274q0 109 19 206.5t55.5 181.5t88 151t115.5 114t139 72.5t159 25.5q77 0 148 -22.5
t135.5 -65.5t120.5 -108q9 -11 9 -21.5t-15 -26.5q-15 -15 -28.5 -15.5t-23.5 8.5q-50 55 -106.5 92t-116.5 55.5t-124 18.5q-70 0 -133 -22.5t-116.5 -64t-96 -100.5t-73 -133.5t-47 -161t-16.5 -183.5q0 -131 29.5 -240.5t83 -190t126.5 -125t159 -44.5q81 0 154.5 44
t133.5 122t101.5 183.5t59.5 229.5q0 14 11 21t33 7q44 0 44 -28v-1270q0 -115 -32 -198t-90.5 -127.5t-140.5 -44.5z" />
    <glyph glyph-name="H.cur" unicode="H" horiz-adv-x="1544" 
d="M336 -19q-57 0 -97.5 25.5t-61 74.5t-20.5 118q0 59 19 115t54.5 106t86 92t113.5 72v634q0 83 -23.5 120t-74.5 37q-36 0 -67 -16.5t-61 -53.5t-63 -101q-8 -14 -21 -17t-29 4q-18 9 -22 22.5t5 30.5q38 74 78 121.5t85 70t98 22.5q91 0 137 -60.5t46 -179.5v-596
q91 43 179 87t174 89l172 90v299q0 86 21.5 146.5t62 92.5t98.5 32q55 0 95 -28t61.5 -79t21.5 -121q0 -59 -17.5 -113.5t-51.5 -103.5t-85 -92.5t-119 -80.5v-581q0 -63 14.5 -106t43 -65t72.5 -22q31 0 58 11t50 32t43 51q11 18 25 20t31 -9q15 -11 16 -23.5t-10 -30.5
q-23 -42 -56.5 -72t-74 -47t-86.5 -17q-54 0 -94.5 19t-66 55t-39 86.5t-13.5 114.5v536q-56 -30 -121.5 -64.5t-134.5 -69.5t-137.5 -68t-131.5 -62v-268q0 -88 -21.5 -150.5t-62 -95.5t-98.5 -33zM336 65q45 0 69.5 50.5t24.5 143.5v233q-43 -20 -76.5 -49.5t-57 -67.5
t-36.5 -81.5t-13 -90.5q0 -67 23 -102.5t66 -35.5zM1130 935q46 25 79.5 56t56.5 68t34.5 79t11.5 88q0 70 -24 110t-63 40q-45 0 -70 -49t-25 -139v-253z" />
    <glyph glyph-name="I.dec" unicode="I" horiz-adv-x="802" 
d="M323 -19q-54 0 -100.5 16t-84.5 46t-67 74q-10 16 -8 30.5t18 26.5q19 14 32.5 11.5t25.5 -18.5q40 -49 87 -75t101 -26q63 0 106 29t64.5 86.5t21.5 145.5v1013q-19 -19 -47.5 -31t-60.5 -12q-27 0 -51.5 6t-46.5 13.5t-43.5 13t-41.5 5.5q-26 0 -46 -13.5t-32 -39.5
t-12 -62q0 -15 -9.5 -25t-34.5 -10q-21 0 -30.5 9.5t-9.5 25.5q0 60 21 104.5t60 69.5t90 25q32 0 57.5 -6t48.5 -13.5t44.5 -13.5t44.5 -6q31 0 51 14.5t38 30.5q15 16 27.5 22t26.5 6q22 0 33 -6.5t11 -20.5v-1100q0 -115 -32.5 -191.5t-95.5 -115t-156 -38.5z" />
    <glyph glyph-name="J.dec" unicode="J" horiz-adv-x="878" 
d="M309 -958q-63 0 -108 27t-69 76.5t-24 117.5q0 91 33.5 178t91.5 168.5t130.5 156t149.5 139.5q51 44 102 83.5t99 74t89 63.5q21 15 32 11t24 -21q11 -16 8.5 -29.5t-17.5 -24.5q-41 -29 -90.5 -64.5t-102.5 -76.5t-105 -87q-68 -59 -131 -125.5t-112.5 -138.5
t-78.5 -149t-29 -157q0 -64 30.5 -101t84.5 -37q79 0 123 76.5t44 208.5v1929q-20 -19 -48.5 -31t-59.5 -12q-27 0 -51 6t-46.5 13.5t-43.5 13t-42 5.5q-26 0 -46 -13.5t-32 -39.5t-12 -62q0 -15 -9.5 -25t-33.5 -10q-22 0 -32 9.5t-10 25.5q0 60 21.5 104.5t60.5 69.5
t91 25q32 0 57.5 -6t47.5 -13.5t44 -13.5t45 -6q32 0 51.5 14.5t36.5 30.5q16 16 28 22t27 6q22 0 32.5 -6.5t10.5 -20.5v-2014q0 -115 -31.5 -198t-90 -127.5t-139.5 -44.5z" />
    <glyph glyph-name="K.dec" unicode="K" horiz-adv-x="1546" 
d="M1313 -17q-65 0 -109 24t-73 65t-48.5 94t-35.5 112t-33.5 117.5t-42 111.5t-62 94t-93.5 65t-137 24h-84v-676q0 -14 -11 -21t-33 -7t-33 7t-11 21v1326q-19 -18 -43.5 -28.5t-55.5 -10.5q-27 0 -51.5 5.5t-47 13.5t-44 13.5t-42.5 5.5q-26 0 -45.5 -14t-30.5 -39.5
t-11 -61.5q0 -15 -9.5 -24.5t-34.5 -9.5q-22 0 -31.5 9.5t-9.5 24.5q0 61 20.5 105.5t59 69t90.5 24.5q31 0 57 -5.5t49 -13.5t45.5 -13.5t45.5 -5.5t43 11.5t41 32.5q12 14 21 19t29 5q21 0 32 -6.5t11 -20.5v-656h77q75 0 126 28.5t85 77.5t58 109.5t44.5 125.5t43.5 125
t55 109t80 77.5t118 28.5q38 0 73.5 -9t68.5 -27q11 -7 13.5 -18t-5.5 -27q-7 -19 -17.5 -25.5t-23.5 -0.5q-34 15 -59 21t-53 6q-45 0 -76.5 -22t-54.5 -60t-40.5 -86t-34.5 -102t-36.5 -108.5t-45.5 -103.5t-63.5 -88.5t-89.5 -61.5q67 -19 113.5 -58.5t77 -91.5
t51 -110.5t36 -117.5t31.5 -112t37.5 -95t53.5 -66.5t80 -24.5q36 0 63 8.5t48 22.5t39 30q16 14 29 14.5t26 -13.5q14 -16 12.5 -31.5t-16.5 -28.5q-42 -40 -95.5 -61t-110.5 -21z" />
    <glyph glyph-name="L.cur" unicode="L" horiz-adv-x="1161" 
d="M197 -21q-49 0 -85.5 17.5t-56.5 49t-20 74.5q0 46 20.5 82t57.5 56.5t85 20.5q49 0 92.5 -14.5t86 -37t85 -48t88.5 -48t98 -37t112 -14.5q72 0 127.5 25.5t93 74.5t54.5 120q6 17 19 22t31 0q19 -5 24.5 -16t0.5 -31q-21 -86 -70.5 -149t-121.5 -97t-162 -34
q-80 0 -146.5 20.5t-122 50.5t-104 59.5t-94 50t-92.5 20.5q-33 0 -52 -19.5t-19 -49.5t20 -47.5t53 -17.5q60 0 96 63t36 174v761q0 96 20.5 169.5t62 123t102.5 75t140 25.5q75 0 133 -27.5t99 -82.5t62 -135q7 -23 1.5 -35t-24.5 -17q-21 -7 -34 -0.5t-18 24.5
q-18 65 -47.5 108t-72 64t-99.5 21q-59 0 -103.5 -20t-74.5 -59.5t-45 -98t-15 -135.5v-761q0 -100 -27.5 -171.5t-76.5 -110t-117 -38.5z" />
    <glyph glyph-name="M.cur" unicode="M" horiz-adv-x="1946" 
d="M1720 -19q-61 0 -102 29t-61.5 86.5t-20.5 141.5v846q0 91 -22.5 154t-67.5 96.5t-115 33.5q-44 0 -84 -14t-75.5 -41t-63.5 -66t-49 -88.5t-32 -109.5v-1035q0 -14 -11 -21t-33 -7q-21 0 -32 7t-11 21v1071q0 90 -22.5 153t-68 96.5t-115.5 33.5q-43 0 -83 -13.5
t-75 -40t-63 -65t-49 -87t-32 -107.5v-1041q0 -14 -11 -21t-33 -7t-33 7t-11 21v1204q0 83 -23.5 120t-75.5 37q-35 0 -66 -16.5t-60.5 -54t-63.5 -101.5q-7 -13 -20.5 -16t-28.5 4q-19 9 -23 22.5t5 30.5q39 74 79 121.5t85 70t98 22.5q70 0 113.5 -36t58.5 -109
q5 -16 7 -34.5t3 -38.5q22 50 54.5 89t72.5 67t86 42.5t97 14.5q63 0 111.5 -18.5t84 -55.5t56.5 -91q8 -17 13 -35.5t9 -38.5q21 56 53.5 100t74.5 75t91.5 47.5t104.5 16.5q93 0 156 -42t95.5 -124t32.5 -202v-845q0 -56 11 -94.5t34 -58t57 -19.5q26 0 46.5 10t39 30.5
t37.5 51.5q10 17 24.5 19.5t28.5 -7.5q19 -12 21 -26t-6 -29q-19 -34 -41 -60t-47 -42.5t-52.5 -25t-56.5 -8.5z" />
    <glyph glyph-name="N.cur" unicode="N" horiz-adv-x="1446" 
d="M1220 -19q-62 0 -103 29t-61.5 86.5t-20.5 141.5v820q0 100 -27.5 169t-83.5 105t-141 36q-51 0 -97.5 -14t-87.5 -41t-73.5 -65.5t-56 -88t-36.5 -107.5v-1038q0 -14 -11 -21t-33 -7t-33 7t-11 21v1204q0 83 -23.5 120t-75.5 37q-35 0 -66 -16.5t-60.5 -54t-63.5 -101.5
q-7 -13 -20.5 -16t-28.5 4q-19 9 -23 22.5t5 30.5q39 74 79 121.5t85 70t98 22.5q52 0 87 -19.5t55.5 -51.5t30 -72.5t9.5 -82.5v-2q25 52 62 93.5t83 70t100.5 44t113.5 15.5q108 0 182 -44.5t112 -132.5t38 -218v-818q0 -56 11.5 -94.5t34 -58t57.5 -19.5q25 0 46 10
t40 30.5t38 51.5q9 17 23 19.5t29 -7.5q19 -12 21 -26t-7 -29q-18 -34 -40 -60t-47 -42.5t-52.5 -25t-56.5 -8.5z" />
    <glyph glyph-name="O" unicode="O" horiz-adv-x="1384" 
d="M694 -19q-128 0 -231.5 52.5t-177 149.5t-113.5 232.5t-40 302.5q0 111 18 208.5t52.5 179t83.5 145.5t111.5 109.5t137 69t159.5 23.5q126 0 228.5 -52.5t176 -149.5t113 -232t39.5 -301q0 -111 -18 -209t-51.5 -180t-82.5 -146t-111 -109.5t-136 -69t-158 -23.5z
M694 66q70 0 131 21t113 60.5t93 96t69 129t43 159.5t15 186q0 147 -33 267t-94 205.5t-146.5 131.5t-190.5 46q-71 0 -133 -21t-114 -60.5t-93 -96t-70 -129t-44 -158.5t-15 -185q0 -148 33.5 -268t95.5 -206t147.5 -132t192.5 -46z" />
    <glyph glyph-name="P" unicode="P" horiz-adv-x="1047" 
d="M251 -14q-44 0 -44 28v1385q0 14 11.5 21t33.5 7h286q145 0 243.5 -35.5t148.5 -114t50 -207.5q0 -109 -38 -190.5t-104 -137.5t-151 -89t-180 -46q-59 -7 -112 -11.5t-100 -6.5v-575q0 -14 -11 -21t-33 -7zM295 668q28 2 61.5 4t71.5 6t77 8q108 16 194 60.5t136.5 124
t50.5 197.5q0 101 -39 162t-116.5 89t-192.5 28h-243v-679z" />
    <glyph glyph-name="Q.dec" unicode="Q" horiz-adv-x="1552" 
d="M666 -17q-123 0 -222 48.5t-171 139.5t-110.5 217.5t-38.5 281.5q0 132 22.5 240t64.5 194t98.5 152t124.5 112.5t145 74.5q22 7 35 3t22 -26q8 -20 1.5 -34t-24.5 -21q-78 -29 -141 -74.5t-111.5 -107t-81 -139t-48.5 -171t-16 -203.5q0 -135 32.5 -246t92 -190.5
t142 -122.5t184.5 -43q74 0 141.5 23t124.5 65q-22 32 -45 63t-49.5 58.5t-58.5 49.5t-73 34t-93 13q2 -24 -7 -40.5t-24.5 -26t-34.5 -9.5q-35 0 -55 21.5t-20 52.5q0 20 9 37.5t27 29.5q-20 78 -32.5 166t-12.5 190q0 93 16 171.5t46 141.5t73.5 107.5t100 68t124.5 23.5
q96 0 176.5 -43.5t140 -123t92.5 -188.5t33 -238q0 -86 -14 -167t-41 -153t-66.5 -134t-88.5 -111q20 -24 42 -42.5t48 -28.5t57 -10q61 0 114 40.5t103 121.5q8 14 22 16.5t30 -5.5q18 -9 22 -22.5t-7 -31.5q-39 -67 -84.5 -112.5t-96 -68.5t-106.5 -23q-50 0 -88.5 14
t-69 37.5t-56.5 53.5q-68 -50 -148.5 -77.5t-170.5 -27.5zM823 1222q-50 0 -92.5 -19.5t-75 -56.5t-55 -89t-34 -117.5t-11.5 -141.5q0 -96 9.5 -180t28.5 -162q71 1 126.5 -12.5t98 -37t75 -54.5t59 -64.5t50.5 -67.5q40 44 72 98.5t54.5 117.5t34 133t11.5 145
q0 111 -26 204t-73.5 161.5t-111.5 105.5t-140 37z" />
    <glyph glyph-name="R" unicode="R" horiz-adv-x="1037" 
d="M252 -14q-22 0 -33.5 7t-11.5 21v1385q0 14 11.5 21t33.5 7h248q148 0 244.5 -33.5t144.5 -106t48 -190.5q0 -72 -19 -131t-54 -105.5t-83.5 -81t-109 -59t-129 -39t-144.5 -20.5q85 -110 175 -217.5t187 -206t203 -182.5q11 -8 14.5 -24t-16.5 -33q-13 -13 -27 -13.5
t-29 11.5q-112 91 -216.5 198.5t-202.5 223.5t-191 231v-635q0 -14 -11 -21t-32 -7zM295 730q61 1 120 7.5t113 19.5t102.5 33t88 48.5t68.5 66.5t44.5 85.5t15.5 106.5q0 88 -37 143t-113 81t-190 26h-212v-617z" />
    <glyph glyph-name="S" unicode="S" horiz-adv-x="1029" 
d="M495 -19q-48 0 -99.5 10t-101 30.5t-94 54.5t-80.5 81q-7 11 -6.5 20t14.5 23q14 15 23.5 16.5t28.5 -15.5q41 -41 87.5 -71.5t102.5 -47t125 -16.5q77 0 138 21.5t103.5 62.5t64.5 98.5t22 130.5q0 67 -22 115t-62.5 82.5t-94 61t-116.5 49.5q-53 21 -105 45t-99 55.5
t-83 74.5t-56.5 101.5t-20.5 137.5q0 83 28 148.5t78.5 110.5t117.5 69t144 24q79 0 141.5 -23t114.5 -60.5t101 -81.5q11 -10 9 -20.5t-12 -21.5q-13 -13 -24.5 -18.5t-22.5 3.5q-50 43 -99 73.5t-100 47t-108 16.5q-64 0 -114.5 -18.5t-86.5 -53t-55 -84t-19 -111.5
q0 -78 25 -130.5t68 -88t97 -61t113 -47.5q63 -24 126 -54.5t115 -75t83.5 -109t31.5 -156.5q0 -90 -29.5 -163.5t-85 -126t-133 -80.5t-173.5 -28z" />
    <glyph glyph-name="T.dec" unicode="T" horiz-adv-x="1079" 
d="M411 -19q-52 0 -95 19t-75.5 49.5t-52.5 65.5q-11 18 -9.5 32.5t18.5 24.5q18 11 30 9.5t25 -18.5q23 -32 48 -54t53 -33.5t62 -11.5q61 0 90 48.5t29 146.5v1088h-183q-82 0 -135.5 -16.5t-83.5 -53t-45 -95.5q-4 -16 -15 -22t-33 -1q-19 6 -24.5 16.5t-1.5 29.5
q12 53 38.5 95t68.5 70t100 42.5t133 14.5h688q15 0 21 -8.5t6 -31.5q0 -22 -6 -31t-21 -9h-420v-1100q0 -84 -23.5 -143.5t-70.5 -91t-116 -31.5z" />
    <glyph glyph-name="U.cur" unicode="U" horiz-adv-x="1429" 
d="M681 -19q-106 0 -181.5 44.5t-115.5 132t-40 215.5v845q0 83 -23.5 120t-75.5 37q-35 0 -66 -16.5t-60.5 -54t-63.5 -101.5q-7 -13 -20.5 -16t-28.5 4q-19 9 -23 22.5t5 30.5q38 74 78 121.5t85.5 70t97.5 22.5q91 0 137 -60.5t46 -179.5v-832q0 -107 29 -178t86 -106.5
t141 -35.5q47 0 90 11.5t80 33.5t67.5 53.5t53.5 73t38 90.5v1098q0 14 11 20.5t32 6.5q22 0 33 -6.5t11 -20.5v-1186q0 -56 11.5 -94.5t34 -58t58.5 -19.5q37 0 66 22.5t57 69.5q9 17 24 19.5t28 -7.5q19 -12 21.5 -26t-6.5 -29q-19 -34 -41 -60t-46.5 -42.5t-52 -25
t-56.5 -8.5q-54 0 -92.5 22t-60.5 66.5t-29 108.5q0 3 -0.5 6.5t-0.5 6.5q-24 -52 -59 -91t-78.5 -65.5t-94 -40t-106.5 -13.5z" />
    <glyph glyph-name="V.cur" unicode="V" horiz-adv-x="1365" 
d="M695 -19q-132 0 -210 102t-104 290q-10 73 -19 147.5t-15.5 153.5t-12.5 164.5t-11.5 180.5t-10.5 202q-3 56 -11 90t-24 49t-43 15q-33 0 -58.5 -17t-51 -55t-57.5 -100q-7 -14 -20.5 -17.5t-28.5 3.5q-17 8 -21 22.5t3 30.5q37 75 73 122.5t76.5 70t88.5 22.5
q53 0 87 -25.5t52.5 -77t22.5 -129.5l11 -214.5t11 -181t12.5 -157.5t15 -143.5t18.5 -141.5q15 -106 45 -177.5t76.5 -107.5t108.5 -36q59 0 107.5 32.5t86 92t65.5 139.5t46 174.5t27 198.5t9 211q0 89 -2.5 161t-7.5 130.5t-13 103.5q-47 13 -68.5 39t-21.5 52
q0 23 16 40.5t45 17.5q39 0 63.5 -21t41.5 -55q14 -14 49 -31t82 -32t97 -24q14 -2 19.5 -14t3.5 -26t-11 -24.5t-24 -9.5q-22 2 -50.5 8.5t-58 15.5t-54 20t-38.5 21q6 -55 10.5 -113t7 -123.5t2.5 -142.5q0 -114 -10.5 -227t-32.5 -216.5t-56.5 -191t-82 -153.5t-110 -102
t-140.5 -36z" />
    <glyph glyph-name="W.cur" unicode="W" horiz-adv-x="1914" 
d="M660 -19q-118 0 -185 99.5t-95 292.5q-12 91 -22 185t-18 196.5t-14.5 218t-13.5 248.5q-3 56 -11 90t-24 49t-43 15q-33 0 -58.5 -17t-51 -55t-57.5 -100q-7 -14 -19.5 -17.5t-29.5 3.5q-17 8 -21 22.5t3 30.5q37 75 73 122.5t76.5 70t88.5 22.5q53 0 87 -25.5t52.5 -77
t22.5 -129.5q5 -98 9 -181.5t9 -156.5t10 -138t11 -125t13 -118.5t15 -118.5q15 -106 42.5 -179t67.5 -110t93 -37q41 0 76 22.5t64 67t53 112.5t42.5 159t31.5 206.5t21 254.5q-10 25 -16 52t-6 48q0 24 7.5 42.5t21.5 30t34 11.5q34 0 52.5 -26.5t18.5 -68.5
q0 -24 -3 -45.5t-11 -40.5q8 -82 15 -155.5t15.5 -138t18.5 -121t23 -105.5q26 -105 58.5 -172t72 -100t87.5 -33q46 0 86 36t71.5 104t53.5 165t34 219t12 266q0 69 -2.5 134.5t-7 125t-10 109.5t-12.5 89q-47 13 -68.5 39t-21.5 52q0 23 16 40.5t45 17.5q39 0 63.5 -21
t41.5 -55q13 -14 48 -31t82.5 -32t97.5 -24q15 -3 19 -13.5t4 -21.5q0 -15 -9 -27.5t-26 -11.5q-18 2 -40 6.5t-45.5 11t-46 14.5t-40.5 16.5t-30 16.5q9 -51 15.5 -115t10 -146t3.5 -186q0 -130 -11.5 -244t-32.5 -209.5t-51.5 -170.5t-69.5 -127t-85.5 -79.5t-99.5 -27.5
q-70 0 -123.5 38t-93.5 117t-67 202q-7 35 -13.5 72.5t-11.5 78.5t-10 85t-9 92h-3q-11 -139 -31 -249t-49.5 -191.5t-69 -136t-89.5 -81.5t-110 -27z" />
    <glyph glyph-name="X.cur" unicode="X" horiz-adv-x="1241" 
d="M1041 -19q-53 0 -93 21t-77 70.5t-79 134.5l-213 437l-364 -644q-9 -16 -23.5 -18t-33.5 11q-19 12 -21.5 24.5t8.5 32.5l389 687l-256 554q-13 29 -28.5 45t-35.5 23.5t-47 7.5q-23 0 -50 -10t-58 -27q-15 -7 -28 -1.5t-21 18.5q-8 17 -4.5 30.5t19.5 23.5
q37 25 75 37.5t77 12.5q32 0 59 -7.5t49.5 -24t41 -41.5t35.5 -59l232 -505l344 619q11 20 25.5 22.5t31.5 -8.5q18 -10 21.5 -23.5t-7.5 -34.5l-370 -667l233 -480q25 -52 45.5 -86t40 -54.5t40.5 -28.5t45 -8q37 0 65.5 23.5t58.5 73.5q8 12 21 17t32 -9q14 -11 18 -23.5
t-4 -25.5q-25 -47 -55 -78t-64.5 -46.5t-73.5 -15.5z" />
    <glyph glyph-name="Y.cur" unicode="Y" horiz-adv-x="1381" 
d="M821 -958q-62 0 -107 27t-69 76.5t-24 117.5q0 91 34 178t91 168.5t129.5 156t150.5 139.5q51 44 102.5 83.5t99 74t89.5 63.5q19 15 31 11t24 -21q11 -16 8.5 -29.5t-17.5 -24.5q-41 -29 -90.5 -64.5t-102.5 -76.5t-105 -87q-68 -59 -130.5 -125.5t-112.5 -138.5
t-79 -149t-29 -157q0 -64 31 -101t85 -37q52 0 89.5 34.5t57 98.5t19.5 152v878q-25 -51 -59.5 -89.5t-77 -64.5t-92 -39t-103.5 -13q-78 0 -139.5 25t-104.5 74t-65 122.5t-22 169.5v743q0 82 -24 119.5t-75 37.5q-35 0 -66 -16.5t-61 -54t-63 -100.5q-8 -15 -21.5 -18
t-28.5 4q-19 10 -23 23t6 31q38 74 78 121.5t85.5 70t98.5 22.5q89 0 135 -60.5t46 -179.5v-730q0 -106 29 -177.5t84.5 -106.5t136.5 -35q60 0 110.5 17.5t92.5 51t73.5 82t49.5 109.5v996q0 14 11 21t33 7t33 -7t11 -21v-2012q0 -87 -18 -155t-52 -116t-83 -73.5
t-110 -25.5z" />
    <glyph glyph-name="Z.dec" unicode="Z" horiz-adv-x="1301" 
d="M849 -17q-58 0 -124.5 9.5t-133 22.5t-125 23t-100.5 9q-48 -1 -81.5 -8t-62 -18.5t-63.5 -25.5q-22 -11 -35 -9t-22 10q-10 13 -9 24t13 29l880 1266q-25 -9 -54.5 -14t-68.5 -5q-58 0 -116.5 10t-114.5 24t-108 24t-97 10q-44 0 -81.5 -13.5t-67.5 -40.5t-53 -68
q-8 -15 -22.5 -19.5t-34.5 7.5q-21 14 -21.5 26t11.5 32q32 53 72 88.5t88.5 54t105.5 18.5q58 0 112 -10t108 -24t112.5 -24.5t123.5 -10.5q61 0 106.5 10.5t86.5 29.5q17 9 29.5 11.5t24.5 -9.5q17 -15 13.5 -28.5t-13.5 -27.5l-872 -1257q28 11 59.5 16.5t66.5 5.5
q55 0 115.5 -9.5t122.5 -22t121 -22t109 -9.5q78 0 135 26t97 77t64 129q6 20 19 24t32 -2q20 -7 25 -17.5t0 -27.5q-27 -96 -76.5 -162t-123 -99t-172.5 -33z" />
    <glyph glyph-name="bracketleft" unicode="[" horiz-adv-x="600" 
d="M499 1473q0 -22 -6 -31t-21 -9h-147v-1428h147q15 0 21 -8.5t6 -31.5q0 -22 -6 -31t-21 -9h-190q-44 0 -44 27v1533q0 28 44 28h190q15 0 21 -8.5t6 -31.5z" />
    <glyph glyph-name="backslash" unicode="\" horiz-adv-x="505" 
d="M458 -75q-20 -5 -32 -1t-16 17l-399 1535q-4 14 5 23t31 14q20 6 32.5 2t16.5 -18l399 -1534q4 -14 -5.5 -23t-31.5 -15z" />
    <glyph glyph-name="bracketright" unicode="]" horiz-adv-x="600" 
d="M102 -35q0 23 6 31.5t21 8.5h147v1428h-147q-15 0 -21 9t-6 31q0 23 6 31.5t21 8.5h190q44 0 44 -27v-1533q0 -28 -44 -28h-190q-15 0 -21 9t-6 31z" />
    <glyph glyph-name="asciicircum" unicode="^" horiz-adv-x="763" 
d="M124 1087l210 335q11 16 21 23.5t26 7.5q17 0 27.5 -7.5t20.5 -23.5l210 -335q12 -19 8.5 -31.5t-21.5 -24.5q-20 -14 -32.5 -9.5t-22.5 20.5l-190 307l-190 -307q-10 -17 -23.5 -21t-33.5 10q-18 12 -20 24.5t10 31.5z" />
    <glyph glyph-name="underscore" unicode="_" horiz-adv-x="300" 
d="M1 -136q-15 0 -21.5 9t-6.5 31q0 23 6.5 31.5t21.5 8.5h299q15 0 21 -8.5t6 -31.5q0 -22 -6 -31t-21 -9h-299z" />
    <glyph glyph-name="grave" unicode="`" horiz-adv-x="645" 
d="M353 610q-4 0 -8.5 3t-10.5 10l-123 147q-7 8 -9.5 12.5t-2.5 11.5q0 9 10.5 19.5t24 18t23.5 7.5q14 0 24 -15l107 -164q5 -7 5.5 -10t0.5 -6q0 -10 -15 -22t-26 -12z" />
    <glyph glyph-name="a.mod" unicode="a" horiz-adv-x="622" 
d="M258 -17q-57 0 -101 27.5t-69 83.5t-25 141q0 52 9.5 96t28.5 79t46 59t62 37t77 13q32 0 66 -10.5t64 -27.5v5q0 15 11 22t33 7t32.5 -6.5t10.5 -20.5v-392q0 -13 4 -21.5t11 -12.5t16 -4q10 0 16.5 2.5t13 7.5t15.5 12q7 6 16 3.5t18 -10.5q9 -10 10 -21t-4 -19
q-11 -16 -28 -27t-36.5 -17t-39.5 -6q-23 0 -40 5t-29 15.5t-18.5 25.5t-9.5 34q0 1 -1 4.5t-1 7.5q-23 -37 -49.5 -57t-54.5 -27.5t-54 -7.5zM151 239q0 -55 13 -94.5t39.5 -60.5t66.5 -21q29 0 55.5 10t49.5 33t41 60v242q-31 19 -60 25.5t-61 6.5q-26 0 -48 -8t-40 -24
t-30.5 -40t-19 -56t-6.5 -73z" />
    <glyph glyph-name="b.mlp" unicode="b" horiz-adv-x="689" 
d="M-57 -17q-19 0 -28 11.5t-9 26t9 26t28 11.5q33 0 64.5 20t62 57.5t58.5 91t53 121t47 147t39.5 168.5t29.5 186.5t18.5 201t6.5 210.5q0 18 13 27.5t30.5 9.5t30.5 -9.5t13 -27.5q0 -114 -8 -223.5t-22.5 -212.5t-35.5 -198t-47.5 -179.5t-57.5 -156t-65.5 -128.5
t-72 -97t-77 -61.5t-80.5 -21.5zM330 -19q-45 0 -83 17t-66 50.5t-43 84.5t-15 118v1007q0 98 38 148.5t112 50.5q44 0 75 -22.5t46 -66t15 -107.5q0 -19 -13 -28t-30.5 -9t-30.5 9t-13 28q0 39 -5.5 65t-18 38.5t-30.5 12.5q-20 0 -33 -12.5t-19.5 -39t-6.5 -67.5v-1007
q0 -47 7.5 -82.5t22.5 -59.5t38 -36t54 -12q27 0 52 8.5t47.5 25t40.5 41t31.5 56.5t20.5 71.5t7 86.5q0 71 -22 99.5t-48 28.5q-18 0 -24.5 -10.5t-6.5 -22.5q0 -13 10 -26t35 -21t71 -8q38 0 72 16t71 39q12 8 22 2t16 -18t6 -24.5t-9 -18.5q-43 -30 -84 -46t-94 -16
q-61 0 -100.5 15.5t-59 43t-19.5 62.5q0 27 11 47.5t32 32t51 11.5q39 0 67.5 -17.5t47 -45t27 -60t8.5 -62.5q0 -50 -8.5 -96.5t-24.5 -88t-40 -75.5t-55 -58.5t-69 -38t-83 -13.5z" />
    <glyph glyph-name="c.mod" unicode="c" horiz-adv-x="522" 
d="M277 -19q-67 0 -119.5 30t-82.5 89t-30 145q0 60 17.5 110.5t49 87t74.5 56.5t95 20q44 0 90.5 -18.5t83.5 -62.5q11 -14 8.5 -25t-13.5 -23q-13 -13 -24.5 -16t-23.5 7q-27 23 -54 40.5t-71 17.5q-33 0 -60 -13t-45.5 -38t-28.5 -59.5t-10 -78.5q0 -58 17.5 -100.5
t50 -65.5t76.5 -23q32 0 54.5 9t41.5 25.5t40 39.5q11 11 23 10t26 -12t18 -21.5t-5 -23.5q-27 -39 -60.5 -62.5t-69 -34t-68.5 -10.5z" />
    <glyph glyph-name="d.mod" unicode="d" horiz-adv-x="628" 
d="M258 -17q-57 0 -101 27.5t-69 83.5t-25 141q0 52 10 96t28.5 79t46 59t63.5 37t79 13q30 0 64 -9t64 -26v943q0 13 11 19.5t32 6.5q22 0 32.5 -6.5t10.5 -19.5v-1331q0 -20 8.5 -29t22.5 -9q9 0 16.5 3t14.5 8t15 11t17.5 2t16.5 -12q8 -9 9.5 -19t-4.5 -18
q-11 -16 -28 -27t-36.5 -17t-39.5 -6q-38 0 -59 14t-29.5 34.5t-8.5 41.5v1.5v1.5q-24 -38 -51.5 -58t-55.5 -27.5t-54 -7.5zM151 239q0 -55 13 -94.5t39.5 -60.5t66.5 -21q29 0 55.5 10t50 33t42.5 60v238q-31 20 -61 28t-62 8q-26 0 -48 -8t-40 -24t-30.5 -40t-19 -56
t-6.5 -73z" />
    <glyph glyph-name="e.ful" unicode="e" horiz-adv-x="444" 
d="M300 -17q-40 0 -77.5 17t-69 48t-55 73.5t-36.5 93t-13 106.5q0 34 8 64.5t23 55t36 42t47 27t56 9.5q57 0 92.5 -23t51.5 -60.5t16 -80.5q0 -34 -12.5 -70t-34.5 -70.5t-51 -66.5q-43 -48 -98 -85.5t-116.5 -58.5t-126.5 -21q-14 0 -21 11.5t-5.5 26t12.5 26t33 11.5
q46 0 94.5 18t92.5 48t75 65q22 25 37.5 51.5t23.5 53.5t8 52q0 53 -20 73.5t-54 20.5q-17 0 -31.5 -7.5t-25.5 -23t-17 -37.5t-6 -51q0 -57 16.5 -104.5t43.5 -81.5t57.5 -53t57.5 -19q19 0 37 7.5t37.5 22.5t39.5 37q14 16 27 15.5t27 -11.5t16.5 -23t-6.5 -26
q-25 -38 -58.5 -60.5t-67.5 -32t-63 -9.5z" />
    <glyph glyph-name="f.mrr" unicode="f" horiz-adv-x="438" 
d="M-57 -17q-19 0 -28 11.5t-9 26t9 26t28 11.5q23 0 46 8t45 23t43 36.5t41 48t38 57.5q25 42 47 105t40 142t33 170.5t25.5 192t15.5 207t5 213.5q0 19 13 28.5t30.5 9.5t30.5 -9.5t13 -28.5q0 -108 -6.5 -215t-19 -209.5t-30 -197.5t-39.5 -177.5t-47.5 -149.5
t-55.5 -114q-23 -37 -48 -70t-51.5 -59.5t-54.5 -45.5t-56.5 -29.5t-57.5 -10.5zM271 -957q-37 0 -65 13.5t-46 39.5t-27.5 65.5t-9.5 92.5v2004q0 95 38 147t111 52q44 0 75 -22.5t46.5 -66t15.5 -107.5q0 -19 -13 -28t-30.5 -9t-30.5 9t-13 28q0 39 -5.5 64.5t-17 38.5
t-27.5 13q-21 0 -35 -13t-21 -39.5t-7 -66.5v-1035q34 -52 62.5 -128t53 -166t43 -185.5t31.5 -187t19.5 -170t6.5 -135.5q0 -68 -18 -114.5t-52 -70t-84 -23.5zM272 -877q18 0 30.5 8t20.5 24t12 40t4 56q0 49 -4.5 113t-13 137.5t-20.5 150t-26.5 150.5t-31 138t-34.5 114
v-800q0 -67 15.5 -99t47.5 -32zM370 173q-24 -9 -55.5 -16.5t-67 -9.5t-72.5 4q-9 2 -13 13t-3.5 25.5t5 24.5t11.5 9q26 -5 53 -5.5t58 5t69 17.5q12 4 21.5 -3.5t13.5 -20.5t-0.5 -25t-19.5 -18z" />
    <glyph glyph-name="g.jmc" unicode="g" horiz-adv-x="623" 
d="M462 -88q16 17 32.5 33.5t32.5 31t30 26.5t26 20q14 11 26 6.5t19.5 -16.5t7 -26t-14.5 -24q-12 -9 -28 -23.5t-34.5 -32.5t-37 -37t-35.5 -36zM321 -957q-51 0 -88 23.5t-56.5 69t-19.5 112.5q0 54 9 113.5t27.5 123t48 127t69.5 124.5q14 23 31.5 47.5t37 47.5t38.5 42
v201q-23 -37 -50.5 -56.5t-55 -27t-54.5 -7.5q-57 0 -101 27.5t-69 83.5t-25 141q0 52 10 96t28.5 79t46 59t62.5 37t77 13q28 0 48 -2.5t39.5 -9.5t43.5 -23v5q0 13 10.5 19.5t32.5 6.5q21 0 32 -6.5t11 -19.5v-1212q0 -55 -12 -98.5t-35 -74t-57.5 -46t-78.5 -15.5z
M327 -882q22 0 39 11t29 31.5t17.5 50t5.5 66.5v484q-10 -12 -18.5 -24t-16 -23t-14.5 -21q-29 -48 -52 -102.5t-39 -112.5t-24 -116t-8 -113q0 -40 9.5 -70t28 -45.5t43.5 -15.5zM271 63q29 0 55.5 10t50 33t41.5 60v238q-31 19 -61 27.5t-61 8.5q-26 0 -48.5 -8t-40 -24
t-30 -40t-19 -56t-6.5 -73q0 -55 13 -94.5t39.5 -60.5t66.5 -21z" />
    <glyph glyph-name="h.lop" unicode="h" horiz-adv-x="676" 
d="M-66 -17q-19 0 -28 11.5t-9 26t9 26t28 11.5q27 0 49.5 11.5t44.5 38.5t46 73t54 114q7 17 18.5 18t19.5 -8.5t3 -25.5q-24 -79 -50 -135.5t-55 -92t-61.5 -52t-68.5 -16.5zM569 -17q-26 0 -45 7t-31 20t-17.5 32.5t-5.5 43.5v240q0 35 -10.5 60.5t-32.5 39t-59 13.5
q-26 0 -53 -9t-51.5 -30t-43.5 -55.5t-30 -85.5l-15 85q10 38 29 70t46 55.5t60 36.5t70 13q52 0 91.5 -19t62 -59.5t22.5 -106.5v-238q0 -13 4 -21.5t11.5 -12.5t16.5 -4t16.5 3t14.5 8.5t14 10.5q8 6 18 2t17 -12q8 -10 8.5 -20t-5.5 -19q-11 -15 -27.5 -26t-35.5 -16.5
t-39 -5.5zM165 -15q-22 0 -32 6.5t-10 19.5v1247q0 98 38 148.5t112 50.5q44 0 75 -22.5t46 -66t15 -107.5q0 -61 -4 -127.5t-11 -137t-19 -141.5t-28 -140.5t-36.5 -134.5t-45.5 -124t-56 -109v-336q0 -13 -11 -19.5t-33 -6.5zM209 497q15 45 28.5 102t26 121t23 133
t19 139t12.5 138.5t4 130.5q0 39 -5.5 64.5t-18 38.5t-30.5 13q-20 0 -33 -12.5t-19.5 -39t-6.5 -67.5v-761z" />
    <glyph glyph-name="i.mod" unicode="i" horiz-adv-x="300" 
d="M193 -17q-52 0 -75.5 27t-23.5 76v403q0 13 10.5 19.5t31.5 6.5q22 0 33 -6.5t11 -19.5v-393q0 -20 9 -29t22 -9q11 0 18.5 3.5t14 8.5t14.5 11q6 5 16.5 1t16.5 -12q8 -9 9 -19t-5 -18q-11 -16 -27.5 -27t-36 -17t-38.5 -6zM138 669q-28 0 -42.5 15.5t-14.5 46.5
q0 32 14.5 48t42.5 16q27 0 41 -16t14 -48q1 -31 -13.5 -46.5t-41.5 -15.5z" />
    <glyph glyph-name="j.jmc" unicode="j" horiz-adv-x="316" 
d="M155 -88q16 17 32.5 33.5t32.5 31t30 26.5t26 20q14 11 26 6.5t19.5 -16.5t7 -26t-14.5 -24q-12 -9 -28 -23.5t-34 -32.5l-37 -37l-36 -36zM20 -957q-50 0 -86 23.5t-56 69t-20 112.5q0 63 12.5 135t38.5 147t65.5 149t93.5 141q10 15 22 28.5t24 26.5v614
q0 13 10.5 19.5t31.5 6.5q22 0 33 -6.5t11 -19.5v-1216q0 -54 -12 -96.5t-35 -72.5t-56 -45.5t-77 -15.5zM26 -882q22 0 38 11t27.5 31t17 48t5.5 64v489q-7 -9 -14 -18.5t-14 -19.5q-32 -49 -58.5 -107t-44 -121t-27.5 -126t-10 -120q0 -41 9.5 -70.5t28 -45t42.5 -15.5z
M156 669q-28 0 -42 15.5t-14 46.5q0 32 14 48t42 16t41.5 -16t13.5 -48q0 -31 -13.5 -46.5t-41.5 -15.5z" />
    <glyph glyph-name="k.lop" unicode="k" horiz-adv-x="564" 
d="M-66 -17q-19 0 -28 11.5t-9 26t9 26t28 11.5q27 0 49.5 11.5t44.5 38.5t46 73t54 114q7 17 18.5 18t19.5 -8.5t3 -25.5q-24 -79 -50 -135.5t-55 -92t-61.5 -52t-68.5 -16.5zM165 -15q-22 0 -32 6.5t-10 19.5v1247q0 65 17 109.5t50.5 67t82.5 22.5q44 0 75 -22.5t46 -66
t15 -107.5q0 -71 -4.5 -148t-14 -158.5t-24 -163t-34.5 -159.5t-46 -149.5t-58 -132.5t-70 -108l-8 93q15 15 31 53.5t32.5 97t32.5 131t30 153t24.5 165.5t16 167.5t5.5 158.5q0 39 -5.5 64.5t-18 38.5t-30.5 13q-20 0 -33 -12.5t-19.5 -39t-6.5 -67.5v-1247
q0 -13 -11 -19.5t-33 -6.5zM470 -17q-30 0 -55 11t-52 38t-63 73.5t-87 117.5l-8 -2v53q44 3 81 13.5t64.5 26.5t42.5 37t15 45q0 23 -12 32.5t-30 9.5q-24 0 -53 -18.5t-59.5 -52t-57.5 -78.5l-1 71q22 42 51.5 78t64 58t70.5 22q59 0 86 -31.5t27 -75.5q0 -27 -8.5 -51.5
t-24.5 -45.5t-39 -37.5t-51 -28.5t-60 -18q33 -45 58.5 -77.5t45 -53t35.5 -30.5t29 -10q16 0 30 8t30 24q11 11 20 12t22 -7q17 -9 17.5 -22t-7.5 -24q-30 -42 -64 -54.5t-57 -12.5z" />
    <glyph glyph-name="l.lop" unicode="l" horiz-adv-x="394" 
d="M-57 -17q-19 0 -28 11.5t-9 26t9 26t28 11.5q33 0 64.5 20t62 57.5t58.5 91t53 121t47 147t39.5 168.5t29.5 186.5t18.5 201t6.5 210.5q0 18 13 27.5t30.5 9.5t30.5 -9.5t13 -27.5q0 -114 -8 -223.5t-22.5 -212.5t-35.5 -198t-47.5 -179.5t-57.5 -156t-65.5 -128.5
t-72 -97t-77 -61.5t-80.5 -21.5zM221 -17q-26 0 -45 7t-30.5 20t-17 32.5t-5.5 43.5v1172q0 98 38 148.5t112 50.5q44 0 75 -22.5t46 -66t15 -107.5q0 -19 -13 -28t-30.5 -9t-30.5 9t-13 28q0 39 -5.5 65t-18 38.5t-30.5 12.5q-20 0 -33 -12.5t-19.5 -39t-6.5 -67.5v-1162
q0 -13 4 -21.5t11 -12.5t16 -4t16.5 3t14.5 8.5t14 10.5q8 7 18 2.5t17 -12.5q8 -10 8.5 -20t-4.5 -19q-11 -15 -28 -26t-36 -16.5t-39 -5.5z" />
    <glyph glyph-name="m.cnt" unicode="m" horiz-adv-x="989" 
d="M161 -15q-21 0 -31.5 6.5t-10.5 19.5v358q0 42 -13 56.5t-36 14.5q-17 0 -28.5 -9t-18 -26t-8.5 -40q-1 -16 -9 -23.5t-26 -7.5q-16 0 -26 7t-9 33q2 43 17.5 74.5t43 49t64.5 17.5q28 0 49 -6.5t37 -18.5t26 -29.5t15 -38.5l1 -4q16 29 36 48t41.5 31t43.5 17t41 5
q51 0 91 -19t63.5 -59.5t23.5 -106.5v-323q0 -13 -11 -19.5t-33 -6.5t-32.5 6.5t-10.5 19.5v315q0 36 -10 61.5t-32.5 38.5t-60.5 13q-18 0 -37 -5.5t-38.5 -18.5t-36.5 -34t-31 -52v-318q0 -13 -11 -19.5t-33 -6.5zM881 -17q-26 0 -45 7t-30.5 20t-17 32.5t-5.5 43.5v240
q0 35 -10 60.5t-32.5 39t-59.5 13.5q-26 0 -52.5 -9t-50.5 -29.5t-42.5 -55.5t-29.5 -86h-26q0 57 15.5 104.5t44 82.5t67.5 54t86 19q51 0 90.5 -19t62.5 -59.5t23 -106.5v-238q0 -13 4 -21.5t11 -12.5t16 -4q12 0 19 3t13 8t14 11q7 5 17 2.5t18 -13.5q6 -7 8 -17.5
t-4 -18.5q-11 -16 -28 -27t-36.5 -17t-39.5 -6z" />
    <glyph glyph-name="n.cnt" unicode="n" horiz-adv-x="671" 
d="M161 -15q-21 0 -31.5 6.5t-10.5 19.5v358q0 42 -13 56.5t-36 14.5q-17 0 -28.5 -9t-18 -26t-8.5 -40q-1 -16 -9 -23.5t-26 -7.5q-16 0 -26 7t-9 33q2 43 17.5 74.5t43 49t64.5 17.5q26 0 46.5 -5.5t36.5 -17t27 -29t17 -41.5l2 -8q14 24 33 43t41.5 33t48 21.5t53.5 7.5
q52 0 91.5 -19t62 -59.5t22.5 -106.5v-238q0 -13 4 -21.5t11.5 -12.5t16.5 -4t16.5 3t14.5 8.5t14 10.5q8 6 18 2t17 -12q8 -10 8.5 -20t-5.5 -19q-11 -15 -27.5 -26t-35.5 -16.5t-39 -5.5q-26 0 -45 7t-31 20t-17.5 32.5t-5.5 43.5v240q0 35 -10.5 60.5t-32.5 39t-59 13.5
q-21 0 -43.5 -6t-43 -19.5t-39 -35.5t-32.5 -54v-313q0 -13 -11 -19.5t-33 -6.5z" />
    <glyph glyph-name="o.mlp" unicode="o" horiz-adv-x="589" 
d="M296 -19q-67 0 -120 35t-83 95.5t-30 138.5q0 53 16 97.5t48 77t81 51t115 18.5l-2 -44q-39 0 -70 -13.5t-53.5 -40t-34 -63t-11.5 -83.5q0 -58 17.5 -100.5t50 -65.5t76.5 -23q33 0 59.5 13t44.5 38t28 60t10 78q0 58 -17 100.5t-49 65.5t-76 23q-34 0 -53 -10.5
t-19 -30.5q0 -17 14.5 -29t37.5 -18t48 -6q34 0 69 9.5t77.5 34.5t97.5 70q13 11 25 8t19 -14t6.5 -24.5t-12.5 -23.5q-63 -53 -112.5 -80.5t-90.5 -37t-81 -9.5q-45 0 -86.5 13t-67.5 42.5t-26 76.5q0 32 22.5 56.5t58 38.5t73.5 14q67 0 119 -34.5t82 -95.5t30 -139
q0 -47 -11 -88t-32 -74t-49.5 -57t-63.5 -37t-75 -13z" />
    <glyph glyph-name="p.ful" unicode="p" horiz-adv-x="635" 
d="M142 -953q-21 0 -31.5 6.5t-10.5 19.5v1416q0 13 10.5 19.5t31.5 6.5q22 0 33 -6.5t11 -19.5v-65q19 29 45 50.5t58 33t67 11.5q52 0 91.5 -19t62 -59.5t22.5 -106.5q0 -24 -3 -47.5t-7.5 -46t-9 -44.5t-7.5 -43.5t-3 -42.5q0 -27 14.5 -39.5t34.5 -12.5q9 0 19 2.5
t20 7.5t19 12q8 7 18 2.5t17 -12.5q8 -10 8.5 -20t-5.5 -19q-11 -15 -28.5 -26t-38 -16.5t-40.5 -5.5q-55 0 -88 33.5t-33 88.5q0 20 2.5 42t7 44.5t8.5 45t6.5 45t2.5 44.5q0 53 -23.5 83t-78.5 30q-22 0 -44.5 -6t-43.5 -19t-38.5 -35t-31.5 -54v-1252q0 -13 -11 -19.5
t-33 -6.5z" />
    <glyph glyph-name="q.jmc" unicode="q" horiz-adv-x="647" 
d="M258 -17q-57 0 -101 27.5t-69 83.5t-25 141q0 52 9.5 96t28.5 79t46 59t62 37t77 13q33 0 67.5 -9t64.5 -26v5q0 13 11 19.5t32 6.5q22 0 32.5 -6.5t10.5 -19.5v-1416q0 -13 -10.5 -19.5t-32.5 -6.5q-21 0 -32 6.5t-11 19.5v995q-24 -34 -51.5 -52.5t-55 -25.5t-53.5 -7z
M151 239q0 -55 13 -94.5t39.5 -60.5t66.5 -21q29 0 55.5 10t50 33t42.5 60v238q-31 20 -61 28t-62 8q-26 0 -48 -8t-40 -24t-30.5 -40t-19 -56t-6.5 -73z" />
    <glyph glyph-name="r.ful" unicode="r" horiz-adv-x="568" 
d="M-55 -17q-19 0 -28.5 11.5t-10 26t8.5 26t28 11.5q31 0 57 24t47 71.5t37 117.5t26 162l60 -9q-9 -112 -27.5 -195t-46.5 -137.5t-65.5 -81.5t-85.5 -27zM460 -17q-26 0 -45 7t-31 20.5t-18 34t-6 46.5q0 28 2.5 64t5 74t5 72.5t2.5 59.5q0 39 -9.5 53.5t-35.5 14.5
q-28 0 -64 -10t-70 -19.5t-55 -9.5q-18 0 -34.5 19.5t-27.5 48t-11 55.5q0 18 6 32t17.5 22t29.5 8q33 0 44 -23t11 -54v-14t-1 -15q12 0 39 11t62.5 22t71.5 11q40 0 65 -15t36.5 -46.5t11.5 -82.5q0 -23 -2.5 -58.5t-5 -75t-5 -74.5t-2.5 -58q0 -26 7.5 -35.5t22.5 -9.5
q10 0 18 3t15.5 8.5t14.5 10.5q8 6 18 2t17 -12q8 -10 8.5 -20t-4.5 -19q-11 -15 -27.5 -26t-36 -16.5t-39.5 -5.5z" />
    <glyph glyph-name="s.jmc" unicode="s" horiz-adv-x="531" 
d="M244 -19q-40 0 -75 11t-62 27.5t-43 33.5q-7 8 -6.5 19.5t13.5 25.5q11 11 20 13t20 -6q37 -28 70.5 -41.5t64.5 -13.5q30 0 53 9.5t36.5 28.5t13.5 45q0 32 -19 49.5t-48.5 27t-62.5 19t-62.5 25t-48.5 43.5t-19 76q0 42 21.5 75t60 52t88.5 19q40 0 71.5 -8.5t55 -22
t38.5 -29.5q11 -11 9.5 -21.5t-12.5 -22.5q-11 -13 -21.5 -14.5t-23.5 7.5q-28 20 -56 31t-62 11q-36 0 -59.5 -17.5t-23.5 -49.5q0 -30 18.5 -46.5t48 -27t63 -20.5t63 -26t48 -43.5t18.5 -73.5q0 -43 -20.5 -81t-62.5 -61t-107 -23z" />
    <glyph glyph-name="t.mod" unicode="t" horiz-adv-x="388" 
d="M243 -17q-42 0 -69.5 15.5t-41 44t-13.5 68.5v309h-78q-15 0 -21 9t-6 31q0 23 6 31.5t21 8.5h78v204q0 13 10.5 19.5t31.5 6.5q22 0 33 -6.5t11 -19.5v-204h126q15 0 21.5 -8.5t6.5 -31.5q0 -22 -6.5 -31t-21.5 -9h-126v-299q0 -34 9.5 -48.5t34.5 -14.5q23 0 39.5 11
t34.5 27q12 11 22.5 7.5t19.5 -12.5q11 -10 11.5 -20.5t-5.5 -19.5q-17 -25 -38 -40t-44 -21.5t-46 -6.5z" />
    <glyph glyph-name="u.mod" unicode="u" horiz-adv-x="646" 
d="M269 -17q-58 0 -97 20.5t-58.5 61t-19.5 101.5v323q0 13 10.5 19.5t31.5 6.5q22 0 33 -6.5t11 -19.5v-323q0 -35 11 -59t33.5 -36t55.5 -12q28 0 52 9t43.5 24.5t34.5 37.5t25 47v312q0 13 10.5 19.5t32.5 6.5q21 0 32 -6.5t11 -19.5v-393q0 -14 4 -23t11.5 -13t16.5 -4
t16.5 3.5t15 9.5t14.5 11q8 6 17.5 3t17.5 -14q5 -7 7 -17t-5 -19q-10 -15 -26 -26.5t-35 -18.5t-39 -7q-24 0 -41.5 6.5t-29.5 18.5t-19 28t-9 35l-1 9q-14 -22 -31.5 -39.5t-38.5 -30t-45.5 -19t-51.5 -6.5z" />
    <glyph glyph-name="v.cnt" unicode="v" horiz-adv-x="604" 
d="M304 -19q-40 0 -73.5 13.5t-58.5 40t-39 66.5t-14 92v176q0 42 -13 56.5t-36 14.5q-17 0 -28.5 -9t-18 -26t-8.5 -40q-1 -16 -9 -23.5t-26 -7.5q-16 0 -26 7t-9 33q2 43 17.5 74.5t43 49t64.5 17.5q35 0 60.5 -10t42 -31t24.5 -52t8 -73v-138q0 -42 6.5 -71t20 -46
t34 -25t48.5 -8q21 0 40 7t35.5 21.5t28.5 37t19 52t7 67.5t-5.5 75t-17 72.5t-31.5 67.5q-10 18 -5.5 31t18.5 20t30 7q13 0 20.5 -6t14.5 -18q14 -23 28.5 -59.5t24.5 -82.5t10 -98q0 -42 -8.5 -82.5t-26.5 -75t-45 -60.5t-63.5 -41t-83.5 -15z" />
    <glyph glyph-name="w.cnt" unicode="w" horiz-adv-x="888" 
d="M273 -17q-36 0 -64.5 11.5t-48.5 34.5t-30.5 57t-10.5 80v203q0 42 -13 56.5t-36 14.5q-17 0 -28.5 -9t-18 -26t-8.5 -40q-1 -16 -9 -23.5t-26 -7.5q-16 0 -26 7t-9 33q2 43 17.5 74.5t43 49t64.5 17.5q35 0 60.5 -10t42 -31t24.5 -52t8 -73v-183q0 -35 8.5 -59t27 -36
t47.5 -12q20 0 42 7.5t41.5 26.5t31.5 52.5t12 84.5v259q0 12 10.5 19t32.5 7q23 0 33 -7t10 -19v-278q0 -46 4.5 -75t15 -45.5t27.5 -23t41 -6.5q20 0 39.5 6t37 19.5t31 35.5t21.5 52.5t8 71.5q0 38 -5.5 75t-17 72.5t-30.5 67.5q-11 18 -6 31t19 20t29 7q14 0 21 -6
t14 -18q15 -23 29.5 -59.5t24.5 -82.5t10 -98q0 -42 -10 -82.5t-29 -75t-47.5 -60.5t-65.5 -41t-83 -15q-33 0 -62 11t-50.5 33.5t-34.5 57.5q-17 -33 -42 -55t-55 -33.5t-62 -11.5z" />
    <glyph glyph-name="x.cnt" unicode="x" horiz-adv-x="640" 
d="M196 -17q-37 0 -78 22t-65 73q-7 16 -3.5 27t19.5 19t26.5 4.5t15.5 -13.5q10 -15 21 -28t26.5 -21t37.5 -8t40 14t32 41t25 67.5t18 93.5q-4 33 -9.5 59.5t-14 47.5t-19.5 35t-24.5 21t-30.5 7q-27 0 -45 -18.5t-27.5 -43.5t-12.5 -47q-2 -13 -9 -19.5t-29 -6.5
t-27.5 11t-4.5 20q5 43 24 84t53 68t83 27q39 0 68.5 -14.5t50 -40t32.5 -59.5q14 37 34.5 62t46.5 38.5t55 13.5q33 0 58 -13t42 -34.5t27 -47t13 -50.5q1 -10 -3.5 -20t-25.5 -15q-12 -3 -24 0.5t-16 23.5q-3 15 -10.5 34t-22 33t-38.5 14q-17 0 -32.5 -9.5t-29 -29.5
t-25.5 -53t-22 -81q3 -42 9.5 -76t16 -60t22.5 -43.5t29.5 -26.5t35.5 -9q21 0 35.5 8.5t25 22t18.5 28.5q5 10 16 13t27 -5q17 -9 21 -19t-4 -26q-16 -34 -40.5 -55t-51.5 -30.5t-52 -9.5q-44 0 -77 16.5t-54 46t-33 68.5q-12 -39 -33.5 -68.5t-49.5 -46t-61 -16.5z" />
    <glyph glyph-name="y.jmc" unicode="y" horiz-adv-x="640" 
d="M480 -88q16 17 32.5 33.5t32 31t30 26.5t26.5 20q13 11 25.5 6.5t20 -16.5t6.5 -26t-14 -24q-12 -9 -28 -23.5t-34.5 -32.5t-37.5 -37l-36 -36zM338 -957q-51 0 -88 23.5t-56.5 69t-19.5 112.5q0 60 11 128t35 139.5t60 142.5t86 137q17 20 33.5 40.5t35.5 39.5v202
q-13 -22 -30.5 -39.5t-38.5 -29.5t-45.5 -18.5t-51.5 -6.5q-58 0 -97 20.5t-58.5 61t-19.5 101.5v323q0 13 10.5 19.5t31.5 6.5q22 0 33 -6.5t11 -19.5v-323q0 -35 11 -59t33.5 -36t55.5 -12q28 0 52 9t43.5 24.5t34.5 37.5t25 47v312q0 13 10.5 19.5t32.5 6.5q21 0 32 -6.5
t11 -19.5v-1212q0 -55 -12 -98.5t-35 -74t-57.5 -46t-78.5 -15.5zM344 -882q22 0 39 11.5t29 31.5t17.5 49.5t5.5 66.5v483q-9 -8 -17 -17.5t-15 -20.5q-33 -48 -59 -106t-44 -120t-27.5 -125t-9.5 -122q0 -40 9.5 -70t27.5 -45.5t44 -15.5z" />
    <glyph glyph-name="z.cnt" unicode="z" horiz-adv-x="465" 
d="M215 -957q-49 0 -85.5 25t-56 70t-19.5 105q0 88 10.5 168t32 153.5t55.5 142t80 134t107 128.5l41 -66q-47 -52 -85 -108t-66.5 -117.5t-47 -129.5t-28 -141t-9.5 -153q0 -59 20.5 -91.5t58.5 -32.5q25 0 43.5 16t32 51t21.5 92t12 139.5t4 191.5q0 106 -2.5 186
t-11 136.5t-25.5 92t-45.5 52.5t-71.5 17h-14.5t-15.5 -1q-14 -1 -24.5 6.5t-14.5 19.5t2 25.5t26 23.5q38 19 72 38.5t60 41t40.5 46t14.5 52.5q0 35 -18.5 59.5t-66.5 24.5q-34 0 -64.5 -17t-56.5 -44q-12 -12 -22 -10.5t-27 14.5q-19 14 -18.5 28t8.5 24q17 21 45.5 40
t63.5 31.5t71 12.5q35 0 66.5 -8.5t56 -27t38.5 -49t14 -74.5q0 -28 -9.5 -54.5t-28.5 -50t-46.5 -44.5t-63.5 -38v-3q43 -13 72.5 -43.5t48.5 -91t27 -161t8 -254.5q0 -128 -7 -224.5t-22.5 -163.5t-40 -108.5t-59 -61t-80.5 -19.5zM359 -10q27 27 54.5 51.5t45.5 39.5
q14 10 27.5 7t22 -14t9 -25t-12.5 -25q-23 -21 -52.5 -49.5t-56.5 -55.5z" />
    <glyph glyph-name="braceleft" unicode="{" horiz-adv-x="532" 
d="M377 1513q15 0 21 -8.5t6 -31.5q0 -22 -6 -31t-21 -9q-47 0 -80.5 -16t-51.5 -45t-18 -70q0 -30 12.5 -64t31 -71t37 -76t31 -79.5t12.5 -81.5q0 -48 -19 -90.5t-54.5 -73.5t-84.5 -47q49 -16 84.5 -47.5t54.5 -73t19 -90.5q0 -34 -9 -68.5t-23 -68.5t-30 -66.5
t-30 -62.5t-23 -57t-9 -50q0 -61 40 -95.5t110 -34.5q15 0 21 -8.5t6 -31.5q0 -22 -6 -31t-21 -9q-73 0 -126.5 25t-82.5 71.5t-29 112.5q0 31 9 62t23 62.5t30.5 62t30.5 62t23 62.5t9 63q0 41 -15 74.5t-45.5 58t-76.5 38.5q-15 5 -21.5 11.5t-6.5 28.5q0 23 6.5 29.5
t21.5 10.5q46 11 76.5 35t45.5 58.5t15 77.5q0 38 -12.5 74.5t-31.5 73t-37.5 73.5t-31 75t-12.5 78q0 67 29 113t82.5 71t126.5 25z" />
    <glyph glyph-name="bar" unicode="|" horiz-adv-x="556" 
d="M278 -77q-43 0 -43 27v1538q0 28 43 28q44 0 44 -28v-1538q0 -27 -44 -27z" />
    <glyph glyph-name="braceright" unicode="}" horiz-adv-x="532" 
d="M155 -75q-15 0 -21 9t-6 31q0 23 6 31.5t21 8.5q46 0 80 16t52 45.5t18 69.5q0 30 -12.5 64t-31 71t-37 76t-31 79.5t-12.5 81.5q0 50 19 91.5t54.5 72.5t84.5 47q-49 16 -84.5 47.5t-54.5 73.5t-19 90q0 34 9 68.5t23 68.5t30 66.5t30 62.5t23 57.5t9 49.5
q0 61 -40 95.5t-110 34.5q-15 0 -21 9t-6 31q0 23 6 31.5t21 8.5q73 0 126 -25t82.5 -71t29.5 -113q0 -31 -9.5 -62t-23 -62.5t-30 -62t-30.5 -62t-23 -62.5t-9 -63q0 -40 15 -74t45.5 -58.5t76.5 -38.5q15 -4 21.5 -10.5t6.5 -29.5q0 -22 -6.5 -29t-21.5 -11
q-46 -11 -76.5 -35t-45.5 -58t-15 -78q0 -38 12.5 -74.5t31 -73t37.5 -73.5t31.5 -75t12.5 -78q0 -66 -29.5 -112.5t-82.5 -71.5t-126 -25z" />
    <glyph glyph-name="asciitilde" unicode="~" horiz-adv-x="763" 
d="M516 316q-41 0 -71 13t-54 35.5t-47 48.5q-29 32 -50.5 46t-45.5 14q-33 0 -60.5 -24.5t-27.5 -83.5q0 -37 -42 -37q-22 0 -32.5 8.5t-10.5 29.5q0 64 24 106t63.5 63t85.5 21q61 0 99.5 -27.5t72.5 -65.5q30 -34 51.5 -48.5t44.5 -14.5q33 0 60 25t27 83q0 37 42 37
q23 0 33 -8.5t10 -30.5q0 -63 -24 -105t-63 -63.5t-85 -21.5z" />
    <glyph glyph-name="nbspace" unicode="&#xa0;" horiz-adv-x="300" 
 />
    <glyph glyph-name="exclamdown" unicode="&#xa1;" horiz-adv-x="554" 
d="M278 -952q-44 0 -44 27v1182q0 14 11 21t33 7q44 0 44 -28v-1182q0 -13 -11 -20t-33 -7zM278 388q-28 0 -42 16.5t-14 47.5q0 32 14 47.5t42 15.5q27 0 41.5 -15.5t13.5 -47.5q-1 -31 -14.5 -47.5t-40.5 -16.5z" />
    <glyph glyph-name="cent" unicode="&#xa2;" horiz-adv-x="792" 
d="M423 -19q-105 0 -181.5 51t-117 146t-40.5 227q0 83 15 151.5t44 122.5t70.5 91t94.5 57t116 20q46 0 91 -15.5t86.5 -43.5t73.5 -69q8 -10 6 -20.5t-16 -23.5q-13 -12 -23 -12.5t-21 9.5q-31 32 -60.5 52.5t-62 31.5t-74.5 11q-47 0 -86.5 -16t-70 -46.5t-52 -75
t-32.5 -100.5t-11 -123q0 -107 30.5 -184.5t87 -119t133.5 -41.5q46 0 82 13t68.5 40.5t65.5 70.5q11 13 22.5 14t25.5 -10q14 -9 17.5 -21t-5.5 -25q-34 -55 -80 -91t-97 -53.5t-99 -17.5zM413 -150q-40 0 -40 28v1077q0 28 40 28t40 -28v-1077q0 -28 -40 -28z" />
    <glyph glyph-name="sterling" unicode="&#xa3;" horiz-adv-x="1009" 
d="M90 0q-17 0 -22.5 8.5t-5.5 31.5t7 31.5t21 8.5h208v497h-169q-17 0 -22.5 8t-5.5 32q0 23 7 31.5t21 8.5h169v435q0 112 38.5 193t110 124.5t171.5 43.5q88 0 164.5 -31t145.5 -93q9 -8 13.5 -22t-10.5 -32q-15 -17 -28 -17t-27 11q-70 54 -129.5 78.5t-128.5 24.5
q-108 0 -170 -74.5t-62 -206.5v-434h327q15 0 21.5 -8.5t6.5 -31.5q0 -24 -5.5 -32t-22.5 -8h-327v-497h555q14 0 21 -8.5t7 -31.5t-5.5 -31.5t-22.5 -8.5h-851z" />
    <glyph glyph-name="yen" unicode="&#xa5;" horiz-adv-x="1012" 
d="M501 -14q-44 0 -44 28v402h-299q-15 0 -21.5 8.5t-6.5 30.5q0 23 6.5 31t21.5 8h299v105h-299q-15 0 -21.5 8.5t-6.5 30.5q0 23 6.5 31t21.5 8h267l-391 721q-7 12 -1.5 23t26.5 22q19 11 31.5 11t22.5 -17l389 -724l400 724q10 17 21 17t30 -11q21 -11 26.5 -22
t-1.5 -23l-400 -721h270q15 0 21 -8t6 -31q0 -22 -6 -30.5t-21 -8.5h-303v-105h303q15 0 21 -8t6 -31q0 -22 -6 -30.5t-21 -8.5h-303v-402q0 -28 -44 -28z" />
    <glyph glyph-name="section" unicode="&#xa7;" horiz-adv-x="997" 
d="M484 -643q-61 0 -114 11t-100.5 33t-89.5 54.5t-80 73.5q-9 11 -7 21.5t16 24.5q15 16 25 16.5t26 -14.5q45 -44 95.5 -74t108 -45.5t120.5 -15.5q56 0 108.5 20t93 58.5t64.5 95t24 129.5q0 76 -28 129.5t-76.5 92t-108 68.5t-123 58.5t-123 61.5t-107.5 77.5t-76 108
t-28 151.5q0 75 23 138t65 116.5t96 94.5q-53 45 -87.5 109.5t-34.5 159.5q0 79 26 142.5t72.5 108.5t109.5 68.5t137 23.5q76 0 139.5 -21.5t116 -56.5t93.5 -76q14 -14 12.5 -26t-12.5 -25q-14 -15 -26 -16t-32 16q-39 36 -83.5 62.5t-95.5 42t-111 15.5
q-82 0 -138.5 -30.5t-86 -88.5t-29.5 -139q0 -72 27.5 -122t74.5 -86.5t105.5 -65t121 -56t121 -60.5t105.5 -77.5t74.5 -107t27.5 -150.5q0 -76 -23.5 -139.5t-65.5 -115.5t-96 -93q60 -49 98 -118.5t38 -173.5q0 -92 -31.5 -164.5t-86 -122.5t-123 -75.5t-141.5 -25.5z
M665 83q47 35 82.5 81t55.5 101.5t20 119.5q0 63 -21.5 110.5t-57.5 82.5t-83 62.5t-99.5 51.5t-106 48.5t-101.5 53.5q-49 -36 -84.5 -82.5t-54.5 -102t-19 -117.5t20.5 -109t56.5 -82t83 -62.5t99.5 -52t106 -49.5t103.5 -54z" />
    <glyph glyph-name="dieresis" unicode="&#xa8;" horiz-adv-x="645" 
d="M204 669q-28 0 -42 15.5t-14 46.5q0 32 14 48t42 16t41.5 -16t13.5 -48q2 -31 -12.5 -46.5t-42.5 -15.5zM443 669q-28 0 -42 15.5t-14 46.5q0 32 14 48t42 16q27 0 41 -16t14 -48q1 -31 -13.5 -46.5t-41.5 -15.5z" />
    <glyph glyph-name="copyright" unicode="&#xa9;" horiz-adv-x="1356" 
d="M678 114q-117 0 -216 43.5t-171.5 123.5t-113 188t-40.5 235q0 128 40.5 235.5t113 187t171.5 123t216 43.5q118 0 217 -43.5t171.5 -123t113 -187t40.5 -235.5q0 -127 -40.5 -235t-113 -188t-171.5 -123.5t-217 -43.5zM678 164q106 0 195 40t154.5 112.5t101.5 171.5
t36 216t-36 215.5t-101.5 171t-154.5 112.5t-195 40q-105 0 -193.5 -40t-154.5 -112.5t-102 -171t-36 -215.5t36 -216t102 -171.5t154.5 -112.5t193.5 -40zM683 373q-80 0 -138 40.5t-89 116t-31 178.5q0 96 33.5 171t92.5 118t135 43q53 0 99.5 -23t82.5 -69q8 -10 5 -18
t-15 -18q-10 -10 -19 -9.5t-18 9.5q-27 29 -61.5 43.5t-73.5 14.5q-53 0 -94.5 -33.5t-65 -93t-23.5 -135.5q0 -82 22.5 -141.5t64 -91t98.5 -31.5q41 0 77.5 21.5t67.5 64.5q8 10 18 10.5t21 -7.5q11 -7 13.5 -15t-2.5 -18q-27 -42 -58.5 -70.5t-66.5 -42.5t-75 -14z" />
    <glyph glyph-name="ordfeminine" unicode="&#xaa;" horiz-adv-x="480" 
d="M195 1049q-67 0 -108.5 47.5t-41.5 146.5q0 51 11.5 91.5t34 69.5t54 44t70.5 15q23 0 50 -8t49 -21v0q1 13 11 19t29 6t29 -5.5t10 -17.5v-297q0 -8 3 -12.5t7.5 -6.5t9.5 -2q10 0 14.5 3.5t15.5 10.5q4 3 13 1t15 -10q9 -8 9.5 -18.5t-4.5 -17.5q-8 -11 -21.5 -20
t-29 -13.5t-31.5 -4.5q-37 0 -55 16t-24 43q0 -1 -0.5 2t-0.5 4q-25 -35 -54.5 -50t-64.5 -15zM125 1246q0 -39 9 -66.5t27 -42t45 -14.5q21 0 40 6.5t36 20.5t32 36v183q-23 14 -45 18t-44 4t-40.5 -8.5t-31.5 -26.5t-20.5 -45t-7.5 -65z" />
    <glyph glyph-name="guillemetleft" unicode="&#xab;" horiz-adv-x="725" 
d="M330 -14q-15 0 -28 6t-26 22l-158 200q-14 17 -19 24.5t-5 12.5q0 6 5 13.5t19 24.5l158 199q13 16 26 21.5t28 5.5q18 0 29.5 -8.5t13.5 -20.5t-8 -25l-167 -210l167 -211q15 -19 3.5 -36.5t-38.5 -17.5zM580 -14q-15 0 -28 6t-26 22l-158 200q-14 17 -19 24.5t-5 12.5
q0 6 5 13.5t19 24.5l158 199q13 16 26 21.5t28 5.5q18 0 29.5 -8.5t13.5 -20.5t-8 -25l-167 -210l167 -211q15 -19 3.5 -36.5t-38.5 -17.5z" />
    <glyph glyph-name="logicalnot" unicode="&#xac;" horiz-adv-x="763" 
d="M633 155q-22 0 -32.5 6.5t-10.5 19.5v217h-477q-11 0 -18 10t-7 30q0 40 25 40h537q25 0 25 -40v-257q0 -13 -10.5 -19.5t-31.5 -6.5z" />
    <glyph glyph-name="registered" unicode="&#xae;" horiz-adv-x="683" 
d="M341 991q-58 0 -109 21.5t-90 60.5t-60.5 90t-21.5 109q0 59 21.5 109.5t60.5 89.5t90 60.5t109 21.5q59 0 110 -21.5t90 -60.5t60.5 -89.5t21.5 -109.5q0 -58 -21.5 -109t-60.5 -90t-90 -60.5t-110 -21.5zM341 1028q67 0 122.5 33t88.5 88.5t33 122.5t-33 122.5
t-88.5 88.5t-122.5 33q-66 0 -121.5 -33t-88.5 -88.5t-33 -122.5t33 -122.5t88.5 -88.5t121.5 -33zM266 1099q-17 0 -24.5 6t-7.5 16v312q0 21 39 21h60q62 0 97 -20t35 -72q0 -40 -27 -64.5t-70 -35.5q23 -31 47.5 -54.5t52.5 -45.5q13 -10 14.5 -20.5t-11.5 -24.5
q-23 -26 -47 -6q-34 28 -65.5 61.5t-58.5 74.5v-126q0 -10 -7.5 -16t-26.5 -6zM300 1307q44 0 71 12t27 37q0 17 -14.5 24.5t-33.5 7.5h-50v-81z" />
    <glyph glyph-name="macron" unicode="&#xaf;" horiz-adv-x="645" 
d="M189 686q-17 0 -22 12t-5 30q0 19 5 31t22 12h268q18 0 22.5 -12t4.5 -31q0 -18 -4.5 -30t-22.5 -12h-268z" />
    <glyph glyph-name="degree" unicode="&#xb0;" horiz-adv-x="609" 
d="M304 1011q-61 0 -109 29t-76 79.5t-28 115.5q0 63 28 112t76 77.5t109 28.5q63 0 110.5 -28.5t75 -77.5t27.5 -112q0 -65 -27.5 -115.5t-75 -79.5t-110.5 -29zM304 1084q59 0 96.5 39.5t37.5 111.5q0 70 -37.5 108.5t-96.5 38.5q-58 0 -96 -38.5t-38 -108.5
q0 -72 38 -111.5t96 -39.5z" />
    <glyph glyph-name="plusminus" unicode="&#xb1;" horiz-adv-x="763" 
d="M381 218q-21 0 -31.5 6.5t-10.5 19.5v460q0 13 10.5 19.5t31.5 6.5q22 0 32.5 -6.5t10.5 -19.5v-460q0 -13 -10.5 -19.5t-32.5 -6.5zM113 83q-11 0 -18 10t-7 30q0 40 25 40h537q11 0 18 -10t7 -30q0 -40 -25 -40h-537zM113 436q-11 0 -18 10t-7 30q0 40 25 40h537
q11 0 18 -10t7 -30q0 -40 -25 -40h-537z" />
    <glyph glyph-name="acute" unicode="&#xb4;" horiz-adv-x="645" 
d="M292 610q-11 0 -26 12t-15 22q0 3 1 6t5 10l107 164q5 8 10.5 11.5t13.5 3.5q10 0 23.5 -7.5t24 -18t10.5 -19.5q0 -7 -2.5 -11.5t-9.5 -12.5l-123 -147q-12 -13 -19 -13z" />
    <glyph glyph-name="paragraph" unicode="&#xb6;" horiz-adv-x="1199" 
d="M605 -390q-43 0 -43 28v905h-43q-139 0 -240 53.5t-155.5 153t-54.5 237.5q0 102 31 183.5t89.5 138.5t141.5 87.5t188 30.5h577q15 0 21.5 -8.5t6.5 -31.5q0 -22 -6.5 -31t-21.5 -9h-160v-1709q0 -28 -44 -28t-44 28v1709h-199v-1709q0 -28 -44 -28z" />
    <glyph glyph-name="periodcentered" unicode="&#xb7;" horiz-adv-x="313" 
d="M156 207q-28 0 -42 15.5t-14 46.5q0 32 14 48t42 16q27 0 41 -16t14 -48q1 -31 -13.5 -46.5t-41.5 -15.5z" />
    <glyph glyph-name="cedilla" unicode="&#xb8;" horiz-adv-x="645" 
d="M314 -269q-16 0 -48 5.5t-59 22.5q-11 7 -12.5 18.5t3.5 22.5q7 14 16 18t22 -2q11 -4 30 -10t41 -6q31 0 43.5 7.5t12.5 26.5q0 15 -15.5 26t-59.5 5q-11 -1 -17 1t-12 9q-5 7 -5.5 14t2.5 14l50 110h70l-59 -118l-30 16q45 17 80 11t55 -29t20 -59q0 -32 -14.5 -55
t-42.5 -35.5t-71 -12.5z" />
    <glyph glyph-name="ordmasculine" unicode="&#xba;" horiz-adv-x="454" 
d="M228 1048q-52 0 -93.5 27t-65.5 74.5t-24 106.5q0 44 13.5 82t38 66t58 43.5t73.5 15.5q52 0 92.5 -27t64.5 -74t24 -106q0 -45 -14 -82.5t-38.5 -66t-57.5 -44t-71 -15.5zM228 1122q23 0 41.5 9t31.5 26.5t20 42.5t7 56q0 62 -26.5 97.5t-73.5 35.5q-24 0 -42.5 -9
t-32 -26.5t-20.5 -42t-7 -55.5q0 -63 27.5 -98.5t74.5 -35.5z" />
    <glyph glyph-name="guillemetright" unicode="&#xbb;" horiz-adv-x="725" 
d="M145 -14q-18 0 -29.5 8.5t-13.5 21t8 24.5l167 211l-167 210q-15 19 -3.5 36.5t38.5 17.5q15 0 28.5 -5.5t25.5 -21.5l159 -199q14 -17 18.5 -24.5t4.5 -13.5q0 -5 -4.5 -12.5t-18.5 -24.5l-159 -200q-12 -16 -25.5 -22t-28.5 -6zM395 -14q-18 0 -29.5 8.5t-13.5 21
t8 24.5l167 211l-167 210q-15 19 -3.5 36.5t38.5 17.5q15 0 28.5 -5.5t25.5 -21.5l159 -199q14 -17 18.5 -24.5t4.5 -13.5q0 -5 -4.5 -12.5t-18.5 -24.5l-159 -200q-12 -16 -25.5 -22t-28.5 -6z" />
    <glyph glyph-name="questiondown" unicode="&#xbf;" horiz-adv-x="811" 
d="M472 285q22 0 33 -7t11 -21v-387q0 -12 -8.5 -19.5t-25.5 -7.5q-84 0 -154.5 -26.5t-123 -77t-81 -122t-28.5 -161.5q0 -101 35.5 -175t101.5 -113.5t159 -39.5q56 0 114.5 16t116 44.5t106.5 68.5q10 7 21.5 4.5t21.5 -13.5q14 -16 14.5 -27.5t-9.5 -20.5
q-53 -48 -117.5 -82t-132.5 -52t-135 -18q-120 0 -207 49t-134 140.5t-47 218.5q0 98 31.5 180t88.5 143.5t135 97.5t170 43v337q0 14 11 21t33 7zM472 515q28 0 42 -15.5t14 -47.5q0 -31 -14 -47.5t-42 -16.5q-27 0 -41 16.5t-14 47.5q0 32 14 47.5t41 15.5z" />
    <glyph glyph-name="Agrave" unicode="&#xc0;" horiz-adv-x="1121" 
d="M83 -14q-26 0 -35.5 12.5t-3.5 32.5l461 1382q8 23 20.5 31.5t35.5 8.5t35.5 -8.5t19.5 -31.5l461 -1382q7 -20 -3.5 -32.5t-36.5 -12.5q-22 0 -32 8.5t-17 28.5l-132 405h-591l-134 -405q-7 -20 -16.5 -28.5t-31.5 -8.5zM291 508h537l-267 811zM620 1502q-4 0 -8.5 2.5
t-10.5 6.5l-180 129q-10 8 -12.5 13t-2.5 12q0 12 8.5 24.5t21 21.5t21.5 9q8 0 12.5 -3t9.5 -8l170 -152q7 -6 8 -11t1 -9q0 -11 -11.5 -23t-26.5 -12z" />
    <glyph glyph-name="Aacute" unicode="&#xc1;" horiz-adv-x="1121" 
d="M83 -14q-26 0 -35.5 12.5t-3.5 32.5l461 1382q8 23 20.5 31.5t35.5 8.5t35.5 -8.5t19.5 -31.5l461 -1382q7 -20 -3.5 -32.5t-36.5 -12.5q-22 0 -32 8.5t-17 28.5l-132 405h-591l-134 -405q-7 -20 -16.5 -28.5t-31.5 -8.5zM291 508h537l-267 811zM502 1502q-15 0 -26.5 12
t-11.5 23q0 4 1.5 9t7.5 11l170 152q5 5 9.5 8t13.5 3t21.5 -9t21 -21.5t8.5 -24.5q0 -7 -2.5 -12t-12.5 -13l-181 -129q-6 -4 -10.5 -6.5t-8.5 -2.5z" />
    <glyph glyph-name="Acircumflex" unicode="&#xc2;" horiz-adv-x="1121" 
d="M83 -14q-26 0 -35.5 12.5t-3.5 32.5l461 1382q8 23 20.5 31.5t35.5 8.5t35.5 -8.5t19.5 -31.5l461 -1382q7 -20 -3.5 -32.5t-36.5 -12.5q-22 0 -32 8.5t-17 28.5l-132 405h-591l-134 -405q-7 -20 -16.5 -28.5t-31.5 -8.5zM291 508h537l-267 811zM391 1502q-10 0 -22.5 12
t-12.5 22v7t6 9l155 148q7 7 16 13.5t28 6.5t27.5 -6.5t15.5 -13.5l158 -148q5 -5 5.5 -9t0.5 -7q0 -10 -13 -22t-23 -12q-6 0 -11 3.5t-13 9.5l-147 105l-145 -105q-7 -6 -13 -9.5t-12 -3.5z" />
    <glyph glyph-name="Atilde" unicode="&#xc3;" horiz-adv-x="1121" 
d="M83 -14q-26 0 -35.5 12.5t-3.5 32.5l461 1382q8 23 20.5 31.5t35.5 8.5t35.5 -8.5t19.5 -31.5l461 -1382q7 -20 -3.5 -32.5t-36.5 -12.5q-22 0 -32 8.5t-17 28.5l-132 405h-591l-134 -405q-7 -20 -16.5 -28.5t-31.5 -8.5zM291 508h537l-267 811zM400 1536q-34 0 -34 27
q1 62 27 94.5t77 32.5q32 0 57 -11.5t45 -26t38 -26t35 -11.5q18 0 26.5 16t9.5 39q3 21 34 21q19 0 27.5 -6.5t8.5 -20.5q-1 -63 -27 -94.5t-78 -31.5q-31 0 -56.5 11.5t-46 26.5t-38.5 26.5t-34 11.5q-18 0 -25.5 -13t-9.5 -38q-1 -13 -10 -20t-26 -7z" />
    <glyph glyph-name="Adieresis" unicode="&#xc4;" horiz-adv-x="1121" 
d="M83 -14q-26 0 -35.5 12.5t-3.5 32.5l461 1382q8 23 20.5 31.5t35.5 8.5t35.5 -8.5t19.5 -31.5l461 -1382q7 -20 -3.5 -32.5t-36.5 -12.5q-22 0 -32 8.5t-17 28.5l-132 405h-591l-134 -405q-7 -20 -16.5 -28.5t-31.5 -8.5zM291 508h537l-267 811zM425 1545
q-27 0 -41.5 15.5t-14.5 46.5q0 33 14 48.5t43 15.5q27 0 41 -16t14 -47q1 -32 -13.5 -47.5t-42.5 -15.5zM698 1545q-28 0 -42 15.5t-14 46.5q0 33 14 48.5t42 15.5q27 0 41 -16t14 -47q1 -32 -13.5 -47.5t-41.5 -15.5z" />
    <glyph glyph-name="Aring" unicode="&#xc5;" horiz-adv-x="1121" 
d="M83 -14q-26 0 -35.5 12.5t-3.5 32.5l461 1382q8 23 20.5 31.5t35.5 8.5t35.5 -8.5t19.5 -31.5l461 -1382q7 -20 -3.5 -32.5t-36.5 -12.5q-22 0 -32 8.5t-17 28.5l-132 405h-591l-134 -405q-7 -20 -16.5 -28.5t-31.5 -8.5zM291 508h537l-267 811zM561 1496q-43 0 -74.5 16
t-49.5 43.5t-18 62.5q0 36 18 63.5t49.5 43t74.5 15.5q45 0 77 -15.5t49.5 -43t17.5 -62.5q0 -36 -17.5 -63.5t-49.5 -43.5t-77 -16zM561 1557q35 0 53 18t18 43q0 26 -18 43.5t-53 17.5q-34 0 -51.5 -17.5t-17.5 -43.5q0 -25 17.5 -43t51.5 -18z" />
    <glyph glyph-name="AE.cur" unicode="&#xc6;" horiz-adv-x="1922" 
d="M168 -17q-28 0 -53 6t-49 18q-13 8 -19.5 20.5t0.5 31.5q6 17 17.5 23t22.5 1q26 -10 43.5 -14.5t36.5 -4.5q30 0 59 13t60.5 47.5t69 97.5t84 162t105 241.5t133 336t167.5 445.5q8 23 25.5 33.5t46.5 10.5t45 -11.5t17 -36.5q7 -135 18.5 -273t27.5 -277.5t36.5 -277.5
t44.5 -274q5 -25 -2 -36.5t-29 -17.5q-23 -5 -34.5 4t-16.5 33q-8 42 -15 85.5t-15 85.5h-432q-52 -119 -95 -201.5t-80.5 -136t-72.5 -82.5t-70.5 -40.5t-75.5 -11.5zM595 533h386q-20 134 -36 267t-27 264t-18 259q-94 -256 -169 -451t-136 -339zM1435 -19
q-127 0 -222.5 49t-147.5 137t-52 207q0 68 21.5 130.5t60.5 114t91.5 87.5t115.5 50q-71 21 -122.5 69t-79.5 117t-28 149q0 63 18.5 118t52.5 100t82 77t106.5 49.5t124.5 17.5q67 0 129 -16.5t116.5 -49.5t98.5 -81q15 -13 18.5 -29t-14.5 -33q-18 -15 -30.5 -12
t-29.5 18q-41 38 -88.5 64t-98.5 40t-106 14q-62 0 -114.5 -20.5t-91 -57t-59.5 -87t-21 -110.5q0 -87 36 -154.5t99 -106t145 -38.5h177q15 0 21.5 -8.5t6.5 -31.5q0 -22 -6.5 -31t-21.5 -9h-177q-74 0 -136 -25t-107.5 -70t-70.5 -106t-25 -134q0 -95 41 -165t115.5 -109
t173.5 -39q65 0 126 21.5t116.5 63t103.5 102.5q13 17 26.5 19.5t28.5 -11.5q16 -13 18.5 -26.5t-14.5 -35.5q-54 -71 -118.5 -119.5t-137 -73.5t-150.5 -25z" />
    <glyph glyph-name="Ccedilla" unicode="&#xc7;" horiz-adv-x="1159" 
d="M680 -19q-125 0 -226 52.5t-173 149.5t-110.5 232.5t-38.5 302.5q0 111 18.5 208.5t53 179t84.5 145.5t112.5 109.5t137 69t158.5 23.5q66 0 134 -20t129 -60.5t106 -101.5q8 -12 4.5 -21t-16.5 -20q-13 -12 -23.5 -14t-19.5 8q-46 46 -96.5 78.5t-105 49t-112.5 16.5
q-68 0 -129 -20t-113.5 -58.5t-94.5 -95t-72 -129t-46 -159.5t-16 -188q0 -151 33 -271.5t93.5 -205.5t144 -130t184.5 -45q56 0 105 16.5t93 46t84.5 67.5t77.5 79q8 10 19.5 7.5t25.5 -13.5q13 -11 16 -20t-5 -20q-62 -82 -129 -137.5t-138.5 -83t-148.5 -27.5zM653 -283
q-21 0 -54 6.5t-60 22.5q-11 7 -12.5 18.5t3.5 22.5q7 14 16 18t22 -1q11 -5 31 -11.5t46 -6.5q32 0 47 8.5t15 32.5q0 20 -18 32t-62 6q-11 -1 -17.5 1t-11.5 9q-6 7 -6.5 14t2.5 14l45 110h66l-50 -118l-30 16q45 17 81.5 11t58 -31t21.5 -64q0 -35 -15.5 -60t-45 -37.5
t-72.5 -12.5z" />
    <glyph glyph-name="Egrave" unicode="&#xc8;" horiz-adv-x="990" 
d="M251 0q-22 0 -33 10t-11 30v1359q0 14 11 21t33 7h646q15 0 21.5 -8.5t6.5 -31.5q0 -22 -6.5 -31t-21.5 -9h-602v-553h508q15 0 21.5 -8.5t6.5 -31.5q0 -22 -6.5 -31t-21.5 -9h-508v-634h602q15 0 21.5 -8.5t6.5 -31.5q0 -22 -6.5 -31t-21.5 -9h-646zM637 1502
q-4 0 -8.5 2.5t-10.5 6.5l-180 129q-10 8 -12.5 13t-2.5 12q0 12 8.5 24.5t21 21.5t21.5 9q8 0 12.5 -3t9.5 -8l170 -152q7 -6 8 -11t1 -9q0 -11 -11.5 -23t-26.5 -12z" />
    <glyph glyph-name="Eacute" unicode="&#xc9;" horiz-adv-x="990" 
d="M251 0q-22 0 -33 10t-11 30v1359q0 14 11 21t33 7h646q15 0 21.5 -8.5t6.5 -31.5q0 -22 -6.5 -31t-21.5 -9h-602v-553h508q15 0 21.5 -8.5t6.5 -31.5q0 -22 -6.5 -31t-21.5 -9h-508v-634h602q15 0 21.5 -8.5t6.5 -31.5q0 -22 -6.5 -31t-21.5 -9h-646zM519 1502
q-15 0 -26.5 12t-11.5 23q0 4 1.5 9t7.5 11l170 152q5 5 9.5 8t13.5 3t21.5 -9t21 -21.5t8.5 -24.5q0 -7 -2.5 -12t-12.5 -13l-181 -129q-6 -4 -10.5 -6.5t-8.5 -2.5z" />
    <glyph glyph-name="Ecircumflex" unicode="&#xca;" horiz-adv-x="990" 
d="M251 0q-22 0 -33 10t-11 30v1359q0 14 11 21t33 7h646q15 0 21.5 -8.5t6.5 -31.5q0 -22 -6.5 -31t-21.5 -9h-602v-553h508q15 0 21.5 -8.5t6.5 -31.5q0 -22 -6.5 -31t-21.5 -9h-508v-634h602q15 0 21.5 -8.5t6.5 -31.5q0 -22 -6.5 -31t-21.5 -9h-646zM408 1502
q-10 0 -22.5 12t-12.5 22v7t6 9l155 148q7 7 16 13.5t28 6.5t27.5 -6.5t15.5 -13.5l158 -148q5 -5 5.5 -9t0.5 -7q0 -10 -13 -22t-23 -12q-6 0 -11 3.5t-13 9.5l-147 105l-145 -105q-7 -6 -13 -9.5t-12 -3.5z" />
    <glyph glyph-name="Edieresis" unicode="&#xcb;" horiz-adv-x="990" 
d="M251 0q-22 0 -33 10t-11 30v1359q0 14 11 21t33 7h646q15 0 21.5 -8.5t6.5 -31.5q0 -22 -6.5 -31t-21.5 -9h-602v-553h508q15 0 21.5 -8.5t6.5 -31.5q0 -22 -6.5 -31t-21.5 -9h-508v-634h602q15 0 21.5 -8.5t6.5 -31.5q0 -22 -6.5 -31t-21.5 -9h-646zM442 1545
q-27 0 -41.5 15.5t-14.5 46.5q0 33 14 48.5t43 15.5q27 0 41 -16t14 -47q1 -32 -13.5 -47.5t-42.5 -15.5zM715 1545q-28 0 -42 15.5t-14 46.5q0 33 14 48.5t42 15.5q27 0 41 -16t14 -47q1 -32 -13.5 -47.5t-41.5 -15.5z" />
    <glyph glyph-name="Igrave" unicode="&#xcc;" horiz-adv-x="505" 
d="M252 -14q-21 0 -32 7t-11 21v1412q0 14 11 20.5t32 6.5q22 0 33 -6.5t11 -20.5v-1412q0 -14 -11 -21t-33 -7zM311 1502q-4 0 -8.5 2.5t-10.5 6.5l-180 129q-10 8 -12.5 13t-2.5 12q0 12 8.5 24.5t21 21.5t21.5 9q8 0 12.5 -3t9.5 -8l170 -152q7 -6 8 -11t1 -9
q0 -11 -11.5 -23t-26.5 -12z" />
    <glyph glyph-name="Iacute" unicode="&#xcd;" horiz-adv-x="505" 
d="M252 -14q-21 0 -32 7t-11 21v1412q0 14 11 20.5t32 6.5q22 0 33 -6.5t11 -20.5v-1412q0 -14 -11 -21t-33 -7zM193 1502q-15 0 -26.5 12t-11.5 23q0 4 1.5 9t7.5 11l170 152q5 5 9.5 8t13.5 3t21.5 -9t21 -21.5t8.5 -24.5q0 -7 -2.5 -12t-12.5 -13l-181 -129
q-6 -4 -10.5 -6.5t-8.5 -2.5z" />
    <glyph glyph-name="Icircumflex" unicode="&#xce;" horiz-adv-x="505" 
d="M252 -14q-21 0 -32 7t-11 21v1412q0 14 11 20.5t32 6.5q22 0 33 -6.5t11 -20.5v-1412q0 -14 -11 -21t-33 -7zM82 1502q-10 0 -22.5 12t-12.5 22v7t6 9l155 148q7 7 16 13.5t28 6.5t27.5 -6.5t15.5 -13.5l158 -148q5 -5 5.5 -9t0.5 -7q0 -10 -13 -22t-23 -12q-6 0 -11 3.5
t-13 9.5l-147 105l-145 -105q-7 -6 -13 -9.5t-12 -3.5z" />
    <glyph glyph-name="Idieresis" unicode="&#xcf;" horiz-adv-x="505" 
d="M252 -14q-21 0 -32 7t-11 21v1412q0 14 11 20.5t32 6.5q22 0 33 -6.5t11 -20.5v-1412q0 -14 -11 -21t-33 -7zM116 1545q-27 0 -41.5 15.5t-14.5 46.5q0 33 14 48.5t43 15.5q27 0 41 -16t14 -47q1 -32 -13.5 -47.5t-42.5 -15.5zM389 1545q-28 0 -42 15.5t-14 46.5
q0 33 14 48.5t42 15.5q27 0 41 -16t14 -47q1 -32 -13.5 -47.5t-41.5 -15.5z" />
    <glyph glyph-name="Eth" unicode="&#xd0;" horiz-adv-x="1300" 
d="M251 0q-44 0 -44 28v1371q0 14 11 21t33 7h273q153 0 272 -43.5t202 -127t126 -202t43 -267.5q0 -148 -31.5 -271t-92 -219t-148.5 -162.5t-202.5 -100.5t-252.5 -34h-189zM295 85h144q120 0 219.5 30.5t175.5 89t128.5 144t80 195.5t27.5 243q0 129 -37 232t-107 175
t-171.5 110t-230.5 38h-229v-1257zM42 681q-18 0 -23 11t-5 24q0 14 5 26t23 12h501q17 0 22 -12t5 -26q0 -13 -5 -24t-22 -11h-501z" />
    <glyph glyph-name="Ntilde" unicode="&#xd1;" horiz-adv-x="1327" 
d="M251 -14q-44 0 -44 28v1412q0 14 11 20.5t33 6.5q18 0 30 -6.5t20 -20.5l731 -1243v1243q0 14 11 20.5t33 6.5q44 0 44 -27v-1412q0 -14 -11 -21t-32 -7q-16 0 -25 5t-20 23l-737 1251v-1251q0 -14 -11 -21t-33 -7zM503 1536q-34 0 -34 27q1 62 27 94.5t77 32.5
q32 0 57 -11.5t45 -26t38 -26t35 -11.5q18 0 26.5 16t9.5 39q3 21 34 21q19 0 27.5 -6.5t8.5 -20.5q-1 -63 -27 -94.5t-78 -31.5q-31 0 -56.5 11.5t-46 26.5t-38.5 26.5t-34 11.5q-18 0 -25.5 -13t-9.5 -38q-1 -13 -10 -20t-26 -7z" />
    <glyph glyph-name="Ograve" unicode="&#xd2;" horiz-adv-x="1384" 
d="M694 -19q-128 0 -231.5 52.5t-177 149.5t-113.5 232.5t-40 302.5q0 111 18 208.5t52.5 179t83.5 145.5t111.5 109.5t137 69t159.5 23.5q126 0 228.5 -52.5t176 -149.5t113 -232t39.5 -301q0 -111 -18 -209t-51.5 -180t-82.5 -146t-111 -109.5t-136 -69t-158 -23.5z
M694 66q70 0 131 21t113 60.5t93 96t69 129t43 159.5t15 186q0 147 -33 267t-94 205.5t-146.5 131.5t-190.5 46q-71 0 -133 -21t-114 -60.5t-93 -96t-70 -129t-44 -158.5t-15 -185q0 -148 33.5 -268t95.5 -206t147.5 -132t192.5 -46zM752 1502q-4 0 -8.5 2.5t-10.5 6.5
l-180 129q-10 8 -12.5 13t-2.5 12q0 12 8.5 24.5t21 21.5t21.5 9q8 0 12.5 -3t9.5 -8l170 -152q7 -6 8 -11t1 -9q0 -11 -11.5 -23t-26.5 -12z" />
    <glyph glyph-name="Oacute" unicode="&#xd3;" horiz-adv-x="1384" 
d="M694 -19q-128 0 -231.5 52.5t-177 149.5t-113.5 232.5t-40 302.5q0 111 18 208.5t52.5 179t83.5 145.5t111.5 109.5t137 69t159.5 23.5q126 0 228.5 -52.5t176 -149.5t113 -232t39.5 -301q0 -111 -18 -209t-51.5 -180t-82.5 -146t-111 -109.5t-136 -69t-158 -23.5z
M694 66q70 0 131 21t113 60.5t93 96t69 129t43 159.5t15 186q0 147 -33 267t-94 205.5t-146.5 131.5t-190.5 46q-71 0 -133 -21t-114 -60.5t-93 -96t-70 -129t-44 -158.5t-15 -185q0 -148 33.5 -268t95.5 -206t147.5 -132t192.5 -46zM634 1502q-15 0 -26.5 12t-11.5 23
q0 4 1.5 9t7.5 11l170 152q5 5 9.5 8t13.5 3t21.5 -9t21 -21.5t8.5 -24.5q0 -7 -2.5 -12t-12.5 -13l-181 -129q-6 -4 -10.5 -6.5t-8.5 -2.5z" />
    <glyph glyph-name="Ocircumflex" unicode="&#xd4;" horiz-adv-x="1384" 
d="M694 -19q-128 0 -231.5 52.5t-177 149.5t-113.5 232.5t-40 302.5q0 111 18 208.5t52.5 179t83.5 145.5t111.5 109.5t137 69t159.5 23.5q126 0 228.5 -52.5t176 -149.5t113 -232t39.5 -301q0 -111 -18 -209t-51.5 -180t-82.5 -146t-111 -109.5t-136 -69t-158 -23.5z
M694 66q70 0 131 21t113 60.5t93 96t69 129t43 159.5t15 186q0 147 -33 267t-94 205.5t-146.5 131.5t-190.5 46q-71 0 -133 -21t-114 -60.5t-93 -96t-70 -129t-44 -158.5t-15 -185q0 -148 33.5 -268t95.5 -206t147.5 -132t192.5 -46zM523 1502q-10 0 -22.5 12t-12.5 22v7
t6 9l155 148q7 7 16 13.5t28 6.5t27.5 -6.5t15.5 -13.5l158 -148q5 -5 5.5 -9t0.5 -7q0 -10 -13 -22t-23 -12q-6 0 -11 3.5t-13 9.5l-147 105l-145 -105q-7 -6 -13 -9.5t-12 -3.5z" />
    <glyph glyph-name="Otilde" unicode="&#xd5;" horiz-adv-x="1384" 
d="M694 -19q-128 0 -231.5 52.5t-177 149.5t-113.5 232.5t-40 302.5q0 111 18 208.5t52.5 179t83.5 145.5t111.5 109.5t137 69t159.5 23.5q126 0 228.5 -52.5t176 -149.5t113 -232t39.5 -301q0 -111 -18 -209t-51.5 -180t-82.5 -146t-111 -109.5t-136 -69t-158 -23.5z
M694 66q70 0 131 21t113 60.5t93 96t69 129t43 159.5t15 186q0 147 -33 267t-94 205.5t-146.5 131.5t-190.5 46q-71 0 -133 -21t-114 -60.5t-93 -96t-70 -129t-44 -158.5t-15 -185q0 -148 33.5 -268t95.5 -206t147.5 -132t192.5 -46zM532 1536q-34 0 -34 27q1 62 27 94.5
t77 32.5q32 0 57 -11.5t45 -26t38 -26t35 -11.5q18 0 26.5 16t9.5 39q3 21 34 21q19 0 27.5 -6.5t8.5 -20.5q-1 -63 -27 -94.5t-78 -31.5q-31 0 -56.5 11.5t-46 26.5t-38.5 26.5t-34 11.5q-18 0 -25.5 -13t-9.5 -38q-1 -13 -10 -20t-26 -7z" />
    <glyph glyph-name="Odieresis" unicode="&#xd6;" horiz-adv-x="1384" 
d="M694 -19q-128 0 -231.5 52.5t-177 149.5t-113.5 232.5t-40 302.5q0 111 18 208.5t52.5 179t83.5 145.5t111.5 109.5t137 69t159.5 23.5q126 0 228.5 -52.5t176 -149.5t113 -232t39.5 -301q0 -111 -18 -209t-51.5 -180t-82.5 -146t-111 -109.5t-136 -69t-158 -23.5z
M694 66q70 0 131 21t113 60.5t93 96t69 129t43 159.5t15 186q0 147 -33 267t-94 205.5t-146.5 131.5t-190.5 46q-71 0 -133 -21t-114 -60.5t-93 -96t-70 -129t-44 -158.5t-15 -185q0 -148 33.5 -268t95.5 -206t147.5 -132t192.5 -46zM557 1545q-27 0 -41.5 15.5t-14.5 46.5
q0 33 14 48.5t43 15.5q27 0 41 -16t14 -47q1 -32 -13.5 -47.5t-42.5 -15.5zM830 1545q-28 0 -42 15.5t-14 46.5q0 33 14 48.5t42 15.5q27 0 41 -16t14 -47q1 -32 -13.5 -47.5t-41.5 -15.5z" />
    <glyph glyph-name="multiply" unicode="&#xd7;" horiz-adv-x="763" 
d="M600 219q-10 -10 -25 -14.5t-27 8.5l-166 166l-166 -166q-12 -13 -26.5 -8t-25.5 15q-10 10 -14.5 24.5t8.5 26.5l166 166l-166 166q-13 12 -8.5 26.5t14.5 24.5q11 11 26 15.5t27 -8.5l166 -165l165 165q12 13 27 8.5t25 -15.5q11 -10 15 -24.5t-9 -26.5l-165 -165
l167 -165q12 -13 7.5 -28t-15.5 -26z" />
    <glyph glyph-name="Oslash" unicode="&#xd8;" horiz-adv-x="1384" 
d="M694 -19q-128 0 -231.5 52.5t-177 149.5t-113.5 232.5t-40 302.5q0 111 18 208.5t52.5 179t83.5 145.5t111.5 109.5t137 69t159.5 23.5q126 0 228.5 -52.5t176 -149.5t113 -232t39.5 -301q0 -111 -18 -209t-51.5 -180t-82.5 -146t-111 -109.5t-136 -69t-158 -23.5z
M694 66q70 0 131 21t113 60.5t93 96t69 129t43 159.5t15 186q0 147 -33 267t-94 205.5t-146.5 131.5t-190.5 46q-71 0 -133 -21t-114 -60.5t-93 -96t-70 -129t-44 -158.5t-15 -185q0 -148 33.5 -268t95.5 -206t147.5 -132t192.5 -46zM286 -56q-7 -11 -20 -17.5t-35 6.5
q-37 19 -19 48l883 1486q8 12 22 16t33 -6q15 -7 20 -21t-3 -29z" />
    <glyph glyph-name="Ugrave" unicode="&#xd9;" horiz-adv-x="1289" 
d="M647 -19q-109 0 -193.5 30t-141.5 89t-86 145.5t-29 199.5v981q0 14 11 20.5t33 6.5t33 -6.5t11 -20.5v-981q0 -123 40 -207.5t120.5 -128t202.5 -43.5q120 0 199.5 43.5t118.5 128t39 207.5v981q0 14 11 20.5t32 6.5q44 0 44 -27v-981q0 -150 -51 -254t-150 -157
t-244 -53zM704 1502q-4 0 -8.5 2.5t-10.5 6.5l-180 129q-10 8 -12.5 13t-2.5 12q0 12 8.5 24.5t21 21.5t21.5 9q8 0 12.5 -3t9.5 -8l170 -152q7 -6 8 -11t1 -9q0 -11 -11.5 -23t-26.5 -12z" />
    <glyph glyph-name="Uacute" unicode="&#xda;" horiz-adv-x="1289" 
d="M647 -19q-109 0 -193.5 30t-141.5 89t-86 145.5t-29 199.5v981q0 14 11 20.5t33 6.5t33 -6.5t11 -20.5v-981q0 -123 40 -207.5t120.5 -128t202.5 -43.5q120 0 199.5 43.5t118.5 128t39 207.5v981q0 14 11 20.5t32 6.5q44 0 44 -27v-981q0 -150 -51 -254t-150 -157
t-244 -53zM586 1502q-15 0 -26.5 12t-11.5 23q0 4 1.5 9t7.5 11l170 152q5 5 9.5 8t13.5 3t21.5 -9t21 -21.5t8.5 -24.5q0 -7 -2.5 -12t-12.5 -13l-181 -129q-6 -4 -10.5 -6.5t-8.5 -2.5z" />
    <glyph glyph-name="Ucircumflex" unicode="&#xdb;" horiz-adv-x="1289" 
d="M647 -19q-109 0 -193.5 30t-141.5 89t-86 145.5t-29 199.5v981q0 14 11 20.5t33 6.5t33 -6.5t11 -20.5v-981q0 -123 40 -207.5t120.5 -128t202.5 -43.5q120 0 199.5 43.5t118.5 128t39 207.5v981q0 14 11 20.5t32 6.5q44 0 44 -27v-981q0 -150 -51 -254t-150 -157
t-244 -53zM475 1502q-10 0 -22.5 12t-12.5 22v7t6 9l155 148q7 7 16 13.5t28 6.5t27.5 -6.5t15.5 -13.5l158 -148q5 -5 5.5 -9t0.5 -7q0 -10 -13 -22t-23 -12q-6 0 -11 3.5t-13 9.5l-147 105l-145 -105q-7 -6 -13 -9.5t-12 -3.5z" />
    <glyph glyph-name="Udieresis" unicode="&#xdc;" horiz-adv-x="1289" 
d="M647 -19q-109 0 -193.5 30t-141.5 89t-86 145.5t-29 199.5v981q0 14 11 20.5t33 6.5t33 -6.5t11 -20.5v-981q0 -123 40 -207.5t120.5 -128t202.5 -43.5q120 0 199.5 43.5t118.5 128t39 207.5v981q0 14 11 20.5t32 6.5q44 0 44 -27v-981q0 -150 -51 -254t-150 -157
t-244 -53zM509 1545q-27 0 -41.5 15.5t-14.5 46.5q0 33 14 48.5t43 15.5q27 0 41 -16t14 -47q1 -32 -13.5 -47.5t-42.5 -15.5zM782 1545q-28 0 -42 15.5t-14 46.5q0 33 14 48.5t42 15.5q27 0 41 -16t14 -47q1 -32 -13.5 -47.5t-41.5 -15.5z" />
    <glyph glyph-name="Yacute" unicode="&#xdd;" horiz-adv-x="962" 
d="M475 -14q-44 0 -44 28v604l-422 780q-7 12 -1.5 23t26.5 22q19 11 31.5 11t22.5 -17l389 -724l399 724q10 17 21.5 17t30.5 -11q20 -11 25.5 -22t-0.5 -23l-434 -780v-604q0 -28 -44 -28zM422 1502q-15 0 -26.5 12t-11.5 23q0 4 1.5 9t7.5 11l170 152q5 5 9.5 8t13.5 3
t21.5 -9t21 -21.5t8.5 -24.5q0 -7 -2.5 -12t-12.5 -13l-181 -129q-6 -4 -10.5 -6.5t-8.5 -2.5z" />
    <glyph glyph-name="Thorn" unicode="&#xde;" horiz-adv-x="1075" 
d="M251 -14q-22 0 -33 7t-11 21v1412q0 14 11 20.5t33 6.5t33 -6.5t11 -20.5v-235h243q145 0 243.5 -35.5t148.5 -114t50 -207.5q0 -109 -38 -190.5t-104 -137.5t-151 -89t-180 -46q-59 -8 -112 -12t-100 -6v-339q0 -14 -11 -21t-33 -7zM295 432q28 2 61.5 4t71.5 5.5
t77 8.5q108 15 194 60t136.5 124t50.5 198q0 101 -39 162t-116.5 89t-192.5 28h-243v-679z" />
    <glyph glyph-name="germandbls.jmc" unicode="&#xdf;" horiz-adv-x="700" 
d="M168 -953q-22 0 -32.5 6.5t-10.5 19.5v2053q0 101 32 174.5t92.5 113t145.5 39.5q74 0 127.5 -25.5t87.5 -74.5t50.5 -119.5t16.5 -161.5q0 -80 -7 -151t-21 -132t-34.5 -111.5t-47.5 -88.5t-61 -63.5t-75 -36.5q73 -12 118.5 -45t67 -82t21.5 -109q0 -63 -17 -113.5
t-50 -86t-79.5 -54t-105.5 -18.5q-42 0 -72 10.5t-49 22.5q-10 7 -12 18.5t5 26.5q8 18 18.5 22.5t23.5 -1.5q14 -5 34.5 -12t51.5 -7q38 0 68.5 13t52 38t32.5 60.5t11 80.5q0 56 -20.5 99t-66.5 67t-124 24h-10q-15 0 -21.5 9t-6.5 31q0 23 6.5 31.5t21.5 8.5h14
q39 0 72.5 17t61 50.5t49.5 81t36.5 109t22.5 135t8 157.5q0 96 -19.5 163t-63 102t-115.5 35q-58 0 -99 -30t-63 -85t-22 -132v-2053q0 -13 -11 -19.5t-32 -6.5z" />
    <glyph glyph-name="agrave" unicode="&#xe0;" horiz-adv-x="624" 
d="M258 -17q-57 0 -101 27.5t-69 83.5t-25 141q0 52 9.5 96t28.5 79t46 59t62 37t77 13q32 0 66 -10.5t64 -27.5v5q0 15 11 22t33 7t32.5 -6.5t10.5 -20.5v-392q0 -13 4 -21.5t11 -12.5t16 -4q10 0 16.5 2.5t13 7.5t15.5 12q7 6 16 3.5t18 -10.5q9 -10 10 -21t-4 -19
q-11 -16 -28 -27t-36.5 -17t-39.5 -6q-23 0 -40 5t-29 15.5t-18.5 25.5t-9.5 34q0 1 -1 4.5t-1 7.5q-23 -37 -49.5 -57t-54.5 -27.5t-54 -7.5zM151 239q0 -55 13 -94.5t39.5 -60.5t66.5 -21q29 0 55.5 10t49.5 33t41 60v242q-31 19 -60 25.5t-61 6.5q-26 0 -48 -8t-40 -24
t-30.5 -40t-19 -56t-6.5 -73zM336 610q-4 0 -8.5 3t-10.5 10l-123 147q-7 8 -9.5 12.5t-2.5 11.5q0 9 10.5 19.5t24 18t23.5 7.5q14 0 24 -15l107 -164q5 -7 5.5 -10t0.5 -6q0 -10 -15 -22t-26 -12z" />
    <glyph glyph-name="aacute" unicode="&#xe1;" horiz-adv-x="624" 
d="M258 -17q-57 0 -101 27.5t-69 83.5t-25 141q0 52 9.5 96t28.5 79t46 59t62 37t77 13q32 0 66 -10.5t64 -27.5v5q0 15 11 22t33 7t32.5 -6.5t10.5 -20.5v-392q0 -13 4 -21.5t11 -12.5t16 -4q10 0 16.5 2.5t13 7.5t15.5 12q7 6 16 3.5t18 -10.5q9 -10 10 -21t-4 -19
q-11 -16 -28 -27t-36.5 -17t-39.5 -6q-23 0 -40 5t-29 15.5t-18.5 25.5t-9.5 34q0 1 -1 4.5t-1 7.5q-23 -37 -49.5 -57t-54.5 -27.5t-54 -7.5zM151 239q0 -55 13 -94.5t39.5 -60.5t66.5 -21q29 0 55.5 10t49.5 33t41 60v242q-31 19 -60 25.5t-61 6.5q-26 0 -48 -8t-40 -24
t-30.5 -40t-19 -56t-6.5 -73zM275 610q-11 0 -26 12t-15 22q0 3 1 6t5 10l107 164q5 8 10.5 11.5t13.5 3.5q10 0 23.5 -7.5t24 -18t10.5 -19.5q0 -7 -2.5 -11.5t-9.5 -12.5l-123 -147q-12 -13 -19 -13z" />
    <glyph glyph-name="acircumflex" unicode="&#xe2;" horiz-adv-x="624" 
d="M258 -17q-57 0 -101 27.5t-69 83.5t-25 141q0 52 9.5 96t28.5 79t46 59t62 37t77 13q32 0 66 -10.5t64 -27.5v5q0 15 11 22t33 7t32.5 -6.5t10.5 -20.5v-392q0 -13 4 -21.5t11 -12.5t16 -4q10 0 16.5 2.5t13 7.5t15.5 12q7 6 16 3.5t18 -10.5q9 -10 10 -21t-4 -19
q-11 -16 -28 -27t-36.5 -17t-39.5 -6q-23 0 -40 5t-29 15.5t-18.5 25.5t-9.5 34q0 1 -1 4.5t-1 7.5q-23 -37 -49.5 -57t-54.5 -27.5t-54 -7.5zM151 239q0 -55 13 -94.5t39.5 -60.5t66.5 -21q29 0 55.5 10t49.5 33t41 60v242q-31 19 -60 25.5t-61 6.5q-26 0 -48 -8t-40 -24
t-30.5 -40t-19 -56t-6.5 -73zM164 610q-10 0 -22.5 12t-12.5 22q0 3 1 6t5 10l127 159q6 7 15.5 13.5t28.5 6.5t28 -6.5t15 -13.5l128 -159q5 -7 6 -10t1 -6q0 -10 -13 -22t-22 -12q-7 0 -13 3.5t-12 9.5l-118 116l-117 -116q-7 -6 -13 -9.5t-12 -3.5z" />
    <glyph glyph-name="atilde" unicode="&#xe3;" horiz-adv-x="624" 
d="M258 -17q-57 0 -101 27.5t-69 83.5t-25 141q0 52 9.5 96t28.5 79t46 59t62 37t77 13q32 0 66 -10.5t64 -27.5v5q0 15 11 22t33 7t32.5 -6.5t10.5 -20.5v-392q0 -13 4 -21.5t11 -12.5t16 -4q10 0 16.5 2.5t13 7.5t15.5 12q7 6 16 3.5t18 -10.5q9 -10 10 -21t-4 -19
q-11 -16 -28 -27t-36.5 -17t-39.5 -6q-23 0 -40 5t-29 15.5t-18.5 25.5t-9.5 34q0 1 -1 4.5t-1 7.5q-23 -37 -49.5 -57t-54.5 -27.5t-54 -7.5zM151 239q0 -55 13 -94.5t39.5 -60.5t66.5 -21q29 0 55.5 10t49.5 33t41 60v242q-31 19 -60 25.5t-61 6.5q-26 0 -48 -8t-40 -24
t-30.5 -40t-19 -56t-6.5 -73zM155 640q-34 0 -34 26q1 73 30 104t75 31q30 0 52.5 -11.5t40.5 -26t34 -26t32 -11.5q13 0 21.5 14.5t9.5 40.5q2 22 34 22q20 0 28 -7t8 -21q-1 -61 -25.5 -97.5t-81.5 -36.5q-29 0 -52 11.5t-41.5 27t-34 27t-30.5 11.5q-12 0 -20 -13
t-10 -39q-1 -13 -10 -19.5t-26 -6.5z" />
    <glyph glyph-name="adieresis" unicode="&#xe4;" horiz-adv-x="624" 
d="M258 -17q-57 0 -101 27.5t-69 83.5t-25 141q0 52 9.5 96t28.5 79t46 59t62 37t77 13q32 0 66 -10.5t64 -27.5v5q0 15 11 22t33 7t32.5 -6.5t10.5 -20.5v-392q0 -13 4 -21.5t11 -12.5t16 -4q10 0 16.5 2.5t13 7.5t15.5 12q7 6 16 3.5t18 -10.5q9 -10 10 -21t-4 -19
q-11 -16 -28 -27t-36.5 -17t-39.5 -6q-23 0 -40 5t-29 15.5t-18.5 25.5t-9.5 34q0 1 -1 4.5t-1 7.5q-23 -37 -49.5 -57t-54.5 -27.5t-54 -7.5zM151 239q0 -55 13 -94.5t39.5 -60.5t66.5 -21q29 0 55.5 10t49.5 33t41 60v242q-31 19 -60 25.5t-61 6.5q-26 0 -48 -8t-40 -24
t-30.5 -40t-19 -56t-6.5 -73zM187 669q-28 0 -42 15.5t-14 46.5q0 32 14 48t42 16t41.5 -16t13.5 -48q2 -31 -12.5 -46.5t-42.5 -15.5zM426 669q-28 0 -42 15.5t-14 46.5q0 32 14 48t42 16q27 0 41 -16t14 -48q1 -31 -13.5 -46.5t-41.5 -15.5z" />
    <glyph glyph-name="aring" unicode="&#xe5;" horiz-adv-x="624" 
d="M258 -17q-57 0 -101 27.5t-69 83.5t-25 141q0 52 9.5 96t28.5 79t46 59t62 37t77 13q32 0 66 -10.5t64 -27.5v5q0 15 11 22t33 7t32.5 -6.5t10.5 -20.5v-392q0 -13 4 -21.5t11 -12.5t16 -4q10 0 16.5 2.5t13 7.5t15.5 12q7 6 16 3.5t18 -10.5q9 -10 10 -21t-4 -19
q-11 -16 -28 -27t-36.5 -17t-39.5 -6q-23 0 -40 5t-29 15.5t-18.5 25.5t-9.5 34q0 1 -1 4.5t-1 7.5q-23 -37 -49.5 -57t-54.5 -27.5t-54 -7.5zM151 239q0 -55 13 -94.5t39.5 -60.5t66.5 -21q29 0 55.5 10t49.5 33t41 60v242q-31 19 -60 25.5t-61 6.5q-26 0 -48 -8t-40 -24
t-30.5 -40t-19 -56t-6.5 -73zM306 601q-61 0 -98.5 36t-37.5 94q0 39 17 68t48 45t71 16q61 0 98.5 -35t37.5 -94q0 -39 -17 -68t-47.5 -45.5t-71.5 -16.5zM306 661q21 0 35.5 9t22 24.5t7.5 36.5q0 32 -17 50.5t-48 18.5q-20 0 -35 -8.5t-22.5 -24t-7.5 -36.5
q0 -31 17 -50.5t48 -19.5z" />
    <glyph glyph-name="ae.ful" unicode="&#xe6;" horiz-adv-x="776" 
d="M239 -17q-55 0 -94.5 27t-60.5 78.5t-21 125.5q0 49 12 94t35.5 83.5t58 67t79.5 44.5t99 16q31 0 52.5 -2.5t45 -7.5t59.5 -14l-63 -71q-28 9 -51.5 12t-46.5 3q-43 0 -78 -16.5t-60.5 -46.5t-39 -70t-13.5 -88q0 -53 11 -87.5t32.5 -51t50.5 -16.5q30 0 56.5 15.5
t51 51t48.5 94.5l40 -85q-27 -55 -58 -89.5t-67 -50.5t-78 -16zM632 -17q-44 0 -82 17t-69 48t-53.5 73.5t-34.5 93t-12 106.5q0 34 8 64.5t23.5 55t38 42t50.5 27t62 9.5q46 0 79 -17t51 -48t18 -74q0 -46 -17 -83t-49 -64.5t-78 -45t-104 -23.5l-14 71q41 2 73 11.5
t54 26.5t34 41.5t12 56.5t-18 50.5t-50 18.5q-20 0 -36 -7.5t-27 -23t-17 -37.5t-6 -51q0 -57 15 -104.5t40 -81.5t56.5 -53t63.5 -19q18 0 36.5 7.5t38 22.5t39.5 37q15 16 27.5 15.5t26.5 -11.5t16.5 -23t-6.5 -26q-26 -38 -59 -60.5t-67 -32t-63 -9.5z" />
    <glyph glyph-name="ccedilla" unicode="&#xe7;" horiz-adv-x="505" 
d="M277 -19q-67 0 -119.5 30t-82.5 89t-30 145q0 60 17.5 110.5t49 87t74.5 56.5t95 20q44 0 90.5 -18.5t83.5 -62.5q11 -14 8.5 -25t-13.5 -23q-13 -13 -24.5 -16t-23.5 7q-27 23 -54 40.5t-71 17.5q-33 0 -60 -13t-45.5 -38t-28.5 -59.5t-10 -78.5q0 -58 17.5 -100.5
t50 -65.5t76.5 -23q32 0 54.5 9t41.5 25.5t40 39.5q11 11 23 10t26 -12t18 -21.5t-5 -23.5q-27 -39 -60.5 -62.5t-69 -34t-68.5 -10.5zM259 -269q-16 0 -48 5.5t-59 22.5q-11 7 -12.5 18.5t3.5 22.5q7 14 16 18t22 -2q11 -4 30 -10t41 -6q31 0 43.5 7.5t12.5 26.5
q0 15 -15.5 26t-59.5 5q-11 -1 -17 1t-12 9q-5 7 -5.5 14t2.5 14l50 110h70l-59 -118l-30 16q45 17 80 11t55 -29t20 -59q0 -32 -14.5 -55t-42.5 -35.5t-71 -12.5z" />
    <glyph glyph-name="egrave" unicode="&#xe8;" horiz-adv-x="526" 
d="M293 -19q-79 0 -130 34t-75.5 90t-24.5 123t18.5 120.5t52.5 91.5t80.5 58.5t101.5 20.5q49 0 85.5 -14.5t57 -44t20.5 -74.5q0 -38 -16.5 -69t-46.5 -54.5t-71 -39t-92 -23.5t-108 -9v70q33 0 67.5 4.5t66.5 13.5t57 23.5t39.5 33.5t14.5 43q0 32 -21.5 46t-57.5 14
q-33 0 -61.5 -13t-51 -38.5t-35 -61.5t-12.5 -82q0 -55 17.5 -96t49.5 -64t77 -23q30 0 51 7.5t39.5 23t40.5 37.5q15 15 27.5 15t26.5 -11t17 -23.5t-7 -25.5q-25 -38 -59 -60.5t-69.5 -32.5t-68.5 -10zM334 610q-4 0 -8.5 3t-10.5 10l-123 147q-7 8 -9.5 12.5t-2.5 11.5
q0 9 10.5 19.5t24 18t23.5 7.5q14 0 24 -15l107 -164q5 -7 5.5 -10t0.5 -6q0 -10 -15 -22t-26 -12z" />
    <glyph glyph-name="eacute" unicode="&#xe9;" horiz-adv-x="526" 
d="M293 -19q-79 0 -130 34t-75.5 90t-24.5 123t18.5 120.5t52.5 91.5t80.5 58.5t101.5 20.5q49 0 85.5 -14.5t57 -44t20.5 -74.5q0 -38 -16.5 -69t-46.5 -54.5t-71 -39t-92 -23.5t-108 -9v70q33 0 67.5 4.5t66.5 13.5t57 23.5t39.5 33.5t14.5 43q0 32 -21.5 46t-57.5 14
q-33 0 -61.5 -13t-51 -38.5t-35 -61.5t-12.5 -82q0 -55 17.5 -96t49.5 -64t77 -23q30 0 51 7.5t39.5 23t40.5 37.5q15 15 27.5 15t26.5 -11t17 -23.5t-7 -25.5q-25 -38 -59 -60.5t-69.5 -32.5t-68.5 -10zM273 610q-11 0 -26 12t-15 22q0 3 1 6t5 10l107 164q5 8 10.5 11.5
t13.5 3.5q10 0 23.5 -7.5t24 -18t10.5 -19.5q0 -7 -2.5 -11.5t-9.5 -12.5l-123 -147q-12 -13 -19 -13z" />
    <glyph glyph-name="ecircumflex" unicode="&#xea;" horiz-adv-x="526" 
d="M293 -19q-79 0 -130 34t-75.5 90t-24.5 123t18.5 120.5t52.5 91.5t80.5 58.5t101.5 20.5q49 0 85.5 -14.5t57 -44t20.5 -74.5q0 -38 -16.5 -69t-46.5 -54.5t-71 -39t-92 -23.5t-108 -9v70q33 0 67.5 4.5t66.5 13.5t57 23.5t39.5 33.5t14.5 43q0 32 -21.5 46t-57.5 14
q-33 0 -61.5 -13t-51 -38.5t-35 -61.5t-12.5 -82q0 -55 17.5 -96t49.5 -64t77 -23q30 0 51 7.5t39.5 23t40.5 37.5q15 15 27.5 15t26.5 -11t17 -23.5t-7 -25.5q-25 -38 -59 -60.5t-69.5 -32.5t-68.5 -10zM162 610q-10 0 -22.5 12t-12.5 22q0 3 1 6t5 10l127 159
q6 7 15.5 13.5t28.5 6.5t28 -6.5t15 -13.5l128 -159q5 -7 6 -10t1 -6q0 -10 -13 -22t-22 -12q-7 0 -13 3.5t-12 9.5l-118 116l-117 -116q-7 -6 -13 -9.5t-12 -3.5z" />
    <glyph glyph-name="edieresis" unicode="&#xeb;" horiz-adv-x="526" 
d="M293 -19q-79 0 -130 34t-75.5 90t-24.5 123t18.5 120.5t52.5 91.5t80.5 58.5t101.5 20.5q49 0 85.5 -14.5t57 -44t20.5 -74.5q0 -38 -16.5 -69t-46.5 -54.5t-71 -39t-92 -23.5t-108 -9v70q33 0 67.5 4.5t66.5 13.5t57 23.5t39.5 33.5t14.5 43q0 32 -21.5 46t-57.5 14
q-33 0 -61.5 -13t-51 -38.5t-35 -61.5t-12.5 -82q0 -55 17.5 -96t49.5 -64t77 -23q30 0 51 7.5t39.5 23t40.5 37.5q15 15 27.5 15t26.5 -11t17 -23.5t-7 -25.5q-25 -38 -59 -60.5t-69.5 -32.5t-68.5 -10zM185 669q-28 0 -42 15.5t-14 46.5q0 32 14 48t42 16t41.5 -16
t13.5 -48q2 -31 -12.5 -46.5t-42.5 -15.5zM424 669q-28 0 -42 15.5t-14 46.5q0 32 14 48t42 16q27 0 41 -16t14 -48q1 -31 -13.5 -46.5t-41.5 -15.5z" />
    <glyph glyph-name="igrave" unicode="&#xec;" horiz-adv-x="304" 
d="M193 -17q-26 0 -45 7t-31 20t-17.5 32.5t-5.5 43.5v403q0 13 10.5 19.5t31.5 6.5q22 0 33 -6.5t11 -19.5v-393q0 -13 4 -21.5t11 -12.5t16 -4q11 0 19 4t15 10t15 12q7 5 15.5 -0.5t17.5 -15.5q5 -7 7 -16t-4 -17q-11 -15 -28 -27t-36.5 -18.5t-38.5 -6.5zM160 610
q-4 0 -8.5 3t-10.5 10l-123 147q-7 8 -9.5 12.5t-2.5 11.5q0 9 10.5 19.5t24 18t23.5 7.5q14 0 24 -15l107 -164q5 -7 5.5 -10t0.5 -6q0 -10 -15 -22t-26 -12z" />
    <glyph glyph-name="iacute" unicode="&#xed;" horiz-adv-x="304" 
d="M193 -17q-26 0 -45 7t-31 20t-17.5 32.5t-5.5 43.5v403q0 13 10.5 19.5t31.5 6.5q22 0 33 -6.5t11 -19.5v-393q0 -13 4 -21.5t11 -12.5t16 -4q11 0 19 4t15 10t15 12q7 5 15.5 -0.5t17.5 -15.5q5 -7 7 -16t-4 -17q-11 -15 -28 -27t-36.5 -18.5t-38.5 -6.5zM99 610
q-11 0 -26 12t-15 22q0 3 1 6t5 10l107 164q5 8 10.5 11.5t13.5 3.5q10 0 23.5 -7.5t24 -18t10.5 -19.5q0 -7 -2.5 -11.5t-9.5 -12.5l-123 -147q-12 -13 -19 -13z" />
    <glyph glyph-name="icircumflex" unicode="&#xee;" horiz-adv-x="304" 
d="M193 -17q-26 0 -45 7t-31 20t-17.5 32.5t-5.5 43.5v403q0 13 10.5 19.5t31.5 6.5q22 0 33 -6.5t11 -19.5v-393q0 -13 4 -21.5t11 -12.5t16 -4q11 0 19 4t15 10t15 12q7 5 15.5 -0.5t17.5 -15.5q5 -7 7 -16t-4 -17q-11 -15 -28 -27t-36.5 -18.5t-38.5 -6.5zM-12 610
q-10 0 -22.5 12t-12.5 22q0 3 1 6t5 10l127 159q6 7 15.5 13.5t28.5 6.5t28 -6.5t15 -13.5l128 -159q5 -7 6 -10t1 -6q0 -10 -13 -22t-22 -12q-7 0 -13 3.5t-12 9.5l-118 116l-117 -116q-7 -6 -13 -9.5t-12 -3.5z" />
    <glyph glyph-name="idieresis" unicode="&#xef;" horiz-adv-x="304" 
d="M193 -17q-26 0 -45 7t-31 20t-17.5 32.5t-5.5 43.5v403q0 13 10.5 19.5t31.5 6.5q22 0 33 -6.5t11 -19.5v-393q0 -13 4 -21.5t11 -12.5t16 -4q11 0 19 4t15 10t15 12q7 5 15.5 -0.5t17.5 -15.5q5 -7 7 -16t-4 -17q-11 -15 -28 -27t-36.5 -18.5t-38.5 -6.5zM11 669
q-28 0 -42 15.5t-14 46.5q0 32 14 48t42 16t41.5 -16t13.5 -48q2 -31 -12.5 -46.5t-42.5 -15.5zM250 669q-28 0 -42 15.5t-14 46.5q0 32 14 48t42 16q27 0 41 -16t14 -48q1 -31 -13.5 -46.5t-41.5 -15.5z" />
    <glyph glyph-name="eth.mod" unicode="&#xf0;" horiz-adv-x="603" 
d="M294 -19q-72 0 -120.5 34t-73.5 94.5t-25 140.5q0 59 17 108.5t47.5 85.5t72.5 55.5t92 19.5q40 0 75.5 -14t66.5 -42q-6 155 -26 295.5t-52.5 259.5t-76 212.5t-97.5 154.5q-10 11 -9 25t15 27q28 25 49 1q54 -60 99 -144t80.5 -188.5t60 -226t37.5 -257t13 -281.5
q0 -94 -19.5 -162t-53.5 -112t-78 -65t-94 -21zM294 61q31 0 59 15t50 48t34.5 86.5t12.5 130.5v15v15q-31 33 -67 50.5t-79 17.5q-33 0 -59 -14t-44 -39.5t-27.5 -60t-9.5 -75.5q0 -55 15 -98t44 -67t71 -24zM226 1068q-12 -7 -22.5 -2.5t-18.5 20.5q-7 14 -4.5 24t15.5 16
l287 156q27 14 41 -18q8 -14 5 -24t-14 -15z" />
    <glyph glyph-name="ntilde" unicode="&#xf1;" horiz-adv-x="646" 
d="M539 -17q-26 0 -45 7t-31 20t-17.5 32.5t-5.5 43.5v240q0 35 -10.5 60.5t-32.5 39t-59 13.5q-22 0 -44 -6t-43 -19t-39 -35t-32 -54v-314q0 -13 -11 -19.5t-33 -6.5q-21 0 -31.5 6.5t-10.5 19.5v478q0 13 10.5 19.5t31.5 6.5q22 0 33 -6.5t11 -19.5v-65q15 21 33 38.5
t40 30t46 19.5t51 7q52 0 91.5 -19t62 -59.5t22.5 -106.5v-238q0 -13 4 -21.5t11.5 -12.5t16.5 -4t16.5 3t14.5 8.5t14 10.5q8 6 18 2t17 -12q8 -10 8.5 -20t-5.5 -19q-11 -15 -27.5 -26t-35.5 -16.5t-39 -5.5zM162 640q-34 0 -34 26q1 73 30 104t75 31q30 0 52.5 -11.5
t40.5 -26t34 -26t32 -11.5q13 0 21.5 14.5t9.5 40.5q2 22 34 22q20 0 28 -7t8 -21q-1 -61 -25.5 -97.5t-81.5 -36.5q-29 0 -52 11.5t-41.5 27t-34 27t-30.5 11.5q-12 0 -20 -13t-10 -39q-1 -13 -10 -19.5t-26 -6.5z" />
    <glyph glyph-name="ograve" unicode="&#xf2;" horiz-adv-x="589" 
d="M295 -19q-67 0 -119.5 35t-82.5 95.5t-30 138.5q0 59 17 108t48.5 85t73.5 56t93 20q67 0 119 -34.5t82 -95.5t30 -139q0 -47 -11 -88t-31.5 -74t-49 -57t-64 -37t-75.5 -13zM295 61q33 0 59.5 13t45 38t28.5 60t10 78q0 58 -17 100.5t-49 65.5t-77 23q-33 0 -60 -13
t-45.5 -38t-28.5 -59.5t-10 -78.5q0 -58 17.5 -100.5t49.5 -65.5t77 -23zM325 610q-4 0 -8.5 3t-10.5 10l-123 147q-7 8 -9.5 12.5t-2.5 11.5q0 9 10.5 19.5t24 18t23.5 7.5q14 0 24 -15l107 -164q5 -7 5.5 -10t0.5 -6q0 -10 -15 -22t-26 -12z" />
    <glyph glyph-name="oacute" unicode="&#xf3;" horiz-adv-x="589" 
d="M295 -19q-67 0 -119.5 35t-82.5 95.5t-30 138.5q0 59 17 108t48.5 85t73.5 56t93 20q67 0 119 -34.5t82 -95.5t30 -139q0 -47 -11 -88t-31.5 -74t-49 -57t-64 -37t-75.5 -13zM295 61q33 0 59.5 13t45 38t28.5 60t10 78q0 58 -17 100.5t-49 65.5t-77 23q-33 0 -60 -13
t-45.5 -38t-28.5 -59.5t-10 -78.5q0 -58 17.5 -100.5t49.5 -65.5t77 -23zM264 610q-11 0 -26 12t-15 22q0 3 1 6t5 10l107 164q5 8 10.5 11.5t13.5 3.5q10 0 23.5 -7.5t24 -18t10.5 -19.5q0 -7 -2.5 -11.5t-9.5 -12.5l-123 -147q-12 -13 -19 -13z" />
    <glyph glyph-name="ocircumflex" unicode="&#xf4;" horiz-adv-x="589" 
d="M295 -19q-67 0 -119.5 35t-82.5 95.5t-30 138.5q0 59 17 108t48.5 85t73.5 56t93 20q67 0 119 -34.5t82 -95.5t30 -139q0 -47 -11 -88t-31.5 -74t-49 -57t-64 -37t-75.5 -13zM295 61q33 0 59.5 13t45 38t28.5 60t10 78q0 58 -17 100.5t-49 65.5t-77 23q-33 0 -60 -13
t-45.5 -38t-28.5 -59.5t-10 -78.5q0 -58 17.5 -100.5t49.5 -65.5t77 -23zM153 610q-10 0 -22.5 12t-12.5 22q0 3 1 6t5 10l127 159q6 7 15.5 13.5t28.5 6.5t28 -6.5t15 -13.5l128 -159q5 -7 6 -10t1 -6q0 -10 -13 -22t-22 -12q-7 0 -13 3.5t-12 9.5l-118 116l-117 -116
q-7 -6 -13 -9.5t-12 -3.5z" />
    <glyph glyph-name="otilde" unicode="&#xf5;" horiz-adv-x="589" 
d="M295 -19q-67 0 -119.5 35t-82.5 95.5t-30 138.5q0 59 17 108t48.5 85t73.5 56t93 20q67 0 119 -34.5t82 -95.5t30 -139q0 -47 -11 -88t-31.5 -74t-49 -57t-64 -37t-75.5 -13zM295 61q33 0 59.5 13t45 38t28.5 60t10 78q0 58 -17 100.5t-49 65.5t-77 23q-33 0 -60 -13
t-45.5 -38t-28.5 -59.5t-10 -78.5q0 -58 17.5 -100.5t49.5 -65.5t77 -23zM144 640q-34 0 -34 26q1 73 30 104t75 31q30 0 52.5 -11.5t40.5 -26t34 -26t32 -11.5q13 0 21.5 14.5t9.5 40.5q2 22 34 22q20 0 28 -7t8 -21q-1 -61 -25.5 -97.5t-81.5 -36.5q-29 0 -52 11.5
t-41.5 27t-34 27t-30.5 11.5q-12 0 -20 -13t-10 -39q-1 -13 -10 -19.5t-26 -6.5z" />
    <glyph glyph-name="odieresis" unicode="&#xf6;" horiz-adv-x="589" 
d="M295 -19q-67 0 -119.5 35t-82.5 95.5t-30 138.5q0 59 17 108t48.5 85t73.5 56t93 20q67 0 119 -34.5t82 -95.5t30 -139q0 -47 -11 -88t-31.5 -74t-49 -57t-64 -37t-75.5 -13zM295 61q33 0 59.5 13t45 38t28.5 60t10 78q0 58 -17 100.5t-49 65.5t-77 23q-33 0 -60 -13
t-45.5 -38t-28.5 -59.5t-10 -78.5q0 -58 17.5 -100.5t49.5 -65.5t77 -23zM176 669q-28 0 -42 15.5t-14 46.5q0 32 14 48t42 16t41.5 -16t13.5 -48q2 -31 -12.5 -46.5t-42.5 -15.5zM415 669q-28 0 -42 15.5t-14 46.5q0 32 14 48t42 16q27 0 41 -16t14 -48q1 -31 -13.5 -46.5
t-41.5 -15.5z" />
    <glyph glyph-name="divide" unicode="&#xf7;" horiz-adv-x="763" 
d="M113 398q-11 0 -18 10t-7 30q0 40 25 40h537q11 0 18 -10t7 -30q0 -40 -25 -40h-537zM381 172q-31 0 -46.5 16.5t-15.5 48.5q0 33 15.5 49t46.5 16q32 0 47.5 -16t15.5 -49q0 -32 -15.5 -48.5t-47.5 -16.5zM381 572q-31 0 -46.5 16.5t-15.5 48.5q0 33 15.5 49t46.5 16
q32 0 47.5 -16t15.5 -49q0 -32 -15.5 -48.5t-47.5 -16.5z" />
    <glyph glyph-name="oslash" unicode="&#xf8;" horiz-adv-x="589" 
d="M295 -19q-67 0 -119.5 35t-82.5 95.5t-30 138.5q0 59 17 108t48.5 85t73.5 56t93 20q67 0 119 -34.5t82 -95.5t30 -139q0 -47 -11 -88t-31.5 -74t-49 -57t-64 -37t-75.5 -13zM295 61q33 0 59.5 13t45 38t28.5 60t10 78q0 58 -17 100.5t-49 65.5t-77 23q-33 0 -60 -13
t-45.5 -38t-28.5 -59.5t-10 -78.5q0 -58 17.5 -100.5t49.5 -65.5t77 -23zM159 -65q-7 -11 -20.5 -12t-25.5 5q-13 7 -17 18t3 25l330 581q5 10 18 12.5t27 -6.5q12 -7 17.5 -17.5t-0.5 -20.5z" />
    <glyph glyph-name="ugrave" unicode="&#xf9;" horiz-adv-x="645" 
d="M269 -17q-58 0 -97 20.5t-58.5 61t-19.5 101.5v323q0 13 10.5 19.5t31.5 6.5q22 0 33 -6.5t11 -19.5v-323q0 -35 11 -59t33.5 -36t55.5 -12q28 0 52 9t43.5 24.5t34.5 37.5t25 47v312q0 13 10.5 19.5t32.5 6.5q21 0 32 -6.5t11 -19.5v-393q0 -14 4 -23t11.5 -13t16.5 -4
t16.5 3.5t15 9.5t14.5 11q8 6 17.5 3t17.5 -14q5 -7 7 -17t-5 -19q-10 -15 -26 -26.5t-35 -18.5t-39 -7q-24 0 -41.5 6.5t-29.5 18.5t-19 28t-9 35l-1 9q-14 -22 -31.5 -39.5t-38.5 -30t-45.5 -19t-51.5 -6.5zM333 610q-4 0 -8.5 3t-10.5 10l-123 147q-7 8 -9.5 12.5
t-2.5 11.5q0 9 10.5 19.5t24 18t23.5 7.5q14 0 24 -15l107 -164q5 -7 5.5 -10t0.5 -6q0 -10 -15 -22t-26 -12z" />
    <glyph glyph-name="uacute" unicode="&#xfa;" horiz-adv-x="645" 
d="M269 -17q-58 0 -97 20.5t-58.5 61t-19.5 101.5v323q0 13 10.5 19.5t31.5 6.5q22 0 33 -6.5t11 -19.5v-323q0 -35 11 -59t33.5 -36t55.5 -12q28 0 52 9t43.5 24.5t34.5 37.5t25 47v312q0 13 10.5 19.5t32.5 6.5q21 0 32 -6.5t11 -19.5v-393q0 -14 4 -23t11.5 -13t16.5 -4
t16.5 3.5t15 9.5t14.5 11q8 6 17.5 3t17.5 -14q5 -7 7 -17t-5 -19q-10 -15 -26 -26.5t-35 -18.5t-39 -7q-24 0 -41.5 6.5t-29.5 18.5t-19 28t-9 35l-1 9q-14 -22 -31.5 -39.5t-38.5 -30t-45.5 -19t-51.5 -6.5zM272 610q-11 0 -26 12t-15 22q0 3 1 6t5 10l107 164
q5 8 10.5 11.5t13.5 3.5q10 0 23.5 -7.5t24 -18t10.5 -19.5q0 -7 -2.5 -11.5t-9.5 -12.5l-123 -147q-12 -13 -19 -13z" />
    <glyph glyph-name="ucircumflex" unicode="&#xfb;" horiz-adv-x="645" 
d="M269 -17q-58 0 -97 20.5t-58.5 61t-19.5 101.5v323q0 13 10.5 19.5t31.5 6.5q22 0 33 -6.5t11 -19.5v-323q0 -35 11 -59t33.5 -36t55.5 -12q28 0 52 9t43.5 24.5t34.5 37.5t25 47v312q0 13 10.5 19.5t32.5 6.5q21 0 32 -6.5t11 -19.5v-393q0 -14 4 -23t11.5 -13t16.5 -4
t16.5 3.5t15 9.5t14.5 11q8 6 17.5 3t17.5 -14q5 -7 7 -17t-5 -19q-10 -15 -26 -26.5t-35 -18.5t-39 -7q-24 0 -41.5 6.5t-29.5 18.5t-19 28t-9 35l-1 9q-14 -22 -31.5 -39.5t-38.5 -30t-45.5 -19t-51.5 -6.5zM161 610q-10 0 -22.5 12t-12.5 22q0 3 1 6t5 10l127 159
q6 7 15.5 13.5t28.5 6.5t28 -6.5t15 -13.5l128 -159q5 -7 6 -10t1 -6q0 -10 -13 -22t-22 -12q-7 0 -13 3.5t-12 9.5l-118 116l-117 -116q-7 -6 -13 -9.5t-12 -3.5z" />
    <glyph glyph-name="udieresis" unicode="&#xfc;" horiz-adv-x="645" 
d="M269 -17q-58 0 -97 20.5t-58.5 61t-19.5 101.5v323q0 13 10.5 19.5t31.5 6.5q22 0 33 -6.5t11 -19.5v-323q0 -35 11 -59t33.5 -36t55.5 -12q28 0 52 9t43.5 24.5t34.5 37.5t25 47v312q0 13 10.5 19.5t32.5 6.5q21 0 32 -6.5t11 -19.5v-393q0 -14 4 -23t11.5 -13t16.5 -4
t16.5 3.5t15 9.5t14.5 11q8 6 17.5 3t17.5 -14q5 -7 7 -17t-5 -19q-10 -15 -26 -26.5t-35 -18.5t-39 -7q-24 0 -41.5 6.5t-29.5 18.5t-19 28t-9 35l-1 9q-14 -22 -31.5 -39.5t-38.5 -30t-45.5 -19t-51.5 -6.5zM184 669q-28 0 -42 15.5t-14 46.5q0 32 14 48t42 16t41.5 -16
t13.5 -48q2 -31 -12.5 -46.5t-42.5 -15.5zM423 669q-28 0 -42 15.5t-14 46.5q0 32 14 48t42 16q27 0 41 -16t14 -48q1 -31 -13.5 -46.5t-41.5 -15.5z" />
    <glyph glyph-name="yacute" unicode="&#xfd;" horiz-adv-x="615" 
d="M269 -17q-58 0 -97 20.5t-58.5 61t-19.5 101.5v323q0 13 10.5 19.5t31.5 6.5q22 0 33 -6.5t11 -19.5v-323q0 -35 11 -59t33.5 -36t55.5 -12q28 0 52 9t43.5 25t34.5 38t25 47v311q0 13 10.5 19.5t32.5 6.5q21 0 32 -6.5t11 -19.5v-1214q0 -76 -27.5 -128t-77 -78
t-116.5 -26q-45 0 -81 12.5t-62.5 33.5t-43.5 44q-10 14 -7.5 30.5t23.5 27.5q18 9 28.5 7.5t22.5 -15.5q30 -32 59.5 -47t69.5 -15q39 0 67 16t43.5 50.5t15.5 89.5v799q-13 -21 -30.5 -38.5t-39 -29.5t-45.5 -18.5t-51 -6.5zM277 610q-11 0 -26 12t-15 22q0 3 1 6t5 10
l107 164q5 8 10.5 11.5t13.5 3.5q10 0 23.5 -7.5t24 -18t10.5 -19.5q0 -7 -2.5 -11.5t-9.5 -12.5l-123 -147q-12 -13 -19 -13z" />
    <glyph glyph-name="thorn.jmc" unicode="&#xfe;" horiz-adv-x="635" 
d="M168 -953q-22 0 -32.5 6.5t-10.5 19.5v2354q0 13 10.5 19.5t32.5 6.5q21 0 32 -6.5t11 -19.5v-994q24 35 50 53.5t52.5 25.5t51.5 7q86 0 140.5 -62.5t54.5 -190.5q0 -52 -10 -96t-29 -78.5t-47.5 -58.5t-65 -37t-80.5 -13q-31 0 -61 8t-56 23v-941q0 -13 -11 -19.5
t-32 -6.5zM211 95q30 -18 59 -26t58 -8q26 0 48 8t39.5 24t30 40.5t19 57t6.5 72.5q0 55 -13 94.5t-39 60.5t-66 21q-27 0 -52.5 -10t-48 -31t-41.5 -55v-248z" />
    <glyph glyph-name="ydieresis" unicode="&#xff;" horiz-adv-x="615" 
d="M269 -17q-58 0 -97 20.5t-58.5 61t-19.5 101.5v323q0 13 10.5 19.5t31.5 6.5q22 0 33 -6.5t11 -19.5v-323q0 -35 11 -59t33.5 -36t55.5 -12q28 0 52 9t43.5 25t34.5 38t25 47v311q0 13 10.5 19.5t32.5 6.5q21 0 32 -6.5t11 -19.5v-1214q0 -76 -27.5 -128t-77 -78
t-116.5 -26q-45 0 -81 12.5t-62.5 33.5t-43.5 44q-10 14 -7.5 30.5t23.5 27.5q18 9 28.5 7.5t22.5 -15.5q30 -32 59.5 -47t69.5 -15q39 0 67 16t43.5 50.5t15.5 89.5v799q-13 -21 -30.5 -38.5t-39 -29.5t-45.5 -18.5t-51 -6.5zM189 669q-28 0 -42 15.5t-14 46.5q0 32 14 48
t42 16t41.5 -16t13.5 -48q2 -31 -12.5 -46.5t-42.5 -15.5zM428 669q-28 0 -42 15.5t-14 46.5q0 32 14 48t42 16q27 0 41 -16t14 -48q1 -31 -13.5 -46.5t-41.5 -15.5z" />
    <glyph glyph-name="Amacron" unicode="&#x100;" horiz-adv-x="1121" 
d="M83 -14q-26 0 -35.5 12.5t-3.5 32.5l461 1382q8 23 20.5 31.5t35.5 8.5t35.5 -8.5t19.5 -31.5l461 -1382q7 -20 -3.5 -32.5t-36.5 -12.5q-22 0 -32 8.5t-17 28.5l-132 405h-591l-134 -405q-7 -20 -16.5 -28.5t-31.5 -8.5zM291 508h537l-267 811zM409 1565q-17 0 -22 11.5
t-5 29.5q0 19 5 31.5t22 12.5h305q18 0 23 -12.5t5 -31.5q0 -18 -5 -29.5t-23 -11.5h-305z" />
    <glyph glyph-name="amacron" unicode="&#x101;" horiz-adv-x="624" 
d="M258 -17q-57 0 -101 27.5t-69 83.5t-25 141q0 52 9.5 96t28.5 79t46 59t62 37t77 13q32 0 66 -10.5t64 -27.5v5q0 15 11 22t33 7t32.5 -6.5t10.5 -20.5v-392q0 -13 4 -21.5t11 -12.5t16 -4q10 0 16.5 2.5t13 7.5t15.5 12q7 6 16 3.5t18 -10.5q9 -10 10 -21t-4 -19
q-11 -16 -28 -27t-36.5 -17t-39.5 -6q-23 0 -40 5t-29 15.5t-18.5 25.5t-9.5 34q0 1 -1 4.5t-1 7.5q-23 -37 -49.5 -57t-54.5 -27.5t-54 -7.5zM151 239q0 -55 13 -94.5t39.5 -60.5t66.5 -21q29 0 55.5 10t49.5 33t41 60v242q-31 19 -60 25.5t-61 6.5q-26 0 -48 -8t-40 -24
t-30.5 -40t-19 -56t-6.5 -73zM172 686q-17 0 -22 12t-5 30q0 19 5 31t22 12h268q18 0 22.5 -12t4.5 -31q0 -18 -4.5 -30t-22.5 -12h-268z" />
    <glyph glyph-name="Abreve" unicode="&#x102;" horiz-adv-x="1121" 
d="M83 -14q-26 0 -35.5 12.5t-3.5 32.5l461 1382q8 23 20.5 31.5t35.5 8.5t35.5 -8.5t19.5 -31.5l461 -1382q7 -20 -3.5 -32.5t-36.5 -12.5q-22 0 -32 8.5t-17 28.5l-132 405h-591l-134 -405q-7 -20 -16.5 -28.5t-31.5 -8.5zM291 508h537l-267 811zM561 1504
q-86 0 -136 45.5t-57 141.5q-1 13 9 21t29 8q16 0 22 -7.5t10 -21.5q13 -51 41 -75t82 -24q55 0 83 24t40 75q4 14 9.5 21.5t21.5 7.5q19 0 29.5 -8t9.5 -21q-4 -61 -29.5 -102.5t-67 -63t-96.5 -21.5z" />
    <glyph glyph-name="abreve" unicode="&#x103;" horiz-adv-x="624" 
d="M258 -17q-57 0 -101 27.5t-69 83.5t-25 141q0 52 9.5 96t28.5 79t46 59t62 37t77 13q32 0 66 -10.5t64 -27.5v5q0 15 11 22t33 7t32.5 -6.5t10.5 -20.5v-392q0 -13 4 -21.5t11 -12.5t16 -4q10 0 16.5 2.5t13 7.5t15.5 12q7 6 16 3.5t18 -10.5q9 -10 10 -21t-4 -19
q-11 -16 -28 -27t-36.5 -17t-39.5 -6q-23 0 -40 5t-29 15.5t-18.5 25.5t-9.5 34q0 1 -1 4.5t-1 7.5q-23 -37 -49.5 -57t-54.5 -27.5t-54 -7.5zM151 239q0 -55 13 -94.5t39.5 -60.5t66.5 -21q29 0 55.5 10t49.5 33t41 60v242q-31 19 -60 25.5t-61 6.5q-26 0 -48 -8t-40 -24
t-30.5 -40t-19 -56t-6.5 -73zM306 618q-79 0 -125.5 50.5t-50.5 140.5q-1 12 7 20.5t27 8.5t26 -8t10 -21q9 -45 34.5 -74t71.5 -29q47 0 72 29t34 74q3 14 9.5 21.5t25.5 7.5t28 -8.5t7 -20.5q-2 -57 -25 -100t-62 -67t-89 -24z" />
    <glyph glyph-name="Aogonek" unicode="&#x104;" horiz-adv-x="1121" 
d="M83 -14q-26 0 -35.5 12.5t-3.5 32.5l461 1382q8 23 20.5 31.5t35.5 8.5t35.5 -8.5t19.5 -31.5l461 -1382q7 -20 -3.5 -32.5t-36.5 -12.5q-22 0 -32 8.5t-17 28.5l-132 405h-591l-134 -405q-7 -20 -16.5 -28.5t-31.5 -8.5zM291 508h537l-267 811zM975 -296q-41 0 -72.5 25
t-31.5 74q0 29 9.5 56.5t28 54.5t45 53t60.5 52l62 1v-9q-23 -19 -46 -41.5t-41.5 -46t-29.5 -47t-11 -44.5q0 -27 12.5 -39.5t28.5 -12.5q15 0 29.5 7t33.5 22q7 5 17 5.5t20 -9.5q10 -9 12.5 -22t-2.5 -21q-12 -17 -34 -30.5t-46 -20.5t-44 -7z" />
    <glyph glyph-name="aogonek" unicode="&#x105;" horiz-adv-x="624" 
d="M258 -17q-57 0 -101 27.5t-69 83.5t-25 141q0 52 9.5 96t28.5 79t46 59t62 37t77 13q32 0 66 -10.5t64 -27.5v5q0 15 11 22t33 7t32.5 -6.5t10.5 -20.5v-392q0 -13 4 -21.5t11 -12.5t16 -4q10 0 16.5 2.5t13 7.5t15.5 12q7 6 16 3.5t18 -10.5q9 -10 10 -21t-4 -19
q-11 -16 -28 -27t-36.5 -17t-39.5 -6q-23 0 -40 5t-29 15.5t-18.5 25.5t-9.5 34q0 1 -1 4.5t-1 7.5q-23 -37 -49.5 -57t-54.5 -27.5t-54 -7.5zM151 239q0 -55 13 -94.5t39.5 -60.5t66.5 -21q29 0 55.5 10t49.5 33t41 60v242q-31 19 -60 25.5t-61 6.5q-26 0 -48 -8t-40 -24
t-30.5 -40t-19 -56t-6.5 -73zM491 -257q-39 0 -67.5 22t-28.5 65q0 27 9 50t26.5 45t43 45t59.5 49l62 1v-9q-23 -19 -44.5 -38t-39 -38t-28 -38t-10.5 -38q0 -21 9.5 -30.5t25.5 -9.5q15 0 27 6t31 21q7 5 17 5.5t20 -8.5q10 -10 12.5 -23t-2.5 -21q-12 -17 -33.5 -30
t-45 -19.5t-43.5 -6.5z" />
    <glyph glyph-name="Cacute" unicode="&#x106;" horiz-adv-x="1159" 
d="M680 -19q-125 0 -226 52.5t-173 149.5t-110.5 232.5t-38.5 302.5q0 111 18.5 208.5t53 179t84.5 145.5t112.5 109.5t137 69t158.5 23.5q66 0 134 -20t129 -60.5t106 -101.5q8 -12 4.5 -21t-16.5 -20q-13 -12 -23.5 -14t-19.5 8q-46 46 -96.5 78.5t-105 49t-112.5 16.5
q-68 0 -129 -20t-113.5 -58.5t-94.5 -95t-72 -129t-46 -159.5t-16 -188q0 -151 33 -271.5t93.5 -205.5t144 -130t184.5 -45q56 0 105 16.5t93 46t84.5 67.5t77.5 79q8 10 19.5 7.5t25.5 -13.5q13 -11 16 -20t-5 -20q-62 -82 -129 -137.5t-138.5 -83t-148.5 -27.5zM624 1502
q-15 0 -26.5 12t-11.5 23q0 4 1.5 9t7.5 11l170 152q5 5 9.5 8t13.5 3t21.5 -9t21 -21.5t8.5 -24.5q0 -7 -2.5 -12t-12.5 -13l-181 -129q-6 -4 -10.5 -6.5t-8.5 -2.5z" />
    <glyph glyph-name="cacute" unicode="&#x107;" horiz-adv-x="505" 
d="M277 -19q-67 0 -119.5 30t-82.5 89t-30 145q0 60 17.5 110.5t49 87t74.5 56.5t95 20q44 0 90.5 -18.5t83.5 -62.5q11 -14 8.5 -25t-13.5 -23q-13 -13 -24.5 -16t-23.5 7q-27 23 -54 40.5t-71 17.5q-33 0 -60 -13t-45.5 -38t-28.5 -59.5t-10 -78.5q0 -58 17.5 -100.5
t50 -65.5t76.5 -23q32 0 54.5 9t41.5 25.5t40 39.5q11 11 23 10t26 -12t18 -21.5t-5 -23.5q-27 -39 -60.5 -62.5t-69 -34t-68.5 -10.5zM246 610q-11 0 -26 12t-15 22q0 3 1 6t5 10l107 164q5 8 10.5 11.5t13.5 3.5q10 0 23.5 -7.5t24 -18t10.5 -19.5q0 -7 -2.5 -11.5
t-9.5 -12.5l-123 -147q-12 -13 -19 -13z" />
    <glyph glyph-name="Ccircumflex" unicode="&#x108;" horiz-adv-x="1159" 
d="M680 -19q-125 0 -226 52.5t-173 149.5t-110.5 232.5t-38.5 302.5q0 111 18.5 208.5t53 179t84.5 145.5t112.5 109.5t137 69t158.5 23.5q66 0 134 -20t129 -60.5t106 -101.5q8 -12 4.5 -21t-16.5 -20q-13 -12 -23.5 -14t-19.5 8q-46 46 -96.5 78.5t-105 49t-112.5 16.5
q-68 0 -129 -20t-113.5 -58.5t-94.5 -95t-72 -129t-46 -159.5t-16 -188q0 -151 33 -271.5t93.5 -205.5t144 -130t184.5 -45q56 0 105 16.5t93 46t84.5 67.5t77.5 79q8 10 19.5 7.5t25.5 -13.5q13 -11 16 -20t-5 -20q-62 -82 -129 -137.5t-138.5 -83t-148.5 -27.5zM513 1502
q-10 0 -22.5 12t-12.5 22v7t6 9l155 148q7 7 16 13.5t28 6.5t27.5 -6.5t15.5 -13.5l158 -148q5 -5 5.5 -9t0.5 -7q0 -10 -13 -22t-23 -12q-6 0 -11 3.5t-13 9.5l-147 105l-145 -105q-7 -6 -13 -9.5t-12 -3.5z" />
    <glyph glyph-name="ccircumflex" unicode="&#x109;" horiz-adv-x="505" 
d="M277 -19q-67 0 -119.5 30t-82.5 89t-30 145q0 60 17.5 110.5t49 87t74.5 56.5t95 20q44 0 90.5 -18.5t83.5 -62.5q11 -14 8.5 -25t-13.5 -23q-13 -13 -24.5 -16t-23.5 7q-27 23 -54 40.5t-71 17.5q-33 0 -60 -13t-45.5 -38t-28.5 -59.5t-10 -78.5q0 -58 17.5 -100.5
t50 -65.5t76.5 -23q32 0 54.5 9t41.5 25.5t40 39.5q11 11 23 10t26 -12t18 -21.5t-5 -23.5q-27 -39 -60.5 -62.5t-69 -34t-68.5 -10.5zM135 610q-10 0 -22.5 12t-12.5 22q0 3 1 6t5 10l127 159q6 7 15.5 13.5t28.5 6.5t28 -6.5t15 -13.5l128 -159q5 -7 6 -10t1 -6
q0 -10 -13 -22t-22 -12q-7 0 -13 3.5t-12 9.5l-118 116l-117 -116q-7 -6 -13 -9.5t-12 -3.5z" />
    <glyph glyph-name="Cdotaccent" unicode="&#x10a;" horiz-adv-x="1159" 
d="M680 -19q-125 0 -226 52.5t-173 149.5t-110.5 232.5t-38.5 302.5q0 111 18.5 208.5t53 179t84.5 145.5t112.5 109.5t137 69t158.5 23.5q66 0 134 -20t129 -60.5t106 -101.5q8 -12 4.5 -21t-16.5 -20q-13 -12 -23.5 -14t-19.5 8q-46 46 -96.5 78.5t-105 49t-112.5 16.5
q-68 0 -129 -20t-113.5 -58.5t-94.5 -95t-72 -129t-46 -159.5t-16 -188q0 -151 33 -271.5t93.5 -205.5t144 -130t184.5 -45q56 0 105 16.5t93 46t84.5 67.5t77.5 79q8 10 19.5 7.5t25.5 -13.5q13 -11 16 -20t-5 -20q-62 -82 -129 -137.5t-138.5 -83t-148.5 -27.5zM683 1543
q-28 0 -42 15.5t-14 46.5q0 32 14 48t42 16q27 0 41 -16t14 -48q1 -31 -13.5 -46.5t-41.5 -15.5z" />
    <glyph glyph-name="cdotaccent" unicode="&#x10b;" horiz-adv-x="505" 
d="M277 -19q-67 0 -119.5 30t-82.5 89t-30 145q0 60 17.5 110.5t49 87t74.5 56.5t95 20q44 0 90.5 -18.5t83.5 -62.5q11 -14 8.5 -25t-13.5 -23q-13 -13 -24.5 -16t-23.5 7q-27 23 -54 40.5t-71 17.5q-33 0 -60 -13t-45.5 -38t-28.5 -59.5t-10 -78.5q0 -58 17.5 -100.5
t50 -65.5t76.5 -23q32 0 54.5 9t41.5 25.5t40 39.5q11 11 23 10t26 -12t18 -21.5t-5 -23.5q-27 -39 -60.5 -62.5t-69 -34t-68.5 -10.5zM277 669q-28 0 -42 15.5t-14 46.5q0 32 14 48t42 16q27 0 41 -16t14 -48q1 -31 -13.5 -46.5t-41.5 -15.5z" />
    <glyph glyph-name="Ccaron" unicode="&#x10c;" horiz-adv-x="1159" 
d="M680 -19q-125 0 -226 52.5t-173 149.5t-110.5 232.5t-38.5 302.5q0 111 18.5 208.5t53 179t84.5 145.5t112.5 109.5t137 69t158.5 23.5q66 0 134 -20t129 -60.5t106 -101.5q8 -12 4.5 -21t-16.5 -20q-13 -12 -23.5 -14t-19.5 8q-46 46 -96.5 78.5t-105 49t-112.5 16.5
q-68 0 -129 -20t-113.5 -58.5t-94.5 -95t-72 -129t-46 -159.5t-16 -188q0 -151 33 -271.5t93.5 -205.5t144 -130t184.5 -45q56 0 105 16.5t93 46t84.5 67.5t77.5 79q8 10 19.5 7.5t25.5 -13.5q13 -11 16 -20t-5 -20q-62 -82 -129 -137.5t-138.5 -83t-148.5 -27.5zM855 1720
q9 0 22 -11.5t13 -22.5q0 -2 -0.5 -6t-5.5 -10l-156 -148q-7 -6 -15.5 -13t-28.5 -7q-19 0 -27 7t-15 13l-158 148q-6 6 -6 10v6q0 11 12.5 22.5t22.5 11.5q6 0 12 -3.5t13 -8.5l146 -106l146 106q8 5 13 8.5t12 3.5z" />
    <glyph glyph-name="ccaron" unicode="&#x10d;" horiz-adv-x="505" 
d="M277 -19q-67 0 -119.5 30t-82.5 89t-30 145q0 60 17.5 110.5t49 87t74.5 56.5t95 20q44 0 90.5 -18.5t83.5 -62.5q11 -14 8.5 -25t-13.5 -23q-13 -13 -24.5 -16t-23.5 7q-27 23 -54 40.5t-71 17.5q-33 0 -60 -13t-45.5 -38t-28.5 -59.5t-10 -78.5q0 -58 17.5 -100.5
t50 -65.5t76.5 -23q32 0 54.5 9t41.5 25.5t40 39.5q11 11 23 10t26 -12t18 -21.5t-5 -23.5q-27 -39 -60.5 -62.5t-69 -34t-68.5 -10.5zM420 845q9 0 22 -11.5t13 -22.5q0 -2 -1 -5.5t-6 -10.5l-127 -159q-6 -6 -15 -13t-29 -7q-19 0 -28 7t-14 13l-129 159q-4 7 -5 10.5
t-1 5.5q0 11 12.5 22.5t22.5 11.5q6 0 12 -3.5t13 -8.5l117 -117l118 117q6 5 12 8.5t13 3.5z" />
    <glyph glyph-name="Dcaron" unicode="&#x10e;" horiz-adv-x="1300" 
d="M251 0q-44 0 -44 28v1371q0 14 11 21t33 7h273q153 0 272 -43.5t202 -127t126 -202t43 -267.5q0 -148 -31.5 -271t-92 -219t-148.5 -162.5t-202.5 -100.5t-252.5 -34h-189zM295 85h144q120 0 219.5 30.5t175.5 89t128.5 144t80 195.5t27.5 243q0 129 -37 232t-107 175
t-171.5 110t-230.5 38h-229v-1257zM781 1720q9 0 22 -11.5t13 -22.5q0 -2 -0.5 -6t-5.5 -10l-156 -148q-7 -6 -15.5 -13t-28.5 -7q-19 0 -27 7t-15 13l-158 148q-6 6 -6 10v6q0 11 12.5 22.5t22.5 11.5q6 0 12 -3.5t13 -8.5l146 -106l146 106q8 5 13 8.5t12 3.5z" />
    <glyph glyph-name="dcaron" unicode="&#x10f;" horiz-adv-x="629" 
d="M258 -17q-57 0 -101 27.5t-69 83.5t-25 141q0 52 10 96t28.5 79t46 59t63.5 37t79 13q30 0 64 -9t64 -26v943q0 13 11 19.5t32 6.5q22 0 32.5 -6.5t10.5 -19.5v-1331q0 -20 8.5 -29t22.5 -9q9 0 16.5 3t14.5 8t15 11t17.5 2t16.5 -12q8 -9 9.5 -19t-4.5 -18
q-11 -16 -28 -27t-36.5 -17t-39.5 -6q-38 0 -59 14t-29.5 34.5t-8.5 41.5v1.5v1.5q-24 -38 -51.5 -58t-55.5 -27.5t-54 -7.5zM151 239q0 -55 13 -94.5t39.5 -60.5t66.5 -21q29 0 55.5 10t50 33t42.5 60v238q-31 20 -61 28t-62 8q-26 0 -48 -8t-40 -24t-30.5 -40t-19 -56
t-6.5 -73zM594 1264q-17 6 -23 13t-2 20q7 22 12.5 56t9.5 69.5t5 60.5q0 11 9.5 18t33.5 7q25 0 36 -7t11 -18q-1 -27 -9 -65.5t-19.5 -77t-24.5 -66.5q-4 -7 -10.5 -12t-28.5 2z" />
    <glyph glyph-name="Dcroat" unicode="&#x110;" horiz-adv-x="1300" 
d="M251 0q-44 0 -44 28v1371q0 14 11 21t33 7h273q153 0 272 -43.5t202 -127t126 -202t43 -267.5q0 -148 -31.5 -271t-92 -219t-148.5 -162.5t-202.5 -100.5t-252.5 -34h-189zM295 85h144q120 0 219.5 30.5t175.5 89t128.5 144t80 195.5t27.5 243q0 129 -37 232t-107 175
t-171.5 110t-230.5 38h-229v-1257zM42 681q-18 0 -23 11t-5 24q0 14 5 26t23 12h501q17 0 22 -12t5 -26q0 -13 -5 -24t-22 -11h-501z" />
    <glyph glyph-name="dcroat" unicode="&#x111;" horiz-adv-x="629" 
d="M258 -17q-57 0 -101 27.5t-69 83.5t-25 141q0 52 10 96t28.5 79t46 59t63.5 37t79 13q30 0 64 -9t64 -26v943q0 13 11 19.5t32 6.5q22 0 32.5 -6.5t10.5 -19.5v-1331q0 -20 8.5 -29t22.5 -9q9 0 16.5 3t14.5 8t15 11t17.5 2t16.5 -12q8 -9 9.5 -19t-4.5 -18
q-11 -16 -28 -27t-36.5 -17t-39.5 -6q-38 0 -59 14t-29.5 34.5t-8.5 41.5v1.5v1.5q-24 -38 -51.5 -58t-55.5 -27.5t-54 -7.5zM151 239q0 -55 13 -94.5t39.5 -60.5t66.5 -21q29 0 55.5 10t50 33t42.5 60v238q-31 20 -61 28t-62 8q-26 0 -48 -8t-40 -24t-30.5 -40t-19 -56
t-6.5 -73zM287 886q-18 0 -23 11t-5 24q0 14 5 26t23 12h289q18 0 22.5 -12t4.5 -26q0 -13 -4.5 -24t-22.5 -11h-289z" />
    <glyph glyph-name="Emacron" unicode="&#x112;" horiz-adv-x="990" 
d="M251 0q-22 0 -33 10t-11 30v1359q0 14 11 21t33 7h646q15 0 21.5 -8.5t6.5 -31.5q0 -22 -6.5 -31t-21.5 -9h-602v-553h508q15 0 21.5 -8.5t6.5 -31.5q0 -22 -6.5 -31t-21.5 -9h-508v-634h602q15 0 21.5 -8.5t6.5 -31.5q0 -22 -6.5 -31t-21.5 -9h-646zM426 1565
q-17 0 -22 11.5t-5 29.5q0 19 5 31.5t22 12.5h305q18 0 23 -12.5t5 -31.5q0 -18 -5 -29.5t-23 -11.5h-305z" />
    <glyph glyph-name="emacron" unicode="&#x113;" horiz-adv-x="526" 
d="M293 -19q-79 0 -130 34t-75.5 90t-24.5 123t18.5 120.5t52.5 91.5t80.5 58.5t101.5 20.5q49 0 85.5 -14.5t57 -44t20.5 -74.5q0 -38 -16.5 -69t-46.5 -54.5t-71 -39t-92 -23.5t-108 -9v70q33 0 67.5 4.5t66.5 13.5t57 23.5t39.5 33.5t14.5 43q0 32 -21.5 46t-57.5 14
q-33 0 -61.5 -13t-51 -38.5t-35 -61.5t-12.5 -82q0 -55 17.5 -96t49.5 -64t77 -23q30 0 51 7.5t39.5 23t40.5 37.5q15 15 27.5 15t26.5 -11t17 -23.5t-7 -25.5q-25 -38 -59 -60.5t-69.5 -32.5t-68.5 -10zM170 686q-17 0 -22 12t-5 30q0 19 5 31t22 12h268q18 0 22.5 -12
t4.5 -31q0 -18 -4.5 -30t-22.5 -12h-268z" />
    <glyph glyph-name="Ebreve" unicode="&#x114;" horiz-adv-x="990" 
d="M251 0q-22 0 -33 10t-11 30v1359q0 14 11 21t33 7h646q15 0 21.5 -8.5t6.5 -31.5q0 -22 -6.5 -31t-21.5 -9h-602v-553h508q15 0 21.5 -8.5t6.5 -31.5q0 -22 -6.5 -31t-21.5 -9h-508v-634h602q15 0 21.5 -8.5t6.5 -31.5q0 -22 -6.5 -31t-21.5 -9h-646zM578 1504
q-86 0 -136 45.5t-57 141.5q-1 13 9 21t29 8q16 0 22 -7.5t10 -21.5q13 -51 41 -75t82 -24q55 0 83 24t40 75q4 14 9.5 21.5t21.5 7.5q19 0 29.5 -8t9.5 -21q-4 -61 -29.5 -102.5t-67 -63t-96.5 -21.5z" />
    <glyph glyph-name="ebreve" unicode="&#x115;" horiz-adv-x="526" 
d="M293 -19q-79 0 -130 34t-75.5 90t-24.5 123t18.5 120.5t52.5 91.5t80.5 58.5t101.5 20.5q49 0 85.5 -14.5t57 -44t20.5 -74.5q0 -38 -16.5 -69t-46.5 -54.5t-71 -39t-92 -23.5t-108 -9v70q33 0 67.5 4.5t66.5 13.5t57 23.5t39.5 33.5t14.5 43q0 32 -21.5 46t-57.5 14
q-33 0 -61.5 -13t-51 -38.5t-35 -61.5t-12.5 -82q0 -55 17.5 -96t49.5 -64t77 -23q30 0 51 7.5t39.5 23t40.5 37.5q15 15 27.5 15t26.5 -11t17 -23.5t-7 -25.5q-25 -38 -59 -60.5t-69.5 -32.5t-68.5 -10zM304 618q-79 0 -125.5 50.5t-50.5 140.5q-1 12 7 20.5t27 8.5t26 -8
t10 -21q9 -45 34.5 -74t71.5 -29q47 0 72 29t34 74q3 14 9.5 21.5t25.5 7.5t28 -8.5t7 -20.5q-2 -57 -25 -100t-62 -67t-89 -24z" />
    <glyph glyph-name="Edotaccent" unicode="&#x116;" horiz-adv-x="990" 
d="M251 0q-22 0 -33 10t-11 30v1359q0 14 11 21t33 7h646q15 0 21.5 -8.5t6.5 -31.5q0 -22 -6.5 -31t-21.5 -9h-602v-553h508q15 0 21.5 -8.5t6.5 -31.5q0 -22 -6.5 -31t-21.5 -9h-508v-634h602q15 0 21.5 -8.5t6.5 -31.5q0 -22 -6.5 -31t-21.5 -9h-646zM578 1543
q-28 0 -42 15.5t-14 46.5q0 32 14 48t42 16q27 0 41 -16t14 -48q1 -31 -13.5 -46.5t-41.5 -15.5z" />
    <glyph glyph-name="edotaccent" unicode="&#x117;" horiz-adv-x="526" 
d="M293 -19q-79 0 -130 34t-75.5 90t-24.5 123t18.5 120.5t52.5 91.5t80.5 58.5t101.5 20.5q49 0 85.5 -14.5t57 -44t20.5 -74.5q0 -38 -16.5 -69t-46.5 -54.5t-71 -39t-92 -23.5t-108 -9v70q33 0 67.5 4.5t66.5 13.5t57 23.5t39.5 33.5t14.5 43q0 32 -21.5 46t-57.5 14
q-33 0 -61.5 -13t-51 -38.5t-35 -61.5t-12.5 -82q0 -55 17.5 -96t49.5 -64t77 -23q30 0 51 7.5t39.5 23t40.5 37.5q15 15 27.5 15t26.5 -11t17 -23.5t-7 -25.5q-25 -38 -59 -60.5t-69.5 -32.5t-68.5 -10zM304 669q-28 0 -42 15.5t-14 46.5q0 32 14 48t42 16q27 0 41 -16
t14 -48q1 -31 -13.5 -46.5t-41.5 -15.5z" />
    <glyph glyph-name="Eogonek" unicode="&#x118;" horiz-adv-x="990" 
d="M251 0q-22 0 -33 10t-11 30v1359q0 14 11 21t33 7h646q15 0 21.5 -8.5t6.5 -31.5q0 -22 -6.5 -31t-21.5 -9h-602v-553h508q15 0 21.5 -8.5t6.5 -31.5q0 -22 -6.5 -31t-21.5 -9h-508v-634h602q15 0 21.5 -8.5t6.5 -31.5q0 -22 -6.5 -31t-21.5 -9h-646zM813 -296
q-41 0 -72.5 25t-31.5 74q0 29 9.5 56.5t28 54.5t45 53t60.5 52l62 1v-9q-23 -19 -46 -41.5t-41.5 -46t-29.5 -47t-11 -44.5q0 -27 12.5 -39.5t28.5 -12.5q15 0 29.5 7t33.5 22q7 5 17 5.5t20 -9.5q10 -9 12.5 -22t-2.5 -21q-12 -17 -34 -30.5t-46 -20.5t-44 -7z" />
    <glyph glyph-name="eogonek" unicode="&#x119;" horiz-adv-x="526" 
d="M293 -19q-79 0 -130 34t-75.5 90t-24.5 123t18.5 120.5t52.5 91.5t80.5 58.5t101.5 20.5q49 0 85.5 -14.5t57 -44t20.5 -74.5q0 -38 -16.5 -69t-46.5 -54.5t-71 -39t-92 -23.5t-108 -9v70q33 0 67.5 4.5t66.5 13.5t57 23.5t39.5 33.5t14.5 43q0 32 -21.5 46t-57.5 14
q-33 0 -61.5 -13t-51 -38.5t-35 -61.5t-12.5 -82q0 -55 17.5 -96t49.5 -64t77 -23q30 0 51 7.5t39.5 23t40.5 37.5q15 15 27.5 15t26.5 -11t17 -23.5t-7 -25.5q-25 -38 -59 -60.5t-69.5 -32.5t-68.5 -10zM324 -244q-39 0 -67.5 22t-28.5 65q0 27 9 50t26.5 45t43 45t59.5 49
l62 1v-9q-23 -19 -44.5 -38t-39 -38t-28 -38t-10.5 -38q0 -21 9.5 -30.5t25.5 -9.5q15 0 27 6t31 21q7 5 17 5.5t20 -8.5q10 -10 12.5 -23t-2.5 -21q-12 -17 -33.5 -30t-45 -19.5t-43.5 -6.5z" />
    <glyph glyph-name="Ecaron" unicode="&#x11a;" horiz-adv-x="990" 
d="M251 0q-22 0 -33 10t-11 30v1359q0 14 11 21t33 7h646q15 0 21.5 -8.5t6.5 -31.5q0 -22 -6.5 -31t-21.5 -9h-602v-553h508q15 0 21.5 -8.5t6.5 -31.5q0 -22 -6.5 -31t-21.5 -9h-508v-634h602q15 0 21.5 -8.5t6.5 -31.5q0 -22 -6.5 -31t-21.5 -9h-646zM750 1720
q9 0 22 -11.5t13 -22.5q0 -2 -0.5 -6t-5.5 -10l-156 -148q-7 -6 -15.5 -13t-28.5 -7q-19 0 -27 7t-15 13l-158 148q-6 6 -6 10v6q0 11 12.5 22.5t22.5 11.5q6 0 12 -3.5t13 -8.5l146 -106l146 106q8 5 13 8.5t12 3.5z" />
    <glyph glyph-name="ecaron" unicode="&#x11b;" horiz-adv-x="526" 
d="M293 -19q-79 0 -130 34t-75.5 90t-24.5 123t18.5 120.5t52.5 91.5t80.5 58.5t101.5 20.5q49 0 85.5 -14.5t57 -44t20.5 -74.5q0 -38 -16.5 -69t-46.5 -54.5t-71 -39t-92 -23.5t-108 -9v70q33 0 67.5 4.5t66.5 13.5t57 23.5t39.5 33.5t14.5 43q0 32 -21.5 46t-57.5 14
q-33 0 -61.5 -13t-51 -38.5t-35 -61.5t-12.5 -82q0 -55 17.5 -96t49.5 -64t77 -23q30 0 51 7.5t39.5 23t40.5 37.5q15 15 27.5 15t26.5 -11t17 -23.5t-7 -25.5q-25 -38 -59 -60.5t-69.5 -32.5t-68.5 -10zM447 845q9 0 22 -11.5t13 -22.5q0 -2 -1 -5.5t-6 -10.5l-127 -159
q-6 -6 -15 -13t-29 -7q-19 0 -28 7t-14 13l-129 159q-4 7 -5 10.5t-1 5.5q0 11 12.5 22.5t22.5 11.5q6 0 12 -3.5t13 -8.5l117 -117l118 117q6 5 12 8.5t13 3.5z" />
    <glyph glyph-name="Gcircumflex" unicode="&#x11c;" horiz-adv-x="1308" 
d="M664 -19q-119 0 -217 52.5t-168 149.5t-108.5 232.5t-38.5 302.5q0 111 18.5 208.5t53 179t84.5 145.5t112.5 109.5t137 69t158.5 23.5q69 0 133 -17.5t121 -57.5t104 -107q9 -12 5 -21t-16 -20q-14 -12 -24 -14t-20 8q-45 48 -90 80t-96 48t-117 16q-68 0 -129 -20
t-113.5 -58.5t-94.5 -95t-72 -129t-46 -159.5t-16 -188q0 -151 33 -271.5t92 -205.5t139.5 -130t174.5 -45q68 0 128 22t110 67.5t87 117.5t57 171.5t20 229.5h-362q-15 0 -21.5 9t-6.5 31q0 23 6.5 31.5t21.5 8.5h426q15 0 21.5 -8.5t6.5 -31.5q0 -194 -36.5 -333.5
t-103 -228t-157 -130t-197.5 -41.5zM503 1502q-10 0 -22.5 12t-12.5 22v7t6 9l155 148q7 7 16 13.5t28 6.5t27.5 -6.5t15.5 -13.5l158 -148q5 -5 5.5 -9t0.5 -7q0 -10 -13 -22t-23 -12q-6 0 -11 3.5t-13 9.5l-147 105l-145 -105q-7 -6 -13 -9.5t-12 -3.5z" />
    <glyph glyph-name="gcircumflex" unicode="&#x11d;" horiz-adv-x="598" 
d="M285 -957q-67 0 -115 26t-74 62q-9 14 -7.5 28t21.5 29q19 14 29.5 12t23.5 -15q31 -33 60 -48.5t66 -15.5q40 0 69 16.5t44.5 53.5t15.5 99v785q-23 -37 -50.5 -57t-55 -27.5t-54.5 -7.5q-57 0 -101 27.5t-69 83.5t-25 141q0 52 9.5 96t28.5 79t46 59t62 37t77 13
q32 0 66.5 -9t65.5 -26v5q0 13 10 19.5t32 6.5t33 -6.5t11 -19.5v-1202q0 -82 -27 -136.5t-76 -81t-116 -26.5zM270 63q29 0 55.5 10.5t50 33.5t42.5 60v236q-31 20 -61 28.5t-62 8.5q-26 0 -48 -8t-40 -24t-30.5 -40t-19 -56t-6.5 -73q0 -55 13 -94.5t39.5 -60.5t66.5 -21z
M153 610q-10 0 -22.5 12t-12.5 22q0 3 1 6t5 10l127 159q6 7 15.5 13.5t28.5 6.5t28 -6.5t15 -13.5l128 -159q5 -7 6 -10t1 -6q0 -10 -13 -22t-22 -12q-7 0 -13 3.5t-12 9.5l-118 116l-117 -116q-7 -6 -13 -9.5t-12 -3.5z" />
    <glyph glyph-name="Gbreve" unicode="&#x11e;" horiz-adv-x="1308" 
d="M664 -19q-119 0 -217 52.5t-168 149.5t-108.5 232.5t-38.5 302.5q0 111 18.5 208.5t53 179t84.5 145.5t112.5 109.5t137 69t158.5 23.5q69 0 133 -17.5t121 -57.5t104 -107q9 -12 5 -21t-16 -20q-14 -12 -24 -14t-20 8q-45 48 -90 80t-96 48t-117 16q-68 0 -129 -20
t-113.5 -58.5t-94.5 -95t-72 -129t-46 -159.5t-16 -188q0 -151 33 -271.5t92 -205.5t139.5 -130t174.5 -45q68 0 128 22t110 67.5t87 117.5t57 171.5t20 229.5h-362q-15 0 -21.5 9t-6.5 31q0 23 6.5 31.5t21.5 8.5h426q15 0 21.5 -8.5t6.5 -31.5q0 -194 -36.5 -333.5
t-103 -228t-157 -130t-197.5 -41.5zM673 1504q-86 0 -136 45.5t-57 141.5q-1 13 9 21t29 8q16 0 22 -7.5t10 -21.5q13 -51 41 -75t82 -24q55 0 83 24t40 75q4 14 9.5 21.5t21.5 7.5q19 0 29.5 -8t9.5 -21q-4 -61 -29.5 -102.5t-67 -63t-96.5 -21.5z" />
    <glyph glyph-name="gbreve" unicode="&#x11f;" horiz-adv-x="598" 
d="M285 -957q-67 0 -115 26t-74 62q-9 14 -7.5 28t21.5 29q19 14 29.5 12t23.5 -15q31 -33 60 -48.5t66 -15.5q40 0 69 16.5t44.5 53.5t15.5 99v785q-23 -37 -50.5 -57t-55 -27.5t-54.5 -7.5q-57 0 -101 27.5t-69 83.5t-25 141q0 52 9.5 96t28.5 79t46 59t62 37t77 13
q32 0 66.5 -9t65.5 -26v5q0 13 10 19.5t32 6.5t33 -6.5t11 -19.5v-1202q0 -82 -27 -136.5t-76 -81t-116 -26.5zM270 63q29 0 55.5 10.5t50 33.5t42.5 60v236q-31 20 -61 28.5t-62 8.5q-26 0 -48 -8t-40 -24t-30.5 -40t-19 -56t-6.5 -73q0 -55 13 -94.5t39.5 -60.5t66.5 -21z
M295 618q-79 0 -125.5 50.5t-50.5 140.5q-1 12 7 20.5t27 8.5t26 -8t10 -21q9 -45 34.5 -74t71.5 -29q47 0 72 29t34 74q3 14 9.5 21.5t25.5 7.5t28 -8.5t7 -20.5q-2 -57 -25 -100t-62 -67t-89 -24z" />
    <glyph glyph-name="Gdotaccent" unicode="&#x120;" horiz-adv-x="1308" 
d="M664 -19q-119 0 -217 52.5t-168 149.5t-108.5 232.5t-38.5 302.5q0 111 18.5 208.5t53 179t84.5 145.5t112.5 109.5t137 69t158.5 23.5q69 0 133 -17.5t121 -57.5t104 -107q9 -12 5 -21t-16 -20q-14 -12 -24 -14t-20 8q-45 48 -90 80t-96 48t-117 16q-68 0 -129 -20
t-113.5 -58.5t-94.5 -95t-72 -129t-46 -159.5t-16 -188q0 -151 33 -271.5t92 -205.5t139.5 -130t174.5 -45q68 0 128 22t110 67.5t87 117.5t57 171.5t20 229.5h-362q-15 0 -21.5 9t-6.5 31q0 23 6.5 31.5t21.5 8.5h426q15 0 21.5 -8.5t6.5 -31.5q0 -194 -36.5 -333.5
t-103 -228t-157 -130t-197.5 -41.5zM673 1543q-28 0 -42 15.5t-14 46.5q0 32 14 48t42 16q27 0 41 -16t14 -48q1 -31 -13.5 -46.5t-41.5 -15.5z" />
    <glyph glyph-name="gdotaccent" unicode="&#x121;" horiz-adv-x="598" 
d="M285 -957q-67 0 -115 26t-74 62q-9 14 -7.5 28t21.5 29q19 14 29.5 12t23.5 -15q31 -33 60 -48.5t66 -15.5q40 0 69 16.5t44.5 53.5t15.5 99v785q-23 -37 -50.5 -57t-55 -27.5t-54.5 -7.5q-57 0 -101 27.5t-69 83.5t-25 141q0 52 9.5 96t28.5 79t46 59t62 37t77 13
q32 0 66.5 -9t65.5 -26v5q0 13 10 19.5t32 6.5t33 -6.5t11 -19.5v-1202q0 -82 -27 -136.5t-76 -81t-116 -26.5zM270 63q29 0 55.5 10.5t50 33.5t42.5 60v236q-31 20 -61 28.5t-62 8.5q-26 0 -48 -8t-40 -24t-30.5 -40t-19 -56t-6.5 -73q0 -55 13 -94.5t39.5 -60.5t66.5 -21z
M295 669q-28 0 -42 15.5t-14 46.5q0 32 14 48t42 16q27 0 41 -16t14 -48q1 -31 -13.5 -46.5t-41.5 -15.5z" />
    <glyph glyph-name="Gcommaaccent" unicode="&#x122;" horiz-adv-x="1308" 
d="M664 -19q-119 0 -217 52.5t-168 149.5t-108.5 232.5t-38.5 302.5q0 111 18.5 208.5t53 179t84.5 145.5t112.5 109.5t137 69t158.5 23.5q69 0 133 -17.5t121 -57.5t104 -107q9 -12 5 -21t-16 -20q-14 -12 -24 -14t-20 8q-45 48 -90 80t-96 48t-117 16q-68 0 -129 -20
t-113.5 -58.5t-94.5 -95t-72 -129t-46 -159.5t-16 -188q0 -151 33 -271.5t92 -205.5t139.5 -130t174.5 -45q68 0 128 22t110 67.5t87 117.5t57 171.5t20 229.5h-362q-15 0 -21.5 9t-6.5 31q0 23 6.5 31.5t21.5 8.5h426q15 0 21.5 -8.5t6.5 -31.5q0 -194 -36.5 -333.5
t-103 -228t-157 -130t-197.5 -41.5zM595 -312q-12 5 -15 13.5t3 23.5q12 30 18.5 57.5t9 55t2.5 57.5q0 17 9.5 24t28.5 7q23 0 35.5 -11t12.5 -30q0 -25 -8 -58t-21 -65.5t-29 -56.5q-10 -16 -20 -19t-26 2z" />
    <glyph glyph-name="gcommaaccent" unicode="&#x123;" horiz-adv-x="598" 
d="M285 -957q-67 0 -115 26t-74 62q-9 14 -7.5 28t21.5 29q19 14 29.5 12t23.5 -15q31 -33 60 -48.5t66 -15.5q40 0 69 16.5t44.5 53.5t15.5 99v785q-23 -37 -50.5 -57t-55 -27.5t-54.5 -7.5q-57 0 -101 27.5t-69 83.5t-25 141q0 52 9.5 96t28.5 79t46 59t62 37t77 13
q32 0 66.5 -9t65.5 -26v5q0 13 10 19.5t32 6.5t33 -6.5t11 -19.5v-1202q0 -82 -27 -136.5t-76 -81t-116 -26.5zM270 63q29 0 55.5 10.5t50 33.5t42.5 60v236q-31 20 -61 28.5t-62 8.5q-26 0 -48 -8t-40 -24t-30.5 -40t-19 -56t-6.5 -73q0 -55 13 -94.5t39.5 -60.5t66.5 -21z
M346 845q13 -4 15.5 -12.5t-2.5 -23.5q-12 -30 -17.5 -54t-7 -48t-1.5 -54q0 -17 -10 -24.5t-29 -7.5q-22 0 -35 11.5t-13 30.5q0 38 15.5 83.5t38.5 82.5q11 16 20.5 19t25.5 -3z" />
    <glyph glyph-name="Hcircumflex" unicode="&#x124;" horiz-adv-x="1327" 
d="M251 -14q-44 0 -44 28v1412q0 14 11 20.5t33 6.5q44 0 44 -27v-638h737v638q0 14 11 20.5t33 6.5q44 0 44 -27v-1412q0 -14 -11 -21t-33 -7q-44 0 -44 28v694h-737v-694q0 -14 -11 -21t-33 -7zM494 1502q-10 0 -22.5 12t-12.5 22v7t6 9l155 148q7 7 16 13.5t28 6.5
t27.5 -6.5t15.5 -13.5l158 -148q5 -5 5.5 -9t0.5 -7q0 -10 -13 -22t-23 -12q-6 0 -11 3.5t-13 9.5l-147 105l-145 -105q-7 -6 -13 -9.5t-12 -3.5z" />
    <glyph glyph-name="hcircumflex" unicode="&#x125;" horiz-adv-x="651" 
d="M544 -17q-26 0 -45 7t-31 20t-17.5 32.5t-5.5 43.5v240q0 53 -23.5 83t-78.5 30q-21 0 -43 -6t-43 -19t-39 -34t-32 -52v-317q0 -13 -11 -19.5t-32 -6.5q-22 0 -32.5 6.5t-10.5 19.5v1416q0 13 10.5 19.5t32.5 6.5q21 0 32 -6.5t11 -19.5v-1002q15 22 33 39t39.5 29.5
t46 19t50.5 6.5q52 0 91.5 -19t62 -59.5t22.5 -106.5v-238q0 -13 4 -21.5t11.5 -12.5t16.5 -4q11 0 18 3t13.5 8.5t13.5 10.5q8 6 18 3t17 -13q8 -10 9 -19.5t-6 -19.5q-11 -15 -27.5 -26t-35.5 -16.5t-39 -5.5zM-26 1502q-10 0 -22.5 12t-12.5 22v7t6 9l155 148
q7 7 16 13.5t28 6.5t27.5 -6.5t15.5 -13.5l158 -148q5 -5 5.5 -9t0.5 -7q0 -10 -13 -22t-23 -12q-6 0 -11 3.5t-13 9.5l-147 105l-145 -105q-7 -6 -13 -9.5t-12 -3.5z" />
    <glyph glyph-name="Hbar" unicode="&#x126;" horiz-adv-x="1327" 
d="M251 -14q-44 0 -44 28v1412q0 14 11 20.5t33 6.5q44 0 44 -27v-638h737v638q0 14 11 20.5t33 6.5q44 0 44 -27v-1412q0 -14 -11 -21t-33 -7q-44 0 -44 28v694h-737v-694q0 -14 -11 -21t-33 -7zM99 1064q-18 0 -22.5 10t-4.5 27q0 19 4.5 29.5t22.5 10.5h1130
q18 0 23 -10.5t5 -29.5q0 -17 -5 -27t-23 -10h-1130z" />
    <glyph glyph-name="hbar" unicode="&#x127;" horiz-adv-x="651" 
d="M544 -17q-26 0 -45 7t-31 20t-17.5 32.5t-5.5 43.5v240q0 53 -23.5 83t-78.5 30q-21 0 -43 -6t-43 -19t-39 -34t-32 -52v-317q0 -13 -11 -19.5t-32 -6.5q-22 0 -32.5 6.5t-10.5 19.5v1416q0 13 10.5 19.5t32.5 6.5q21 0 32 -6.5t11 -19.5v-1002q15 22 33 39t39.5 29.5
t46 19t50.5 6.5q52 0 91.5 -19t62 -59.5t22.5 -106.5v-238q0 -13 4 -21.5t11.5 -12.5t16.5 -4q11 0 18 3t13.5 8.5t13.5 10.5q8 6 18 3t17 -13q8 -10 9 -19.5t-6 -19.5q-11 -15 -27.5 -26t-35.5 -16.5t-39 -5.5zM29 887q-18 0 -23 11t-5 24q0 14 5 26t23 12h289
q18 0 22.5 -12t4.5 -26q0 -13 -4.5 -24t-22.5 -11h-289z" />
    <glyph glyph-name="Itilde" unicode="&#x128;" horiz-adv-x="505" 
d="M252 -14q-21 0 -32 7t-11 21v1412q0 14 11 20.5t32 6.5q22 0 33 -6.5t11 -20.5v-1412q0 -14 -11 -21t-33 -7zM91 1536q-34 0 -34 27q1 62 27 94.5t77 32.5q32 0 57 -11.5t45 -26t38 -26t35 -11.5q18 0 26.5 16t9.5 39q3 21 34 21q19 0 27.5 -6.5t8.5 -20.5
q-1 -63 -27 -94.5t-78 -31.5q-31 0 -56.5 11.5t-46 26.5t-38.5 26.5t-34 11.5q-18 0 -25.5 -13t-9.5 -38q-1 -13 -10 -20t-26 -7z" />
    <glyph glyph-name="itilde" unicode="&#x129;" horiz-adv-x="304" 
d="M193 -17q-26 0 -45 7t-31 20t-17.5 32.5t-5.5 43.5v403q0 13 10.5 19.5t31.5 6.5q22 0 33 -6.5t11 -19.5v-393q0 -13 4 -21.5t11 -12.5t16 -4q11 0 19 4t15 10t15 12q7 5 15.5 -0.5t17.5 -15.5q5 -7 7 -16t-4 -17q-11 -15 -28 -27t-36.5 -18.5t-38.5 -6.5zM188 648
q-28 0 -46.5 10.5t-31.5 24.5t-24 24.5t-23 10.5q-7 0 -14.5 -13t-9.5 -39q-1 -13 -10 -19.5t-26 -6.5q-34 0 -34 26q1 73 29.5 101t69.5 28q28 0 46 -10.5t30 -24t23.5 -24t26.5 -10.5q8 0 15.5 14.5t9.5 40.5q2 22 34 22q20 0 28 -7t8 -21q-1 -61 -24.5 -94t-76.5 -33z
" />
    <glyph glyph-name="Imacron" unicode="&#x12a;" horiz-adv-x="505" 
d="M252 -14q-21 0 -32 7t-11 21v1412q0 14 11 20.5t32 6.5q22 0 33 -6.5t11 -20.5v-1412q0 -14 -11 -21t-33 -7zM100 1565q-17 0 -22 11.5t-5 29.5q0 19 5 31.5t22 12.5h305q18 0 23 -12.5t5 -31.5q0 -18 -5 -29.5t-23 -11.5h-305z" />
    <glyph glyph-name="imacron" unicode="&#x12b;" horiz-adv-x="304" 
d="M193 -17q-26 0 -45 7t-31 20t-17.5 32.5t-5.5 43.5v403q0 13 10.5 19.5t31.5 6.5q22 0 33 -6.5t11 -19.5v-393q0 -13 4 -21.5t11 -12.5t16 -4q11 0 19 4t15 10t15 12q7 5 15.5 -0.5t17.5 -15.5q5 -7 7 -16t-4 -17q-11 -15 -28 -27t-36.5 -18.5t-38.5 -6.5zM-4 686
q-17 0 -22 12t-5 30q0 19 5 31t22 12h268q18 0 22.5 -12t4.5 -31q0 -18 -4.5 -30t-22.5 -12h-268z" />
    <glyph glyph-name="Ibreve" unicode="&#x12c;" horiz-adv-x="505" 
d="M252 -14q-21 0 -32 7t-11 21v1412q0 14 11 20.5t32 6.5q22 0 33 -6.5t11 -20.5v-1412q0 -14 -11 -21t-33 -7zM252 1504q-86 0 -136 45.5t-57 141.5q-1 13 9 21t29 8q16 0 22 -7.5t10 -21.5q13 -51 41 -75t82 -24q55 0 83 24t40 75q4 14 9.5 21.5t21.5 7.5q19 0 29.5 -8
t9.5 -21q-4 -61 -29.5 -102.5t-67 -63t-96.5 -21.5z" />
    <glyph glyph-name="ibreve" unicode="&#x12d;" horiz-adv-x="304" 
d="M193 -17q-26 0 -45 7t-31 20t-17.5 32.5t-5.5 43.5v403q0 13 10.5 19.5t31.5 6.5q22 0 33 -6.5t11 -19.5v-393q0 -13 4 -21.5t11 -12.5t16 -4q11 0 19 4t15 10t15 12q7 5 15.5 -0.5t17.5 -15.5q5 -7 7 -16t-4 -17q-11 -15 -28 -27t-36.5 -18.5t-38.5 -6.5zM130 618
q-79 0 -125.5 50.5t-50.5 140.5q-1 12 7 20.5t27 8.5t26 -8t10 -21q9 -45 34.5 -74t71.5 -29q47 0 72 29t34 74q3 14 9.5 21.5t25.5 7.5t28 -8.5t7 -20.5q-2 -57 -25 -100t-62 -67t-89 -24z" />
    <glyph glyph-name="Iogonek" unicode="&#x12e;" horiz-adv-x="505" 
d="M252 -14q-21 0 -32 7t-11 21v1412q0 14 11 20.5t32 6.5q22 0 33 -6.5t11 -20.5v-1412q0 -14 -11 -21t-33 -7zM192 -296q-41 0 -72.5 25t-31.5 74q0 29 9.5 56.5t28 54.5t45 53t60.5 52l62 1v-9q-23 -19 -46 -41.5t-41.5 -46t-29.5 -47t-11 -44.5q0 -27 12.5 -39.5
t28.5 -12.5q15 0 29.5 7t33.5 22q7 5 17 5.5t20 -9.5q10 -9 12.5 -22t-2.5 -21q-12 -17 -34 -30.5t-46 -20.5t-44 -7z" />
    <glyph glyph-name="iogonek" unicode="&#x12f;" horiz-adv-x="304" 
d="M193 -17q-26 0 -45 7t-31 20t-17.5 32.5t-5.5 43.5v403q0 13 10.5 19.5t31.5 6.5q22 0 33 -6.5t11 -19.5v-393q0 -13 4 -21.5t11 -12.5t16 -4q11 0 19 4t15 10t15 12q7 5 15.5 -0.5t17.5 -15.5q5 -7 7 -16t-4 -17q-11 -15 -28 -27t-36.5 -18.5t-38.5 -6.5zM130 669
q-28 0 -42 15.5t-14 46.5q0 32 14 48t42 16q27 0 41 -16t14 -48q1 -31 -13.5 -46.5t-41.5 -15.5zM158 -257q-39 0 -67.5 22t-28.5 65q0 27 9 50t26.5 45t43 45t59.5 49l62 1v-9q-23 -19 -44.5 -38t-39 -38t-28 -38t-10.5 -38q0 -21 9.5 -30.5t25.5 -9.5q15 0 27 6t31 21
q7 5 17 5.5t20 -8.5q10 -10 12.5 -23t-2.5 -21q-12 -17 -33.5 -30t-45 -19.5t-43.5 -6.5z" />
    <glyph glyph-name="Idotaccent" unicode="&#x130;" horiz-adv-x="505" 
d="M252 -14q-21 0 -32 7t-11 21v1412q0 14 11 20.5t32 6.5q22 0 33 -6.5t11 -20.5v-1412q0 -14 -11 -21t-33 -7zM252 1543q-28 0 -42 15.5t-14 46.5q0 32 14 48t42 16q27 0 41 -16t14 -48q1 -31 -13.5 -46.5t-41.5 -15.5z" />
    <glyph glyph-name="idotless.mod" unicode="&#x131;" horiz-adv-x="300" 
d="M193 -17q-52 0 -75.5 27t-23.5 76v403q0 13 10.5 19.5t31.5 6.5q22 0 33 -6.5t11 -19.5v-393q0 -20 9 -29t22 -9q11 0 18.5 3.5t14 8.5t14.5 11q6 5 16.5 1t16.5 -12q8 -9 9 -19t-5 -18q-11 -16 -27.5 -27t-36 -17t-38.5 -6z" />
    <glyph glyph-name="IJ.cur" unicode="&#x132;" horiz-adv-x="1159" 
d="M689 -958q-62 0 -107 27t-68.5 76.5t-23.5 117.5q0 91 33.5 178t90.5 168.5t129.5 156t150.5 139.5q51 44 102.5 83.5t99 74t89.5 63.5q20 15 31.5 11t23.5 -21q11 -16 9 -29.5t-17 -24.5q-42 -29 -91.5 -64.5t-102.5 -76.5t-105 -87q-68 -59 -130.5 -125.5t-112 -138.5
t-78.5 -149t-29 -157q0 -64 30.5 -101t84.5 -37q52 0 89.5 34.5t57 98.5t19.5 152v879q-24 -51 -58.5 -89.5t-77 -64t-92.5 -39t-104 -13.5q-79 0 -141 25t-105 74.5t-66 123t-23 169.5v950q0 14 11 20.5t33 6.5t33 -6.5t11 -20.5v-938q0 -106 29 -177t86 -106.5t139 -35.5
q59 0 110 17.5t92.5 51.5t73 82.5t49.5 109.5v996q0 14 11 20.5t33 6.5t33 -6.5t11 -20.5v-2014q0 -87 -18 -155t-52 -116t-83 -73.5t-110 -25.5z" />
    <glyph glyph-name="ij.jmc" unicode="&#x133;" horiz-adv-x="616" 
d="M225 -17q-34 0 -59 9.5t-41 29t-23.5 49t-7.5 69.5v349q0 13 10.5 19.5t31.5 6.5q22 0 33 -6.5t11 -19.5v-349q0 -45 13.5 -63.5t50.5 -18.5q14 0 21 -11.5t5.5 -26t-12.5 -26t-33 -11.5zM138 669q-28 0 -42.5 15.5t-14.5 46.5q0 32 14.5 48t42.5 16q27 0 41 -16t14 -48
q1 -31 -13.5 -46.5t-41.5 -15.5zM225 -17q-14 0 -20.5 11.5t-5 26t12.5 26t32 11.5q33 0 61 11t51 31t40.5 47t29.5 58q6 15 17.5 13.5t20 -11.5t5.5 -21q-15 -48 -38.5 -85.5t-54 -64t-68.5 -40t-83 -13.5zM455 -88q16 17 32.5 33.5t32.5 31t30 26.5t26 20q14 11 26 6.5
t19.5 -16.5t7 -26t-14.5 -24q-12 -9 -28 -23.5t-34 -32.5l-37 -37l-36 -36zM320 -957q-50 0 -86 23.5t-56 69t-20 112.5q0 63 12.5 135t38.5 147t65.5 149t93.5 141q10 15 22 28.5t24 26.5v614q0 13 10.5 19.5t31.5 6.5q22 0 33 -6.5t11 -19.5v-1216q0 -54 -12 -96.5
t-35 -72.5t-56 -45.5t-77 -15.5zM326 -882q22 0 38 11t27.5 31t17 48t5.5 64v489q-7 -9 -14 -18.5t-14 -19.5q-32 -49 -58.5 -107t-44 -121t-27.5 -126t-10 -120q0 -41 9.5 -70.5t28 -45t42.5 -15.5zM456 669q-28 0 -42 15.5t-14 46.5q0 32 14 48t42 16t41.5 -16t13.5 -48
q0 -31 -13.5 -46.5t-41.5 -15.5z" />
    <glyph glyph-name="Jcircumflex" unicode="&#x134;" horiz-adv-x="971" 
d="M432 -19q-90 0 -160 32t-118 95.5t-75 157.5q-6 19 1 30t25 16q19 7 29 1t17 -25q32 -80 70.5 -129t89.5 -71t121 -22q53 0 95.5 15t76 44.5t55.5 73.5t33.5 102.5t11.5 130.5v994q0 14 11 20.5t33 6.5t33 -6.5t11 -20.5v-993q0 -88 -16 -160t-47.5 -126.5t-75.5 -91
t-99.5 -55.5t-121.5 -19zM578 1502q-10 0 -22.5 12t-12.5 22v7t6 9l155 148q7 7 16 13.5t28 6.5t27.5 -6.5t15.5 -13.5l158 -148q5 -5 5.5 -9t0.5 -7q0 -10 -13 -22t-23 -12q-6 0 -11 3.5t-13 9.5l-147 105l-145 -105q-7 -6 -13 -9.5t-12 -3.5z" />
    <glyph glyph-name="jcircumflex" unicode="&#x135;" horiz-adv-x="268" 
d="M49 -957q-46 0 -75.5 21.5t-44.5 52.5q-7 15 0.5 26t20.5 18q19 9 31 6.5t20 -16.5q11 -19 20.5 -26t27.5 -7q24 0 32 19.5t8 48.5v1303q0 13 10.5 19.5t31.5 6.5q22 0 33 -6.5t11 -19.5v-1299q0 -56 -17.5 -88t-46 -45.5t-62.5 -13.5zM-12 610q-10 0 -22.5 12t-12.5 22
q0 3 1 6t5 10l127 159q6 7 15.5 13.5t28.5 6.5t28 -6.5t15 -13.5l128 -159q5 -7 6 -10t1 -6q0 -10 -13 -22t-22 -12q-7 0 -13 3.5t-12 9.5l-118 116l-117 -116q-7 -6 -13 -9.5t-12 -3.5z" />
    <glyph glyph-name="Kcommaaccent" unicode="&#x136;" horiz-adv-x="1028" 
d="M252 -14q-23 0 -34 8t-11 25v1407q0 27 44 27t44 -27v-627l626 645q13 13 24 9.5t24 -17.5q14 -16 15 -26.5t-9 -20.5l-615 -636q112 -151 215 -278t202.5 -231.5t201.5 -189.5q11 -10 13.5 -24.5t-16.5 -33.5q-13 -13 -27 -13t-29 12q-82 67 -165.5 152.5t-164 181
t-155.5 193t-140 189.5v-692q0 -17 -9.5 -25t-33.5 -8zM509 -312q-12 5 -15 13.5t3 23.5q12 30 18.5 57.5t9 55t2.5 57.5q0 17 9.5 24t28.5 7q23 0 35.5 -11t12.5 -30q0 -25 -8 -58t-21 -65.5t-29 -56.5q-10 -16 -20 -19t-26 2z" />
    <glyph glyph-name="kcommaaccent" unicode="&#x137;" horiz-adv-x="564" 
d="M143 -15q-22 0 -32.5 6.5t-10.5 19.5v1416q0 13 10.5 19.5t32.5 6.5q21 0 32 -6.5t11 -19.5v-1099l235 175q15 11 28.5 12.5t28.5 -16.5q10 -11 12 -24.5t-16 -26.5l-220 -167q58 -78 92.5 -122.5t53.5 -66t31.5 -27.5t26.5 -6q11 0 19.5 3.5t17.5 10.5t19 18
q11 11 20 12t22 -7q17 -9 17.5 -22t-7.5 -24q-20 -28 -42 -42.5t-42.5 -19.5t-36.5 -5q-28 0 -52 10.5t-51 37.5t-64.5 75t-91.5 123v-218q0 -13 -11 -19.5t-32 -6.5zM245 -291q-12 5 -15 13t2 23q12 31 18 53t7.5 44.5t1.5 52.5q0 17 9.5 24t28.5 7q23 0 35.5 -11t12.5 -30
q0 -25 -7 -53t-19 -55.5t-28 -51.5q-10 -16 -20 -19t-26 3z" />
    <glyph glyph-name="Lacute" unicode="&#x139;" horiz-adv-x="935" 
d="M251 0q-44 0 -44 40v1386q0 14 11 20.5t33 6.5t33 -6.5t11 -20.5v-1346h575q15 0 21 -8.5t6 -31.5q0 -22 -6 -31t-21 -9h-619zM193 1502q-15 0 -26.5 12t-11.5 23q0 4 1.5 9t7.5 11l170 152q5 5 9.5 8t13.5 3t21.5 -9t21 -21.5t8.5 -24.5q0 -7 -2.5 -12t-12.5 -13
l-181 -129q-6 -4 -10.5 -6.5t-8.5 -2.5z" />
    <glyph glyph-name="lacute" unicode="&#x13a;" horiz-adv-x="306" 
d="M194 -17q-52 0 -75.5 27t-23.5 76v1341q0 13 10.5 19.5t31.5 6.5q22 0 33 -6.5t11 -19.5v-1331q0 -20 9 -29t22 -9q11 0 18.5 3t14.5 8.5t14 10.5q8 6 17 3.5t18 -13.5q5 -7 7.5 -17t-2.5 -18q-11 -17 -28.5 -28.5t-37.5 -17.5t-39 -6zM88 1502q-15 0 -26.5 12t-11.5 23
q0 4 1.5 9t7.5 11l170 152q5 5 9.5 8t13.5 3t21.5 -9t21 -21.5t8.5 -24.5q0 -7 -2.5 -12t-12.5 -13l-181 -129q-6 -4 -10.5 -6.5t-8.5 -2.5z" />
    <glyph glyph-name="Lcommaaccent" unicode="&#x13b;" horiz-adv-x="935" 
d="M251 0q-44 0 -44 40v1386q0 14 11 20.5t33 6.5t33 -6.5t11 -20.5v-1346h575q15 0 21 -8.5t6 -31.5q0 -22 -6 -31t-21 -9h-619zM501 -312q-12 5 -15 13.5t3 23.5q12 30 18.5 57.5t9 55t2.5 57.5q0 17 9.5 24t28.5 7q23 0 35.5 -11t12.5 -30q0 -25 -8 -58t-21 -65.5
t-29 -56.5q-10 -16 -20 -19t-26 2z" />
    <glyph glyph-name="lcommaaccent" unicode="&#x13c;" horiz-adv-x="306" 
d="M194 -17q-52 0 -75.5 27t-23.5 76v1341q0 13 10.5 19.5t31.5 6.5q22 0 33 -6.5t11 -19.5v-1331q0 -20 9 -29t22 -9q11 0 18.5 3t14.5 8.5t14 10.5q8 6 17 3.5t18 -13.5q5 -7 7.5 -17t-2.5 -18q-11 -17 -28.5 -28.5t-37.5 -17.5t-39 -6zM145 -291q-12 5 -15 13t2 23
q12 31 18 53t7.5 44.5t1.5 52.5q0 17 9.5 24t28.5 7q23 0 35.5 -11t12.5 -30q0 -25 -7 -53t-19 -55.5t-28 -51.5q-10 -16 -20 -19t-26 3z" />
    <glyph glyph-name="Lcaron" unicode="&#x13d;" horiz-adv-x="935" 
d="M251 0q-44 0 -44 40v1386q0 14 11 20.5t33 6.5t33 -6.5t11 -20.5v-1346h575q15 0 21 -8.5t6 -31.5q0 -22 -6 -31t-21 -9h-619zM462 1202q-17 6 -23 13t-2 20q7 22 12.5 56t9.5 69.5t5 60.5q0 11 9.5 18t33.5 7q25 0 36 -7t11 -18q-1 -27 -9 -65.5t-19.5 -77t-24.5 -66.5
q-4 -7 -10.5 -12t-28.5 2z" />
    <glyph glyph-name="lcaron" unicode="&#x13e;" horiz-adv-x="306" 
d="M194 -17q-52 0 -75.5 27t-23.5 76v1341q0 13 10.5 19.5t31.5 6.5q22 0 33 -6.5t11 -19.5v-1331q0 -20 9 -29t22 -9q11 0 18.5 3t14.5 8.5t14 10.5q8 6 17 3.5t18 -13.5q5 -7 7.5 -17t-2.5 -18q-11 -17 -28.5 -28.5t-37.5 -17.5t-39 -6zM269 1213q-17 6 -23 13t-2 20
q7 22 12.5 56t9.5 69.5t5 60.5q0 11 9.5 18t33.5 7q25 0 36 -7t11 -18q-1 -27 -9 -65.5t-19.5 -77t-24.5 -66.5q-4 -7 -10.5 -12t-28.5 2z" />
    <glyph glyph-name="Ldot" unicode="&#x13f;" horiz-adv-x="935" 
d="M251 0q-44 0 -44 40v1386q0 14 11 20.5t33 6.5t33 -6.5t11 -20.5v-1346h575q15 0 21 -8.5t6 -31.5q0 -22 -6 -31t-21 -9h-619zM694 670q-28 0 -42 15.5t-14 47.5q0 31 14 47t42 16q27 0 41 -16t14 -47q1 -32 -13.5 -47.5t-41.5 -15.5z" />
    <glyph glyph-name="ldot" unicode="&#x140;" horiz-adv-x="306" 
d="M194 -17q-52 0 -75.5 27t-23.5 76v1341q0 13 10.5 19.5t31.5 6.5q22 0 33 -6.5t11 -19.5v-1331q0 -20 9 -29t22 -9q11 0 18.5 3t14.5 8.5t14 10.5q8 6 17 3.5t18 -13.5q5 -7 7.5 -17t-2.5 -18q-11 -17 -28.5 -28.5t-37.5 -17.5t-39 -6zM302 653q-28 0 -42 15.5t-14 47.5
q0 31 14 47t42 16q27 0 41 -16t14 -47q1 -32 -13.5 -47.5t-41.5 -15.5z" />
    <glyph glyph-name="Lslash" unicode="&#x141;" horiz-adv-x="935" 
d="M251 0q-44 0 -44 40v1386q0 14 11 20.5t33 6.5t33 -6.5t11 -20.5v-1346h575q15 0 21 -8.5t6 -31.5q0 -22 -6 -31t-21 -9h-619zM106 604q-14 -8 -25.5 -3t-22.5 20q-7 13 -7.5 26.5t12.5 20.5l436 248q14 8 23 5t21 -19q23 -31 -1 -45z" />
    <glyph glyph-name="lslash" unicode="&#x142;" horiz-adv-x="306" 
d="M194 -17q-52 0 -75.5 27t-23.5 76v1341q0 13 10.5 19.5t31.5 6.5q22 0 33 -6.5t11 -19.5v-1331q0 -20 9 -29t22 -9q11 0 18.5 3t14.5 8.5t14 10.5q8 6 17 3.5t18 -13.5q5 -7 7.5 -17t-2.5 -18q-11 -17 -28.5 -28.5t-37.5 -17.5t-39 -6zM33 684q-14 -7 -25.5 -3t-19.5 20
q-7 12 -6 25.5t15 20.5l272 134q14 6 23 3.5t17 -15.5q11 -17 10 -29.5t-14 -18.5z" />
    <glyph glyph-name="Nacute" unicode="&#x143;" horiz-adv-x="1327" 
d="M251 -14q-44 0 -44 28v1412q0 14 11 20.5t33 6.5q18 0 30 -6.5t20 -20.5l731 -1243v1243q0 14 11 20.5t33 6.5q44 0 44 -27v-1412q0 -14 -11 -21t-32 -7q-16 0 -25 5t-20 23l-737 1251v-1251q0 -14 -11 -21t-33 -7zM605 1502q-15 0 -26.5 12t-11.5 23q0 4 1.5 9t7.5 11
l170 152q5 5 9.5 8t13.5 3t21.5 -9t21 -21.5t8.5 -24.5q0 -7 -2.5 -12t-12.5 -13l-181 -129q-6 -4 -10.5 -6.5t-8.5 -2.5z" />
    <glyph glyph-name="nacute" unicode="&#x144;" horiz-adv-x="646" 
d="M539 -17q-26 0 -45 7t-31 20t-17.5 32.5t-5.5 43.5v240q0 35 -10.5 60.5t-32.5 39t-59 13.5q-22 0 -44 -6t-43 -19t-39 -35t-32 -54v-314q0 -13 -11 -19.5t-33 -6.5q-21 0 -31.5 6.5t-10.5 19.5v478q0 13 10.5 19.5t31.5 6.5q22 0 33 -6.5t11 -19.5v-65q15 21 33 38.5
t40 30t46 19.5t51 7q52 0 91.5 -19t62 -59.5t22.5 -106.5v-238q0 -13 4 -21.5t11.5 -12.5t16.5 -4t16.5 3t14.5 8.5t14 10.5q8 6 18 2t17 -12q8 -10 8.5 -20t-5.5 -19q-11 -15 -27.5 -26t-35.5 -16.5t-39 -5.5zM282 610q-11 0 -26 12t-15 22q0 3 1 6t5 10l107 164
q5 8 10.5 11.5t13.5 3.5q10 0 23.5 -7.5t24 -18t10.5 -19.5q0 -7 -2.5 -11.5t-9.5 -12.5l-123 -147q-12 -13 -19 -13z" />
    <glyph glyph-name="Ncommaaccent" unicode="&#x145;" horiz-adv-x="1327" 
d="M251 -14q-44 0 -44 28v1412q0 14 11 20.5t33 6.5q18 0 30 -6.5t20 -20.5l731 -1243v1243q0 14 11 20.5t33 6.5q44 0 44 -27v-1412q0 -14 -11 -21t-32 -7q-16 0 -25 5t-20 23l-737 1251v-1251q0 -14 -11 -21t-33 -7zM604 -312q-12 5 -15 13.5t3 23.5q12 30 18.5 57.5t9 55
t2.5 57.5q0 17 9.5 24t28.5 7q23 0 35.5 -11t12.5 -30q0 -25 -8 -58t-21 -65.5t-29 -56.5q-10 -16 -20 -19t-26 2z" />
    <glyph glyph-name="ncommaaccent" unicode="&#x146;" horiz-adv-x="646" 
d="M539 -17q-26 0 -45 7t-31 20t-17.5 32.5t-5.5 43.5v240q0 35 -10.5 60.5t-32.5 39t-59 13.5q-22 0 -44 -6t-43 -19t-39 -35t-32 -54v-314q0 -13 -11 -19.5t-33 -6.5q-21 0 -31.5 6.5t-10.5 19.5v478q0 13 10.5 19.5t31.5 6.5q22 0 33 -6.5t11 -19.5v-65q15 21 33 38.5
t40 30t46 19.5t51 7q52 0 91.5 -19t62 -59.5t22.5 -106.5v-238q0 -13 4 -21.5t11.5 -12.5t16.5 -4t16.5 3t14.5 8.5t14 10.5q8 6 18 2t17 -12q8 -10 8.5 -20t-5.5 -19q-11 -15 -27.5 -26t-35.5 -16.5t-39 -5.5zM268 -291q-12 5 -15 13t2 23q12 31 18 53t7.5 44.5t1.5 52.5
q0 17 9.5 24t28.5 7q23 0 35.5 -11t12.5 -30q0 -25 -7 -53t-19 -55.5t-28 -51.5q-10 -16 -20 -19t-26 3z" />
    <glyph glyph-name="Ncaron" unicode="&#x147;" horiz-adv-x="1327" 
d="M251 -14q-44 0 -44 28v1412q0 14 11 20.5t33 6.5q18 0 30 -6.5t20 -20.5l731 -1243v1243q0 14 11 20.5t33 6.5q44 0 44 -27v-1412q0 -14 -11 -21t-32 -7q-16 0 -25 5t-20 23l-737 1251v-1251q0 -14 -11 -21t-33 -7zM836 1720q9 0 22 -11.5t13 -22.5q0 -2 -0.5 -6
t-5.5 -10l-156 -148q-7 -6 -15.5 -13t-28.5 -7q-19 0 -27 7t-15 13l-158 148q-6 6 -6 10v6q0 11 12.5 22.5t22.5 11.5q6 0 12 -3.5t13 -8.5l146 -106l146 106q8 5 13 8.5t12 3.5z" />
    <glyph glyph-name="ncaron" unicode="&#x148;" horiz-adv-x="646" 
d="M539 -17q-26 0 -45 7t-31 20t-17.5 32.5t-5.5 43.5v240q0 35 -10.5 60.5t-32.5 39t-59 13.5q-22 0 -44 -6t-43 -19t-39 -35t-32 -54v-314q0 -13 -11 -19.5t-33 -6.5q-21 0 -31.5 6.5t-10.5 19.5v478q0 13 10.5 19.5t31.5 6.5q22 0 33 -6.5t11 -19.5v-65q15 21 33 38.5
t40 30t46 19.5t51 7q52 0 91.5 -19t62 -59.5t22.5 -106.5v-238q0 -13 4 -21.5t11.5 -12.5t16.5 -4t16.5 3t14.5 8.5t14 10.5q8 6 18 2t17 -12q8 -10 8.5 -20t-5.5 -19q-11 -15 -27.5 -26t-35.5 -16.5t-39 -5.5zM456 845q9 0 22 -11.5t13 -22.5q0 -2 -1 -5.5t-6 -10.5
l-127 -159q-6 -6 -15 -13t-29 -7q-19 0 -28 7t-14 13l-129 159q-4 7 -5 10.5t-1 5.5q0 11 12.5 22.5t22.5 11.5q6 0 12 -3.5t13 -8.5l117 -117l118 117q6 5 12 8.5t13 3.5z" />
    <glyph glyph-name="Eng" unicode="&#x14a;" horiz-adv-x="1327" 
d="M1120 -199q0 -73 -21 -123t-60.5 -75.5t-96.5 -25.5t-100.5 31t-62.5 81q-7 16 -2.5 28t22.5 22q17 11 29 7.5t22 -19.5q12 -20 25 -36t30.5 -25t39.5 -9q36 0 55 18t26.5 50t7.5 74v212l-739 1254v-1251q0 -14 -11 -21t-33 -7q-44 0 -44 28v1412q0 14 11 20.5t33 6.5
q18 0 30 -6.5t20 -20.5l731 -1243v1243q0 14 11 20.5t33 6.5q44 0 44 -27v-1625z" />
    <glyph glyph-name="eng" unicode="&#x14b;" horiz-adv-x="613" 
d="M526 -109q0 -55 -18 -87t-46.5 -45.5t-62.5 -13.5q-46 0 -77.5 21.5t-46.5 49.5q-7 15 -1 26.5t21 20.5q18 10 29.5 6.5t21.5 -16.5q14 -16 25 -24.5t28 -8.5q24 0 32.5 17.5t8.5 47.5v441q0 35 -10.5 60.5t-32.5 39t-59 13.5q-22 0 -44 -6t-43 -19t-39 -35t-32 -54v-314
q0 -13 -11 -19.5t-33 -6.5q-21 0 -31.5 6.5t-10.5 19.5v478q0 13 10.5 19.5t31.5 6.5q22 0 33 -6.5t11 -19.5v-65q15 21 33 38.5t40 30t46 19.5t51 7q52 0 91.5 -19t62 -59.5t22.5 -106.5v-443z" />
    <glyph glyph-name="Omacron" unicode="&#x14c;" horiz-adv-x="1384" 
d="M694 -19q-128 0 -231.5 52.5t-177 149.5t-113.5 232.5t-40 302.5q0 111 18 208.5t52.5 179t83.5 145.5t111.5 109.5t137 69t159.5 23.5q126 0 228.5 -52.5t176 -149.5t113 -232t39.5 -301q0 -111 -18 -209t-51.5 -180t-82.5 -146t-111 -109.5t-136 -69t-158 -23.5z
M694 66q70 0 131 21t113 60.5t93 96t69 129t43 159.5t15 186q0 147 -33 267t-94 205.5t-146.5 131.5t-190.5 46q-71 0 -133 -21t-114 -60.5t-93 -96t-70 -129t-44 -158.5t-15 -185q0 -148 33.5 -268t95.5 -206t147.5 -132t192.5 -46zM541 1565q-17 0 -22 11.5t-5 29.5
q0 19 5 31.5t22 12.5h305q18 0 23 -12.5t5 -31.5q0 -18 -5 -29.5t-23 -11.5h-305z" />
    <glyph glyph-name="omacron" unicode="&#x14d;" horiz-adv-x="589" 
d="M295 -19q-67 0 -119.5 35t-82.5 95.5t-30 138.5q0 59 17 108t48.5 85t73.5 56t93 20q67 0 119 -34.5t82 -95.5t30 -139q0 -47 -11 -88t-31.5 -74t-49 -57t-64 -37t-75.5 -13zM295 61q33 0 59.5 13t45 38t28.5 60t10 78q0 58 -17 100.5t-49 65.5t-77 23q-33 0 -60 -13
t-45.5 -38t-28.5 -59.5t-10 -78.5q0 -58 17.5 -100.5t49.5 -65.5t77 -23zM161 686q-17 0 -22 12t-5 30q0 19 5 31t22 12h268q18 0 22.5 -12t4.5 -31q0 -18 -4.5 -30t-22.5 -12h-268z" />
    <glyph glyph-name="Obreve" unicode="&#x14e;" horiz-adv-x="1384" 
d="M694 -19q-128 0 -231.5 52.5t-177 149.5t-113.5 232.5t-40 302.5q0 111 18 208.5t52.5 179t83.5 145.5t111.5 109.5t137 69t159.5 23.5q126 0 228.5 -52.5t176 -149.5t113 -232t39.5 -301q0 -111 -18 -209t-51.5 -180t-82.5 -146t-111 -109.5t-136 -69t-158 -23.5z
M694 66q70 0 131 21t113 60.5t93 96t69 129t43 159.5t15 186q0 147 -33 267t-94 205.5t-146.5 131.5t-190.5 46q-71 0 -133 -21t-114 -60.5t-93 -96t-70 -129t-44 -158.5t-15 -185q0 -148 33.5 -268t95.5 -206t147.5 -132t192.5 -46zM693 1504q-86 0 -136 45.5t-57 141.5
q-1 13 9 21t29 8q16 0 22 -7.5t10 -21.5q13 -51 41 -75t82 -24q55 0 83 24t40 75q4 14 9.5 21.5t21.5 7.5q19 0 29.5 -8t9.5 -21q-4 -61 -29.5 -102.5t-67 -63t-96.5 -21.5z" />
    <glyph glyph-name="obreve" unicode="&#x14f;" horiz-adv-x="589" 
d="M295 -19q-67 0 -119.5 35t-82.5 95.5t-30 138.5q0 59 17 108t48.5 85t73.5 56t93 20q67 0 119 -34.5t82 -95.5t30 -139q0 -47 -11 -88t-31.5 -74t-49 -57t-64 -37t-75.5 -13zM295 61q33 0 59.5 13t45 38t28.5 60t10 78q0 58 -17 100.5t-49 65.5t-77 23q-33 0 -60 -13
t-45.5 -38t-28.5 -59.5t-10 -78.5q0 -58 17.5 -100.5t49.5 -65.5t77 -23zM295 618q-79 0 -125.5 50.5t-50.5 140.5q-1 12 7 20.5t27 8.5t26 -8t10 -21q9 -45 34.5 -74t71.5 -29q47 0 72 29t34 74q3 14 9.5 21.5t25.5 7.5t28 -8.5t7 -20.5q-2 -57 -25 -100t-62 -67t-89 -24z
" />
    <glyph glyph-name="Ohungarumlaut" unicode="&#x150;" horiz-adv-x="1384" 
d="M694 -19q-128 0 -231.5 52.5t-177 149.5t-113.5 232.5t-40 302.5q0 111 18 208.5t52.5 179t83.5 145.5t111.5 109.5t137 69t159.5 23.5q126 0 228.5 -52.5t176 -149.5t113 -232t39.5 -301q0 -111 -18 -209t-51.5 -180t-82.5 -146t-111 -109.5t-136 -69t-158 -23.5z
M694 66q70 0 131 21t113 60.5t93 96t69 129t43 159.5t15 186q0 147 -33 267t-94 205.5t-146.5 131.5t-190.5 46q-71 0 -133 -21t-114 -60.5t-93 -96t-70 -129t-44 -158.5t-15 -185q0 -148 33.5 -268t95.5 -206t147.5 -132t192.5 -46zM594 1502q-15 0 -26 12t-11 23
q0 4 1.5 9t8.5 11l144 152q5 5 10.5 8t13.5 3q10 0 21.5 -9t20 -21.5t8.5 -23.5q0 -7 -2 -12.5t-13 -13.5l-156 -129q-6 -4 -11 -6.5t-9 -2.5zM808 1502q-15 0 -26.5 12t-11.5 23q0 4 1.5 9t8.5 11l146 152q5 5 9.5 8t13.5 3q10 0 21.5 -9t20 -21.5t8.5 -23.5q0 -7 -2 -12.5
t-13 -13.5l-156 -129q-7 -4 -11.5 -6.5t-8.5 -2.5z" />
    <glyph glyph-name="ohungarumlaut" unicode="&#x151;" horiz-adv-x="589" 
d="M295 -19q-67 0 -119.5 35t-82.5 95.5t-30 138.5q0 59 17 108t48.5 85t73.5 56t93 20q67 0 119 -34.5t82 -95.5t30 -139q0 -47 -11 -88t-31.5 -74t-49 -57t-64 -37t-75.5 -13zM295 61q33 0 59.5 13t45 38t28.5 60t10 78q0 58 -17 100.5t-49 65.5t-77 23q-33 0 -60 -13
t-45.5 -38t-28.5 -59.5t-10 -78.5q0 -58 17.5 -100.5t49.5 -65.5t77 -23zM205 610q-12 0 -28 8.5t-16 21.5q0 3 0.5 6.5t3.5 8.5l79 165q4 8 9 13.5t16 5.5t25 -5.5t24.5 -14.5t10.5 -20q0 -4 -1.5 -8.5t-6.5 -12.5l-96 -153q-5 -8 -9.5 -11.5t-10.5 -3.5zM373 610
q-13 0 -28.5 8.5t-15.5 21.5q0 3 0.5 6.5t3.5 8.5l86 165q5 8 9.5 13.5t15.5 5.5t25 -5.5t24.5 -14.5t10.5 -20q0 -4 -1.5 -8.5t-6.5 -12.5l-103 -153q-6 -8 -10.5 -11.5t-9.5 -3.5z" />
    <glyph glyph-name="OE.cur" unicode="&#x152;" horiz-adv-x="1979" 
d="M659 -19q-121 0 -219.5 52.5t-169 149.5t-108.5 233t-38 303q0 77 10 152t30.5 145.5t49.5 132.5t68.5 113t86.5 89q19 15 34.5 17t31.5 -20q14 -16 12 -30t-18 -28q-41 -36 -74.5 -81t-59 -98.5t-43 -115t-26 -131t-8.5 -146.5q0 -148 31 -268t89 -206t139 -132t182 -46
q57 0 108 15.5t94.5 45t80.5 72t65.5 97.5t49 121t30.5 142t10 160q0 153 -21.5 272.5t-62 203.5t-98.5 127.5t-130 43.5q-47 0 -86 -15t-72 -46t-61.5 -79t-55.5 -115q-8 -20 -20.5 -23.5t-31.5 3.5q-16 6 -21 18.5t2 34.5q22 73 56.5 129.5t79.5 96.5t99 60.5t116 20.5
q94 0 168 -49.5t126 -144t79.5 -230.5t27.5 -308q0 -95 -13 -181t-37 -160.5t-59 -136.5t-79.5 -110t-98.5 -81.5t-115.5 -51t-129.5 -17.5zM1492 -19q-128 0 -223 49t-147.5 137.5t-52.5 207.5q0 69 23.5 132t66.5 114.5t100.5 87.5t125.5 51q-60 23 -104.5 70t-68.5 114
t-24 147q0 63 17 118t48.5 100t75.5 77t97.5 49.5t113.5 17.5q62 0 118 -17.5t105.5 -50t93.5 -79.5q14 -13 17.5 -29t-13.5 -33q-18 -15 -31.5 -12t-30.5 18q-38 36 -80 62.5t-87.5 41t-95.5 14.5q-55 0 -101.5 -20.5t-81 -57t-53 -87t-18.5 -110.5q0 -92 32 -159.5
t92.5 -103.5t142.5 -36h153q15 0 21 -8.5t6 -31.5q0 -22 -6 -31t-21 -9h-175q-79 0 -145.5 -24.5t-115.5 -69t-76 -105.5t-27 -134q0 -96 41 -166.5t115.5 -109.5t173.5 -39q64 0 125.5 21.5t117 63t102.5 102.5q14 17 27 19.5t28 -11.5q17 -13 19 -26.5t-14 -35.5
q-54 -71 -118.5 -119.5t-137 -73.5t-150.5 -25z" />
    <glyph glyph-name="oe.ful" unicode="&#x153;" horiz-adv-x="841" 
d="M294 -19q-66 0 -118.5 35t-82.5 95.5t-30 138.5q0 47 11 88t32 74t49.5 57t63.5 37t75 13q67 0 118.5 -34.5t81.5 -95.5t30 -139q0 -47 -11 -88t-31.5 -74t-49 -57t-63.5 -37t-75 -13zM297 61q34 0 60.5 13t45 38t28.5 60t10 78q0 58 -17.5 100.5t-49.5 65.5t-77 23
q-34 0 -60.5 -13t-45.5 -38t-29 -59.5t-10 -78.5q0 -58 17.5 -100.5t50 -65.5t77.5 -23zM691 -17q-44 0 -82.5 17t-69.5 47.5t-53.5 71.5t-34.5 89.5t-12 100.5q0 38 8.5 70.5t24.5 58.5t38.5 44t50.5 27.5t61 9.5q46 0 78.5 -17t50.5 -48t18 -74q0 -36 -10.5 -68t-31.5 -60
t-51 -51.5t-68.5 -42t-85.5 -32.5l-14 65q32 10 59 23t48.5 30t36 37t22 42.5t7.5 47.5q0 32 -18 50.5t-50 18.5q-19 0 -34.5 -8t-27 -24t-18 -41t-6.5 -58q0 -52 15 -97t40 -78.5t56.5 -52t63.5 -18.5q18 0 36 7.5t37 22.5t39 37q15 16 27.5 15.5t26.5 -11.5t17 -23t-7 -26
q-25 -38 -58 -60.5t-66.5 -32t-62.5 -9.5z" />
    <glyph glyph-name="Racute" unicode="&#x154;" horiz-adv-x="1037" 
d="M252 -14q-22 0 -33.5 7t-11.5 21v1385q0 14 11.5 21t33.5 7h248q148 0 244.5 -33.5t144.5 -106t48 -190.5q0 -72 -19 -131t-54 -105.5t-83.5 -81t-109 -59t-129 -39t-144.5 -20.5q85 -110 175 -217.5t187 -206t203 -182.5q11 -8 14.5 -24t-16.5 -33q-13 -13 -27 -13.5
t-29 11.5q-112 91 -216.5 198.5t-202.5 223.5t-191 231v-635q0 -14 -11 -21t-32 -7zM295 730q61 1 120 7.5t113 19.5t102.5 33t88 48.5t68.5 66.5t44.5 85.5t15.5 106.5q0 88 -37 143t-113 81t-190 26h-212v-617zM461 1502q-15 0 -26.5 12t-11.5 23q0 4 1.5 9t7.5 11
l170 152q5 5 9.5 8t13.5 3t21.5 -9t21 -21.5t8.5 -24.5q0 -7 -2.5 -12t-12.5 -13l-181 -129q-6 -4 -10.5 -6.5t-8.5 -2.5z" />
    <glyph glyph-name="racute" unicode="&#x155;" horiz-adv-x="445" 
d="M136 -15q-21 0 -31.5 6.5t-10.5 19.5v478q0 13 10.5 19.5t31.5 6.5q22 0 33 -6.5t11 -19.5v-64q15 22 33 39.5t38 29.5t41.5 18.5t43.5 6.5q23 0 44.5 -6t32.5 -14t14 -18t-8 -30q-7 -15 -18 -20t-27 -1q-11 3 -23.5 6t-29.5 3q-20 0 -39.5 -6.5t-38 -20t-34.5 -34.5
t-29 -49v-318q0 -13 -11 -19.5t-33 -6.5zM230 610q-11 0 -26 12t-15 22q0 3 1 6t5 10l107 164q5 8 10.5 11.5t13.5 3.5q10 0 23.5 -7.5t24 -18t10.5 -19.5q0 -7 -2.5 -11.5t-9.5 -12.5l-123 -147q-12 -13 -19 -13z" />
    <glyph glyph-name="Rcommaaccent" unicode="&#x156;" horiz-adv-x="1037" 
d="M252 -14q-22 0 -33.5 7t-11.5 21v1385q0 14 11.5 21t33.5 7h248q148 0 244.5 -33.5t144.5 -106t48 -190.5q0 -72 -19 -131t-54 -105.5t-83.5 -81t-109 -59t-129 -39t-144.5 -20.5q85 -110 175 -217.5t187 -206t203 -182.5q11 -8 14.5 -24t-16.5 -33q-13 -13 -27 -13.5
t-29 11.5q-112 91 -216.5 198.5t-202.5 223.5t-191 231v-635q0 -14 -11 -21t-32 -7zM295 730q61 1 120 7.5t113 19.5t102.5 33t88 48.5t68.5 66.5t44.5 85.5t15.5 106.5q0 88 -37 143t-113 81t-190 26h-212v-617zM515 -312q-12 5 -15 13.5t3 23.5q12 30 18.5 57.5t9 55
t2.5 57.5q0 17 9.5 24t28.5 7q23 0 35.5 -11t12.5 -30q0 -25 -8 -58t-21 -65.5t-29 -56.5q-10 -16 -20 -19t-26 2z" />
    <glyph glyph-name="rcommaaccent" unicode="&#x157;" horiz-adv-x="445" 
d="M136 -15q-21 0 -31.5 6.5t-10.5 19.5v478q0 13 10.5 19.5t31.5 6.5q22 0 33 -6.5t11 -19.5v-64q15 22 33 39.5t38 29.5t41.5 18.5t43.5 6.5q23 0 44.5 -6t32.5 -14t14 -18t-8 -30q-7 -15 -18 -20t-27 -1q-11 3 -23.5 6t-29.5 3q-20 0 -39.5 -6.5t-38 -20t-34.5 -34.5
t-29 -49v-318q0 -13 -11 -19.5t-33 -6.5zM74 -291q-12 5 -15 13t2 23q12 31 18 53t7.5 44.5t1.5 52.5q0 17 9.5 24t28.5 7q23 0 35.5 -11t12.5 -30q0 -25 -7 -53t-19 -55.5t-28 -51.5q-10 -16 -20 -19t-26 3z" />
    <glyph glyph-name="Rcaron" unicode="&#x158;" horiz-adv-x="1037" 
d="M252 -14q-22 0 -33.5 7t-11.5 21v1385q0 14 11.5 21t33.5 7h248q148 0 244.5 -33.5t144.5 -106t48 -190.5q0 -72 -19 -131t-54 -105.5t-83.5 -81t-109 -59t-129 -39t-144.5 -20.5q85 -110 175 -217.5t187 -206t203 -182.5q11 -8 14.5 -24t-16.5 -33q-13 -13 -27 -13.5
t-29 11.5q-112 91 -216.5 198.5t-202.5 223.5t-191 231v-635q0 -14 -11 -21t-32 -7zM295 730q61 1 120 7.5t113 19.5t102.5 33t88 48.5t68.5 66.5t44.5 85.5t15.5 106.5q0 88 -37 143t-113 81t-190 26h-212v-617zM692 1720q9 0 22 -11.5t13 -22.5q0 -2 -0.5 -6t-5.5 -10
l-156 -148q-7 -6 -15.5 -13t-28.5 -7q-19 0 -27 7t-15 13l-158 148q-6 6 -6 10v6q0 11 12.5 22.5t22.5 11.5q6 0 12 -3.5t13 -8.5l146 -106l146 106q8 5 13 8.5t12 3.5z" />
    <glyph glyph-name="rcaron" unicode="&#x159;" horiz-adv-x="445" 
d="M136 -15q-21 0 -31.5 6.5t-10.5 19.5v478q0 13 10.5 19.5t31.5 6.5q22 0 33 -6.5t11 -19.5v-64q15 22 33 39.5t38 29.5t41.5 18.5t43.5 6.5q23 0 44.5 -6t32.5 -14t14 -18t-8 -30q-7 -15 -18 -20t-27 -1q-11 3 -23.5 6t-29.5 3q-20 0 -39.5 -6.5t-38 -20t-34.5 -34.5
t-29 -49v-318q0 -13 -11 -19.5t-33 -6.5zM404 845q9 0 22 -11.5t13 -22.5q0 -2 -1 -5.5t-6 -10.5l-127 -159q-6 -6 -15 -13t-29 -7q-19 0 -28 7t-14 13l-129 159q-4 7 -5 10.5t-1 5.5q0 11 12.5 22.5t22.5 11.5q6 0 12 -3.5t13 -8.5l117 -117l118 117q6 5 12 8.5t13 3.5z
" />
    <glyph glyph-name="Sacute" unicode="&#x15a;" horiz-adv-x="1029" 
d="M495 -19q-48 0 -99.5 10t-101 30.5t-94 54.5t-80.5 81q-7 11 -6.5 20t14.5 23q14 15 23.5 16.5t28.5 -15.5q41 -41 87.5 -71.5t102.5 -47t125 -16.5q77 0 138 21.5t103.5 62.5t64.5 98.5t22 130.5q0 67 -22 115t-62.5 82.5t-94 61t-116.5 49.5q-53 21 -105 45t-99 55.5
t-83 74.5t-56.5 101.5t-20.5 137.5q0 83 28 148.5t78.5 110.5t117.5 69t144 24q79 0 141.5 -23t114.5 -60.5t101 -81.5q11 -10 9 -20.5t-12 -21.5q-13 -13 -24.5 -18.5t-22.5 3.5q-50 43 -99 73.5t-100 47t-108 16.5q-64 0 -114.5 -18.5t-86.5 -53t-55 -84t-19 -111.5
q0 -78 25 -130.5t68 -88t97 -61t113 -47.5q63 -24 126 -54.5t115 -75t83.5 -109t31.5 -156.5q0 -90 -29.5 -163.5t-85 -126t-133 -80.5t-173.5 -28zM477 1502q-15 0 -26.5 12t-11.5 23q0 4 1.5 9t7.5 11l170 152q5 5 9.5 8t13.5 3t21.5 -9t21 -21.5t8.5 -24.5q0 -7 -2.5 -12
t-12.5 -13l-181 -129q-6 -4 -10.5 -6.5t-8.5 -2.5z" />
    <glyph glyph-name="sacute" unicode="&#x15b;" horiz-adv-x="486" 
d="M244 -19q-40 0 -75 11t-62 27.5t-43 33.5q-7 8 -6.5 19.5t13.5 25.5q11 11 20 13t20 -6q37 -28 70.5 -41.5t64.5 -13.5q30 0 53 9.5t36.5 28.5t13.5 45q0 32 -19 49.5t-48.5 27t-62.5 19t-62.5 25t-48.5 43.5t-19 76q0 42 21.5 75t60 52t88.5 19q40 0 71.5 -8.5t55 -22
t38.5 -29.5q11 -11 9.5 -21.5t-12.5 -22.5q-11 -13 -21.5 -14.5t-23.5 7.5q-28 20 -56 31t-62 11q-36 0 -59.5 -17.5t-23.5 -49.5q0 -30 18.5 -46.5t48 -27t63 -20.5t63 -26t48 -43.5t18.5 -73.5q0 -43 -20.5 -81t-62.5 -61t-107 -23zM229 610q-11 0 -26 12t-15 22q0 3 1 6
t5 10l107 164q5 8 10.5 11.5t13.5 3.5q10 0 23.5 -7.5t24 -18t10.5 -19.5q0 -7 -2.5 -11.5t-9.5 -12.5l-123 -147q-12 -13 -19 -13z" />
    <glyph glyph-name="Scircumflex" unicode="&#x15c;" horiz-adv-x="1029" 
d="M495 -19q-48 0 -99.5 10t-101 30.5t-94 54.5t-80.5 81q-7 11 -6.5 20t14.5 23q14 15 23.5 16.5t28.5 -15.5q41 -41 87.5 -71.5t102.5 -47t125 -16.5q77 0 138 21.5t103.5 62.5t64.5 98.5t22 130.5q0 67 -22 115t-62.5 82.5t-94 61t-116.5 49.5q-53 21 -105 45t-99 55.5
t-83 74.5t-56.5 101.5t-20.5 137.5q0 83 28 148.5t78.5 110.5t117.5 69t144 24q79 0 141.5 -23t114.5 -60.5t101 -81.5q11 -10 9 -20.5t-12 -21.5q-13 -13 -24.5 -18.5t-22.5 3.5q-50 43 -99 73.5t-100 47t-108 16.5q-64 0 -114.5 -18.5t-86.5 -53t-55 -84t-19 -111.5
q0 -78 25 -130.5t68 -88t97 -61t113 -47.5q63 -24 126 -54.5t115 -75t83.5 -109t31.5 -156.5q0 -90 -29.5 -163.5t-85 -126t-133 -80.5t-173.5 -28zM366 1502q-10 0 -22.5 12t-12.5 22v7t6 9l155 148q7 7 16 13.5t28 6.5t27.5 -6.5t15.5 -13.5l158 -148q5 -5 5.5 -9t0.5 -7
q0 -10 -13 -22t-23 -12q-6 0 -11 3.5t-13 9.5l-147 105l-145 -105q-7 -6 -13 -9.5t-12 -3.5z" />
    <glyph glyph-name="scircumflex" unicode="&#x15d;" horiz-adv-x="486" 
d="M244 -19q-40 0 -75 11t-62 27.5t-43 33.5q-7 8 -6.5 19.5t13.5 25.5q11 11 20 13t20 -6q37 -28 70.5 -41.5t64.5 -13.5q30 0 53 9.5t36.5 28.5t13.5 45q0 32 -19 49.5t-48.5 27t-62.5 19t-62.5 25t-48.5 43.5t-19 76q0 42 21.5 75t60 52t88.5 19q40 0 71.5 -8.5t55 -22
t38.5 -29.5q11 -11 9.5 -21.5t-12.5 -22.5q-11 -13 -21.5 -14.5t-23.5 7.5q-28 20 -56 31t-62 11q-36 0 -59.5 -17.5t-23.5 -49.5q0 -30 18.5 -46.5t48 -27t63 -20.5t63 -26t48 -43.5t18.5 -73.5q0 -43 -20.5 -81t-62.5 -61t-107 -23zM118 610q-10 0 -22.5 12t-12.5 22
q0 3 1 6t5 10l127 159q6 7 15.5 13.5t28.5 6.5t28 -6.5t15 -13.5l128 -159q5 -7 6 -10t1 -6q0 -10 -13 -22t-22 -12q-7 0 -13 3.5t-12 9.5l-118 116l-117 -116q-7 -6 -13 -9.5t-12 -3.5z" />
    <glyph glyph-name="Scedilla" unicode="&#x15e;" horiz-adv-x="1029" 
d="M495 -19q-48 0 -99.5 10t-101 30.5t-94 54.5t-80.5 81q-7 11 -6.5 20t14.5 23q14 15 23.5 16.5t28.5 -15.5q41 -41 87.5 -71.5t102.5 -47t125 -16.5q77 0 138 21.5t103.5 62.5t64.5 98.5t22 130.5q0 67 -22 115t-62.5 82.5t-94 61t-116.5 49.5q-53 21 -105 45t-99 55.5
t-83 74.5t-56.5 101.5t-20.5 137.5q0 83 28 148.5t78.5 110.5t117.5 69t144 24q79 0 141.5 -23t114.5 -60.5t101 -81.5q11 -10 9 -20.5t-12 -21.5q-13 -13 -24.5 -18.5t-22.5 3.5q-50 43 -99 73.5t-100 47t-108 16.5q-64 0 -114.5 -18.5t-86.5 -53t-55 -84t-19 -111.5
q0 -78 25 -130.5t68 -88t97 -61t113 -47.5q63 -24 126 -54.5t115 -75t83.5 -109t31.5 -156.5q0 -90 -29.5 -163.5t-85 -126t-133 -80.5t-173.5 -28zM504 -283q-21 0 -54 6.5t-60 22.5q-11 7 -12.5 18.5t3.5 22.5q7 14 16 18t22 -1q11 -5 31 -11.5t46 -6.5q32 0 47 8.5
t15 32.5q0 20 -18 32t-62 6q-11 -1 -17.5 1t-11.5 9q-6 7 -6.5 14t2.5 14l45 110h66l-50 -118l-30 16q45 17 81.5 11t58 -31t21.5 -64q0 -35 -15.5 -60t-45 -37.5t-72.5 -12.5z" />
    <glyph glyph-name="scedilla" unicode="&#x15f;" horiz-adv-x="486" 
d="M244 -19q-40 0 -75 11t-62 27.5t-43 33.5q-7 8 -6.5 19.5t13.5 25.5q11 11 20 13t20 -6q37 -28 70.5 -41.5t64.5 -13.5q30 0 53 9.5t36.5 28.5t13.5 45q0 32 -19 49.5t-48.5 27t-62.5 19t-62.5 25t-48.5 43.5t-19 76q0 42 21.5 75t60 52t88.5 19q40 0 71.5 -8.5t55 -22
t38.5 -29.5q11 -11 9.5 -21.5t-12.5 -22.5q-11 -13 -21.5 -14.5t-23.5 7.5q-28 20 -56 31t-62 11q-36 0 -59.5 -17.5t-23.5 -49.5q0 -30 18.5 -46.5t48 -27t63 -20.5t63 -26t48 -43.5t18.5 -73.5q0 -43 -20.5 -81t-62.5 -61t-107 -23zM236 -269q-16 0 -48 5.5t-59 22.5
q-11 7 -12.5 18.5t3.5 22.5q7 14 16 18t22 -2q11 -4 30 -10t41 -6q31 0 43.5 7.5t12.5 26.5q0 15 -15.5 26t-59.5 5q-11 -1 -17 1t-12 9q-5 7 -5.5 14t2.5 14l50 110h70l-59 -118l-30 16q45 17 80 11t55 -29t20 -59q0 -32 -14.5 -55t-42.5 -35.5t-71 -12.5z" />
    <glyph glyph-name="Scaron" unicode="&#x160;" horiz-adv-x="1029" 
d="M495 -19q-48 0 -99.5 10t-101 30.5t-94 54.5t-80.5 81q-7 11 -6.5 20t14.5 23q14 15 23.5 16.5t28.5 -15.5q41 -41 87.5 -71.5t102.5 -47t125 -16.5q77 0 138 21.5t103.5 62.5t64.5 98.5t22 130.5q0 67 -22 115t-62.5 82.5t-94 61t-116.5 49.5q-53 21 -105 45t-99 55.5
t-83 74.5t-56.5 101.5t-20.5 137.5q0 83 28 148.5t78.5 110.5t117.5 69t144 24q79 0 141.5 -23t114.5 -60.5t101 -81.5q11 -10 9 -20.5t-12 -21.5q-13 -13 -24.5 -18.5t-22.5 3.5q-50 43 -99 73.5t-100 47t-108 16.5q-64 0 -114.5 -18.5t-86.5 -53t-55 -84t-19 -111.5
q0 -78 25 -130.5t68 -88t97 -61t113 -47.5q63 -24 126 -54.5t115 -75t83.5 -109t31.5 -156.5q0 -90 -29.5 -163.5t-85 -126t-133 -80.5t-173.5 -28zM708 1720q9 0 22 -11.5t13 -22.5q0 -2 -0.5 -6t-5.5 -10l-156 -148q-7 -6 -15.5 -13t-28.5 -7q-19 0 -27 7t-15 13l-158 148
q-6 6 -6 10v6q0 11 12.5 22.5t22.5 11.5q6 0 12 -3.5t13 -8.5l146 -106l146 106q8 5 13 8.5t12 3.5z" />
    <glyph glyph-name="scaron" unicode="&#x161;" horiz-adv-x="486" 
d="M244 -19q-40 0 -75 11t-62 27.5t-43 33.5q-7 8 -6.5 19.5t13.5 25.5q11 11 20 13t20 -6q37 -28 70.5 -41.5t64.5 -13.5q30 0 53 9.5t36.5 28.5t13.5 45q0 32 -19 49.5t-48.5 27t-62.5 19t-62.5 25t-48.5 43.5t-19 76q0 42 21.5 75t60 52t88.5 19q40 0 71.5 -8.5t55 -22
t38.5 -29.5q11 -11 9.5 -21.5t-12.5 -22.5q-11 -13 -21.5 -14.5t-23.5 7.5q-28 20 -56 31t-62 11q-36 0 -59.5 -17.5t-23.5 -49.5q0 -30 18.5 -46.5t48 -27t63 -20.5t63 -26t48 -43.5t18.5 -73.5q0 -43 -20.5 -81t-62.5 -61t-107 -23zM403 845q9 0 22 -11.5t13 -22.5
q0 -2 -1 -5.5t-6 -10.5l-127 -159q-6 -6 -15 -13t-29 -7q-19 0 -28 7t-14 13l-129 159q-4 7 -5 10.5t-1 5.5q0 11 12.5 22.5t22.5 11.5q6 0 12 -3.5t13 -8.5l117 -117l118 117q6 5 12 8.5t13 3.5z" />
    <glyph glyph-name="Tcedilla" unicode="&#x162;" horiz-adv-x="1032" 
d="M516 -15q-44 0 -44 28v1334h-411q-15 0 -21.5 9t-6.5 31q0 23 6.5 31.5t21.5 8.5h911q15 0 21 -8.5t6 -31.5q0 -22 -6 -31t-21 -9h-412v-1334q0 -14 -11 -21t-33 -7zM501 -283q-21 0 -54 6.5t-60 22.5q-11 7 -12.5 18.5t3.5 22.5q7 14 16 18t22 -1q11 -5 31 -11.5
t46 -6.5q32 0 47 8.5t15 32.5q0 20 -18 32t-62 6q-11 -1 -17.5 1t-11.5 9q-6 7 -6.5 14t2.5 14l45 110h66l-50 -118l-30 16q45 17 81.5 11t58 -31t21.5 -64q0 -35 -15.5 -60t-45 -37.5t-72.5 -12.5z" />
    <glyph glyph-name="tcedilla" unicode="&#x163;" horiz-adv-x="388" 
d="M243 -17q-42 0 -69.5 15.5t-41 44t-13.5 68.5v309h-78q-15 0 -21 9t-6 31q0 23 6 31.5t21 8.5h78v204q0 13 10.5 19.5t31.5 6.5q22 0 33 -6.5t11 -19.5v-204h126q15 0 21.5 -8.5t6.5 -31.5q0 -22 -6.5 -31t-21.5 -9h-126v-299q0 -34 9.5 -48.5t34.5 -14.5q23 0 39.5 11
t34.5 27q12 11 22.5 7.5t19.5 -12.5q11 -10 11.5 -20.5t-5.5 -19.5q-17 -25 -38 -40t-44 -21.5t-46 -6.5zM236 -269q-16 0 -48 5.5t-59 22.5q-11 7 -12.5 18.5t3.5 22.5q7 14 16 18t22 -2q11 -4 30 -10t41 -6q31 0 43.5 7.5t12.5 26.5q0 15 -15.5 26t-59.5 5q-11 -1 -17 1
t-12 9q-5 7 -5.5 14t2.5 14l50 110h70l-59 -118l-30 16q45 17 80 11t55 -29t20 -59q0 -32 -14.5 -55t-42.5 -35.5t-71 -12.5z" />
    <glyph glyph-name="Tcaron" unicode="&#x164;" horiz-adv-x="1032" 
d="M516 -15q-44 0 -44 28v1334h-411q-15 0 -21.5 9t-6.5 31q0 23 6.5 31.5t21.5 8.5h911q15 0 21 -8.5t6 -31.5q0 -22 -6 -31t-21 -9h-412v-1334q0 -14 -11 -21t-33 -7zM688 1720q9 0 22 -11.5t13 -22.5q0 -2 -0.5 -6t-5.5 -10l-156 -148q-7 -6 -15.5 -13t-28.5 -7
q-19 0 -27 7t-15 13l-158 148q-6 6 -6 10v6q0 11 12.5 22.5t22.5 11.5q6 0 12 -3.5t13 -8.5l146 -106l146 106q8 5 13 8.5t12 3.5z" />
    <glyph glyph-name="tcaron" unicode="&#x165;" horiz-adv-x="388" 
d="M243 -17q-42 0 -69.5 15.5t-41 44t-13.5 68.5v309h-78q-15 0 -21 9t-6 31q0 23 6 31.5t21 8.5h78v204q0 13 10.5 19.5t31.5 6.5q22 0 33 -6.5t11 -19.5v-204h126q15 0 21.5 -8.5t6.5 -31.5q0 -22 -6.5 -31t-21.5 -9h-126v-299q0 -34 9.5 -48.5t34.5 -14.5q23 0 39.5 11
t34.5 27q12 11 22.5 7.5t19.5 -12.5q11 -10 11.5 -20.5t-5.5 -19.5q-17 -25 -38 -40t-44 -21.5t-46 -6.5zM403 796q17 0 25 -10t3 -24l-62 -172q-4 -10 -11 -15t-18 -5q-10 0 -18.5 6t-11.5 14l-62 170q-6 17 2.5 26.5t25.5 9.5q12 0 18 -4.5t9 -12.5l37 -114l34 110
q4 11 11 16t18 5z" />
    <glyph glyph-name="Tbar" unicode="&#x166;" horiz-adv-x="1032" 
d="M516 -15q-44 0 -44 28v1334h-411q-15 0 -21.5 9t-6.5 31q0 23 6.5 31.5t21.5 8.5h911q15 0 21 -8.5t6 -31.5q0 -22 -6 -31t-21 -9h-412v-1334q0 -14 -11 -21t-33 -7zM266 677q-18 0 -23 11t-5 24q0 14 5 26t23 12h501q17 0 22 -12t5 -26q0 -13 -5 -24t-22 -11h-501z" />
    <glyph glyph-name="tbar" unicode="&#x167;" horiz-adv-x="388" 
d="M243 -17q-42 0 -69.5 15.5t-41 44t-13.5 68.5v309h-78q-15 0 -21 9t-6 31q0 23 6 31.5t21 8.5h78v204q0 13 10.5 19.5t31.5 6.5q22 0 33 -6.5t11 -19.5v-204h126q15 0 21.5 -8.5t6.5 -31.5q0 -22 -6.5 -31t-21.5 -9h-126v-299q0 -34 9.5 -48.5t34.5 -14.5q23 0 39.5 11
t34.5 27q12 11 22.5 7.5t19.5 -12.5q11 -10 11.5 -20.5t-5.5 -19.5q-17 -25 -38 -40t-44 -21.5t-46 -6.5zM43 257q-18 0 -23 11t-5 24q0 14 5 26t23 12h286q18 0 22.5 -12t4.5 -26q0 -13 -4.5 -24t-22.5 -11h-286z" />
    <glyph glyph-name="Utilde" unicode="&#x168;" horiz-adv-x="1289" 
d="M647 -19q-109 0 -193.5 30t-141.5 89t-86 145.5t-29 199.5v981q0 14 11 20.5t33 6.5t33 -6.5t11 -20.5v-981q0 -123 40 -207.5t120.5 -128t202.5 -43.5q120 0 199.5 43.5t118.5 128t39 207.5v981q0 14 11 20.5t32 6.5q44 0 44 -27v-981q0 -150 -51 -254t-150 -157
t-244 -53zM484 1536q-34 0 -34 27q1 62 27 94.5t77 32.5q32 0 57 -11.5t45 -26t38 -26t35 -11.5q18 0 26.5 16t9.5 39q3 21 34 21q19 0 27.5 -6.5t8.5 -20.5q-1 -63 -27 -94.5t-78 -31.5q-31 0 -56.5 11.5t-46 26.5t-38.5 26.5t-34 11.5q-18 0 -25.5 -13t-9.5 -38
q-1 -13 -10 -20t-26 -7z" />
    <glyph glyph-name="utilde" unicode="&#x169;" horiz-adv-x="645" 
d="M269 -17q-58 0 -97 20.5t-58.5 61t-19.5 101.5v323q0 13 10.5 19.5t31.5 6.5q22 0 33 -6.5t11 -19.5v-323q0 -35 11 -59t33.5 -36t55.5 -12q28 0 52 9t43.5 24.5t34.5 37.5t25 47v312q0 13 10.5 19.5t32.5 6.5q21 0 32 -6.5t11 -19.5v-393q0 -14 4 -23t11.5 -13t16.5 -4
t16.5 3.5t15 9.5t14.5 11q8 6 17.5 3t17.5 -14q5 -7 7 -17t-5 -19q-10 -15 -26 -26.5t-35 -18.5t-39 -7q-24 0 -41.5 6.5t-29.5 18.5t-19 28t-9 35l-1 9q-14 -22 -31.5 -39.5t-38.5 -30t-45.5 -19t-51.5 -6.5zM152 640q-34 0 -34 26q1 73 30 104t75 31q30 0 52.5 -11.5
t40.5 -26t34 -26t32 -11.5q13 0 21.5 14.5t9.5 40.5q2 22 34 22q20 0 28 -7t8 -21q-1 -61 -25.5 -97.5t-81.5 -36.5q-29 0 -52 11.5t-41.5 27t-34 27t-30.5 11.5q-12 0 -20 -13t-10 -39q-1 -13 -10 -19.5t-26 -6.5z" />
    <glyph glyph-name="Umacron" unicode="&#x16a;" horiz-adv-x="1289" 
d="M647 -19q-109 0 -193.5 30t-141.5 89t-86 145.5t-29 199.5v981q0 14 11 20.5t33 6.5t33 -6.5t11 -20.5v-981q0 -123 40 -207.5t120.5 -128t202.5 -43.5q120 0 199.5 43.5t118.5 128t39 207.5v981q0 14 11 20.5t32 6.5q44 0 44 -27v-981q0 -150 -51 -254t-150 -157
t-244 -53zM493 1565q-17 0 -22 11.5t-5 29.5q0 19 5 31.5t22 12.5h305q18 0 23 -12.5t5 -31.5q0 -18 -5 -29.5t-23 -11.5h-305z" />
    <glyph glyph-name="umacron" unicode="&#x16b;" horiz-adv-x="645" 
d="M269 -17q-58 0 -97 20.5t-58.5 61t-19.5 101.5v323q0 13 10.5 19.5t31.5 6.5q22 0 33 -6.5t11 -19.5v-323q0 -35 11 -59t33.5 -36t55.5 -12q28 0 52 9t43.5 24.5t34.5 37.5t25 47v312q0 13 10.5 19.5t32.5 6.5q21 0 32 -6.5t11 -19.5v-393q0 -14 4 -23t11.5 -13t16.5 -4
t16.5 3.5t15 9.5t14.5 11q8 6 17.5 3t17.5 -14q5 -7 7 -17t-5 -19q-10 -15 -26 -26.5t-35 -18.5t-39 -7q-24 0 -41.5 6.5t-29.5 18.5t-19 28t-9 35l-1 9q-14 -22 -31.5 -39.5t-38.5 -30t-45.5 -19t-51.5 -6.5zM169 686q-17 0 -22 12t-5 30q0 19 5 31t22 12h268
q18 0 22.5 -12t4.5 -31q0 -18 -4.5 -30t-22.5 -12h-268z" />
    <glyph glyph-name="Ubreve" unicode="&#x16c;" horiz-adv-x="1289" 
d="M647 -19q-109 0 -193.5 30t-141.5 89t-86 145.5t-29 199.5v981q0 14 11 20.5t33 6.5t33 -6.5t11 -20.5v-981q0 -123 40 -207.5t120.5 -128t202.5 -43.5q120 0 199.5 43.5t118.5 128t39 207.5v981q0 14 11 20.5t32 6.5q44 0 44 -27v-981q0 -150 -51 -254t-150 -157
t-244 -53zM645 1504q-86 0 -136 45.5t-57 141.5q-1 13 9 21t29 8q16 0 22 -7.5t10 -21.5q13 -51 41 -75t82 -24q55 0 83 24t40 75q4 14 9.5 21.5t21.5 7.5q19 0 29.5 -8t9.5 -21q-4 -61 -29.5 -102.5t-67 -63t-96.5 -21.5z" />
    <glyph glyph-name="ubreve" unicode="&#x16d;" horiz-adv-x="645" 
d="M269 -17q-58 0 -97 20.5t-58.5 61t-19.5 101.5v323q0 13 10.5 19.5t31.5 6.5q22 0 33 -6.5t11 -19.5v-323q0 -35 11 -59t33.5 -36t55.5 -12q28 0 52 9t43.5 24.5t34.5 37.5t25 47v312q0 13 10.5 19.5t32.5 6.5q21 0 32 -6.5t11 -19.5v-393q0 -14 4 -23t11.5 -13t16.5 -4
t16.5 3.5t15 9.5t14.5 11q8 6 17.5 3t17.5 -14q5 -7 7 -17t-5 -19q-10 -15 -26 -26.5t-35 -18.5t-39 -7q-24 0 -41.5 6.5t-29.5 18.5t-19 28t-9 35l-1 9q-14 -22 -31.5 -39.5t-38.5 -30t-45.5 -19t-51.5 -6.5zM303 618q-79 0 -125.5 50.5t-50.5 140.5q-1 12 7 20.5t27 8.5
t26 -8t10 -21q9 -45 34.5 -74t71.5 -29q47 0 72 29t34 74q3 14 9.5 21.5t25.5 7.5t28 -8.5t7 -20.5q-2 -57 -25 -100t-62 -67t-89 -24z" />
    <glyph glyph-name="Uring" unicode="&#x16e;" horiz-adv-x="1289" 
d="M647 -19q-109 0 -193.5 30t-141.5 89t-86 145.5t-29 199.5v981q0 14 11 20.5t33 6.5t33 -6.5t11 -20.5v-981q0 -123 40 -207.5t120.5 -128t202.5 -43.5q120 0 199.5 43.5t118.5 128t39 207.5v981q0 14 11 20.5t32 6.5q44 0 44 -27v-981q0 -150 -51 -254t-150 -157
t-244 -53zM645 1496q-43 0 -74.5 16t-49.5 43.5t-18 62.5q0 36 18 63.5t49.5 43t74.5 15.5q45 0 77 -15.5t49.5 -43t17.5 -62.5q0 -36 -17.5 -63.5t-49.5 -43.5t-77 -16zM645 1557q35 0 53 18t18 43q0 26 -18 43.5t-53 17.5q-34 0 -51.5 -17.5t-17.5 -43.5q0 -25 17.5 -43
t51.5 -18z" />
    <glyph glyph-name="uring" unicode="&#x16f;" horiz-adv-x="645" 
d="M269 -17q-58 0 -97 20.5t-58.5 61t-19.5 101.5v323q0 13 10.5 19.5t31.5 6.5q22 0 33 -6.5t11 -19.5v-323q0 -35 11 -59t33.5 -36t55.5 -12q28 0 52 9t43.5 24.5t34.5 37.5t25 47v312q0 13 10.5 19.5t32.5 6.5q21 0 32 -6.5t11 -19.5v-393q0 -14 4 -23t11.5 -13t16.5 -4
t16.5 3.5t15 9.5t14.5 11q8 6 17.5 3t17.5 -14q5 -7 7 -17t-5 -19q-10 -15 -26 -26.5t-35 -18.5t-39 -7q-24 0 -41.5 6.5t-29.5 18.5t-19 28t-9 35l-1 9q-14 -22 -31.5 -39.5t-38.5 -30t-45.5 -19t-51.5 -6.5zM303 601q-61 0 -98.5 36t-37.5 94q0 39 17 68t48 45t71 16
q61 0 98.5 -35t37.5 -94q0 -39 -17 -68t-47.5 -45.5t-71.5 -16.5zM303 661q21 0 35.5 9t22 24.5t7.5 36.5q0 32 -17 50.5t-48 18.5q-20 0 -35 -8.5t-22.5 -24t-7.5 -36.5q0 -31 17 -50.5t48 -19.5z" />
    <glyph glyph-name="Uhungarumlaut" unicode="&#x170;" horiz-adv-x="1289" 
d="M647 -19q-109 0 -193.5 30t-141.5 89t-86 145.5t-29 199.5v981q0 14 11 20.5t33 6.5t33 -6.5t11 -20.5v-981q0 -123 40 -207.5t120.5 -128t202.5 -43.5q120 0 199.5 43.5t118.5 128t39 207.5v981q0 14 11 20.5t32 6.5q44 0 44 -27v-981q0 -150 -51 -254t-150 -157
t-244 -53zM546 1502q-15 0 -26 12t-11 23q0 4 1.5 9t8.5 11l144 152q5 5 10.5 8t13.5 3q10 0 21.5 -9t20 -21.5t8.5 -23.5q0 -7 -2 -12.5t-13 -13.5l-156 -129q-6 -4 -11 -6.5t-9 -2.5zM760 1502q-15 0 -26.5 12t-11.5 23q0 4 1.5 9t8.5 11l146 152q5 5 9.5 8t13.5 3
q10 0 21.5 -9t20 -21.5t8.5 -23.5q0 -7 -2 -12.5t-13 -13.5l-156 -129q-7 -4 -11.5 -6.5t-8.5 -2.5z" />
    <glyph glyph-name="uhungarumlaut" unicode="&#x171;" horiz-adv-x="645" 
d="M269 -17q-58 0 -97 20.5t-58.5 61t-19.5 101.5v323q0 13 10.5 19.5t31.5 6.5q22 0 33 -6.5t11 -19.5v-323q0 -35 11 -59t33.5 -36t55.5 -12q28 0 52 9t43.5 24.5t34.5 37.5t25 47v312q0 13 10.5 19.5t32.5 6.5q21 0 32 -6.5t11 -19.5v-393q0 -14 4 -23t11.5 -13t16.5 -4
t16.5 3.5t15 9.5t14.5 11q8 6 17.5 3t17.5 -14q5 -7 7 -17t-5 -19q-10 -15 -26 -26.5t-35 -18.5t-39 -7q-24 0 -41.5 6.5t-29.5 18.5t-19 28t-9 35l-1 9q-14 -22 -31.5 -39.5t-38.5 -30t-45.5 -19t-51.5 -6.5zM213 610q-12 0 -28 8.5t-16 21.5q0 3 0.5 6.5t3.5 8.5l79 165
q4 8 9 13.5t16 5.5t25 -5.5t24.5 -14.5t10.5 -20q0 -4 -1.5 -8.5t-6.5 -12.5l-96 -153q-5 -8 -9.5 -11.5t-10.5 -3.5zM381 610q-13 0 -28.5 8.5t-15.5 21.5q0 3 0.5 6.5t3.5 8.5l86 165q5 8 9.5 13.5t15.5 5.5t25 -5.5t24.5 -14.5t10.5 -20q0 -4 -1.5 -8.5t-6.5 -12.5
l-103 -153q-6 -8 -10.5 -11.5t-9.5 -3.5z" />
    <glyph glyph-name="Uogonek" unicode="&#x172;" horiz-adv-x="1289" 
d="M647 -19q-109 0 -193.5 30t-141.5 89t-86 145.5t-29 199.5v981q0 14 11 20.5t33 6.5t33 -6.5t11 -20.5v-981q0 -123 40 -207.5t120.5 -128t202.5 -43.5q120 0 199.5 43.5t118.5 128t39 207.5v981q0 14 11 20.5t32 6.5q44 0 44 -27v-981q0 -150 -51 -254t-150 -157
t-244 -53zM781 -276q-41 0 -72.5 25t-31.5 74q0 29 9.5 56.5t28 54.5t45 53t60.5 52l62 1v-9q-23 -19 -46 -41.5t-41.5 -46t-29.5 -47t-11 -44.5q0 -27 12.5 -39.5t28.5 -12.5q15 0 29.5 7t33.5 22q7 5 17 5.5t20 -9.5q10 -9 12.5 -22t-2.5 -21q-12 -17 -34 -30.5t-46 -20.5
t-44 -7z" />
    <glyph glyph-name="uogonek" unicode="&#x173;" horiz-adv-x="645" 
d="M269 -17q-58 0 -97 20.5t-58.5 61t-19.5 101.5v323q0 13 10.5 19.5t31.5 6.5q22 0 33 -6.5t11 -19.5v-323q0 -35 11 -59t33.5 -36t55.5 -12q28 0 52 9t43.5 24.5t34.5 37.5t25 47v312q0 13 10.5 19.5t32.5 6.5q21 0 32 -6.5t11 -19.5v-393q0 -14 4 -23t11.5 -13t16.5 -4
t16.5 3.5t15 9.5t14.5 11q8 6 17.5 3t17.5 -14q5 -7 7 -17t-5 -19q-10 -15 -26 -26.5t-35 -18.5t-39 -7q-24 0 -41.5 6.5t-29.5 18.5t-19 28t-9 35l-1 9q-14 -22 -31.5 -39.5t-38.5 -30t-45.5 -19t-51.5 -6.5zM496 -244q-39 0 -67.5 22t-28.5 65q0 27 9 50t26.5 45t43 45
t59.5 49l62 1v-9q-23 -19 -44.5 -38t-39 -38t-28 -38t-10.5 -38q0 -21 9.5 -30.5t25.5 -9.5q15 0 27 6t31 21q7 5 17 5.5t20 -8.5q10 -10 12.5 -23t-2.5 -21q-12 -17 -33.5 -30t-45 -19.5t-43.5 -6.5z" />
    <glyph glyph-name="Wcircumflex" unicode="&#x174;" horiz-adv-x="1752" 
d="M441 -14q-23 0 -36 9t-19 31l-350 1382q-4 14 2.5 24t28.5 17q20 7 33.5 4.5t17.5 -19.5l325 -1309l382 1292q6 20 17.5 28t33.5 8q23 0 34.5 -8t17.5 -28l379 -1291l328 1308q4 17 17.5 19.5t33.5 -4.5q22 -7 28.5 -17t2.5 -24l-354 -1382q-6 -22 -19 -31t-37 -9
t-36.5 9t-18.5 31l-376 1287l-379 -1287q-7 -22 -19.5 -31t-36.5 -9zM706 1502q-10 0 -22.5 12t-12.5 22v7t6 9l155 148q7 7 16 13.5t28 6.5t27.5 -6.5t15.5 -13.5l158 -148q5 -5 5.5 -9t0.5 -7q0 -10 -13 -22t-23 -12q-6 0 -11 3.5t-13 9.5l-147 105l-145 -105
q-7 -6 -13 -9.5t-12 -3.5z" />
    <glyph glyph-name="wcircumflex" unicode="&#x175;" horiz-adv-x="806" 
d="M229 -15q-22 0 -32 7t-15 19l-157 454q-7 20 4.5 35t39.5 15q15 0 24 -6t13 -20l124 -380l132 380q5 14 14.5 20t25.5 6q15 0 25 -6t14 -20l135 -380l123 380q5 14 14 20t24 6q29 0 40 -14t3 -36l-159 -454q-4 -12 -14 -19t-32 -7t-30.5 7.5t-12.5 18.5l-130 367
l-127 -367q-4 -11 -14.5 -18.5t-31.5 -7.5zM262 610q-10 0 -22.5 12t-12.5 22q0 3 1 6t5 10l127 159q6 7 15.5 13.5t28.5 6.5t28 -6.5t15 -13.5l128 -159q5 -7 6 -10t1 -6q0 -10 -13 -22t-22 -12q-7 0 -13 3.5t-12 9.5l-118 116l-117 -116q-7 -6 -13 -9.5t-12 -3.5z" />
    <glyph glyph-name="Ycircumflex" unicode="&#x176;" horiz-adv-x="962" 
d="M475 -14q-44 0 -44 28v604l-422 780q-7 12 -1.5 23t26.5 22q19 11 31.5 11t22.5 -17l389 -724l399 724q10 17 21.5 17t30.5 -11q20 -11 25.5 -22t-0.5 -23l-434 -780v-604q0 -28 -44 -28zM311 1502q-10 0 -22.5 12t-12.5 22v7t6 9l155 148q7 7 16 13.5t28 6.5t27.5 -6.5
t15.5 -13.5l158 -148q5 -5 5.5 -9t0.5 -7q0 -10 -13 -22t-23 -12q-6 0 -11 3.5t-13 9.5l-147 105l-145 -105q-7 -6 -13 -9.5t-12 -3.5z" />
    <glyph glyph-name="ycircumflex" unicode="&#x177;" horiz-adv-x="615" 
d="M269 -17q-58 0 -97 20.5t-58.5 61t-19.5 101.5v323q0 13 10.5 19.5t31.5 6.5q22 0 33 -6.5t11 -19.5v-323q0 -35 11 -59t33.5 -36t55.5 -12q28 0 52 9t43.5 25t34.5 38t25 47v311q0 13 10.5 19.5t32.5 6.5q21 0 32 -6.5t11 -19.5v-1214q0 -76 -27.5 -128t-77 -78
t-116.5 -26q-45 0 -81 12.5t-62.5 33.5t-43.5 44q-10 14 -7.5 30.5t23.5 27.5q18 9 28.5 7.5t22.5 -15.5q30 -32 59.5 -47t69.5 -15q39 0 67 16t43.5 50.5t15.5 89.5v799q-13 -21 -30.5 -38.5t-39 -29.5t-45.5 -18.5t-51 -6.5zM166 610q-10 0 -22.5 12t-12.5 22q0 3 1 6
t5 10l127 159q6 7 15.5 13.5t28.5 6.5t28 -6.5t15 -13.5l128 -159q5 -7 6 -10t1 -6q0 -10 -13 -22t-22 -12q-7 0 -13 3.5t-12 9.5l-118 116l-117 -116q-7 -6 -13 -9.5t-12 -3.5z" />
    <glyph glyph-name="Ydieresis" unicode="&#x178;" horiz-adv-x="962" 
d="M475 -14q-44 0 -44 28v604l-422 780q-7 12 -1.5 23t26.5 22q19 11 31.5 11t22.5 -17l389 -724l399 724q10 17 21.5 17t30.5 -11q20 -11 25.5 -22t-0.5 -23l-434 -780v-604q0 -28 -44 -28zM345 1545q-27 0 -41.5 15.5t-14.5 46.5q0 33 14 48.5t43 15.5q27 0 41 -16t14 -47
q1 -32 -13.5 -47.5t-42.5 -15.5zM618 1545q-28 0 -42 15.5t-14 46.5q0 33 14 48.5t42 15.5q27 0 41 -16t14 -47q1 -32 -13.5 -47.5t-41.5 -15.5z" />
    <glyph glyph-name="Zacute" unicode="&#x179;" horiz-adv-x="916" 
d="M63 0q-12 0 -21 9.5t-12 23t3 25.5l719 1289h-649q-15 0 -21 9t-6 31q0 23 6 31.5t21 8.5h732q19 0 29.5 -20t0.5 -38l-718 -1289h714q15 0 21.5 -8.5t6.5 -31.5q0 -22 -6.5 -31t-21.5 -9h-798zM399 1502q-15 0 -26.5 12t-11.5 23q0 4 1.5 9t7.5 11l170 152q5 5 9.5 8
t13.5 3t21.5 -9t21 -21.5t8.5 -24.5q0 -7 -2.5 -12t-12.5 -13l-181 -129q-6 -4 -10.5 -6.5t-8.5 -2.5z" />
    <glyph glyph-name="zacute" unicode="&#x17a;" horiz-adv-x="495" 
d="M83 0q-22 0 -29 18t2 31l263 371h-225q-15 0 -22.5 9t-7.5 31q0 23 7.5 31.5t22.5 8.5h329q13 0 20 -8t8 -19.5t-6 -21.5l-262 -371h248q15 0 22 -9.5t7 -32.5q0 -21 -7 -29.5t-22 -8.5h-348zM219 610q-11 0 -26 12t-15 22q0 3 1 6t5 10l107 164q5 8 10.5 11.5t13.5 3.5
q10 0 23.5 -7.5t24 -18t10.5 -19.5q0 -7 -2.5 -11.5t-9.5 -12.5l-123 -147q-12 -13 -19 -13z" />
    <glyph glyph-name="Zdotaccent" unicode="&#x17b;" horiz-adv-x="916" 
d="M63 0q-12 0 -21 9.5t-12 23t3 25.5l719 1289h-649q-15 0 -21 9t-6 31q0 23 6 31.5t21 8.5h732q19 0 29.5 -20t0.5 -38l-718 -1289h714q15 0 21.5 -8.5t6.5 -31.5q0 -22 -6.5 -31t-21.5 -9h-798zM458 1543q-28 0 -42 15.5t-14 46.5q0 32 14 48t42 16q27 0 41 -16t14 -48
q1 -31 -13.5 -46.5t-41.5 -15.5z" />
    <glyph glyph-name="zdotaccent" unicode="&#x17c;" horiz-adv-x="495" 
d="M83 0q-22 0 -29 18t2 31l263 371h-225q-15 0 -22.5 9t-7.5 31q0 23 7.5 31.5t22.5 8.5h329q13 0 20 -8t8 -19.5t-6 -21.5l-262 -371h248q15 0 22 -9.5t7 -32.5q0 -21 -7 -29.5t-22 -8.5h-348zM250 669q-28 0 -42 15.5t-14 46.5q0 32 14 48t42 16q27 0 41 -16t14 -48
q1 -31 -13.5 -46.5t-41.5 -15.5z" />
    <glyph glyph-name="Zcaron" unicode="&#x17d;" horiz-adv-x="916" 
d="M63 0q-12 0 -21 9.5t-12 23t3 25.5l719 1289h-649q-15 0 -21 9t-6 31q0 23 6 31.5t21 8.5h732q19 0 29.5 -20t0.5 -38l-718 -1289h714q15 0 21.5 -8.5t6.5 -31.5q0 -22 -6.5 -31t-21.5 -9h-798zM630 1720q9 0 22 -11.5t13 -22.5q0 -2 -0.5 -6t-5.5 -10l-156 -148
q-7 -6 -15.5 -13t-28.5 -7q-19 0 -27 7t-15 13l-158 148q-6 6 -6 10v6q0 11 12.5 22.5t22.5 11.5q6 0 12 -3.5t13 -8.5l146 -106l146 106q8 5 13 8.5t12 3.5z" />
    <glyph glyph-name="zcaron" unicode="&#x17e;" horiz-adv-x="495" 
d="M83 0q-22 0 -29 18t2 31l263 371h-225q-15 0 -22.5 9t-7.5 31q0 23 7.5 31.5t22.5 8.5h329q13 0 20 -8t8 -19.5t-6 -21.5l-262 -371h248q15 0 22 -9.5t7 -32.5q0 -21 -7 -29.5t-22 -8.5h-348zM393 845q9 0 22 -11.5t13 -22.5q0 -2 -1 -5.5t-6 -10.5l-127 -159
q-6 -6 -15 -13t-29 -7q-19 0 -28 7t-14 13l-129 159q-4 7 -5 10.5t-1 5.5q0 11 12.5 22.5t22.5 11.5q6 0 12 -3.5t13 -8.5l117 -117l118 117q6 5 12 8.5t13 3.5z" />
    <glyph glyph-name="Ohorn" unicode="&#x1a0;" horiz-adv-x="1384" 
d="M694 -19q-128 0 -231.5 52.5t-177 149.5t-113.5 232.5t-40 302.5q0 111 18 208.5t52.5 179t83.5 145.5t111.5 109.5t137 69t159.5 23.5q80 0 150 -21.5t130 -62.5q60 3 97.5 21.5t51.5 48.5t8 68t-32 79q-10 17 -3.5 32t21.5 23.5t31.5 6.5t26.5 -19q31 -48 39.5 -97.5
t-6.5 -93.5t-56 -76.5t-110 -46.5q99 -96 154 -248.5t55 -348.5q0 -111 -18 -209t-51.5 -180t-82.5 -146t-111 -109.5t-136 -69t-158 -23.5zM694 66q70 0 131 21t113 60.5t93 96t69 129t43 159.5t15 186q0 147 -33 267t-94 205.5t-146.5 131.5t-190.5 46q-71 0 -133 -21
t-114 -60.5t-93 -96t-70 -129t-44 -158.5t-15 -185q0 -148 33.5 -268t95.5 -206t147.5 -132t192.5 -46z" />
    <glyph glyph-name="ohorn" unicode="&#x1a1;" horiz-adv-x="589" 
d="M295 -19q-67 0 -119.5 35t-82.5 95.5t-30 138.5q0 59 17 108t48.5 85t73.5 56t93 20q20 0 39 -3t36 -10q69 3 99.5 23.5t29 52.5t-28.5 69q-11 16 -5.5 31t20 23.5t31.5 7.5t29 -18q35 -49 39 -97.5t-28 -87t-105 -56.5q35 -36 55 -88.5t20 -115.5q0 -47 -11 -88
t-31.5 -74t-49 -57t-64 -37t-75.5 -13zM295 61q33 0 59.5 13t45 38t28.5 60t10 78q0 58 -17 100.5t-49 65.5t-77 23q-33 0 -60 -13t-45.5 -38t-28.5 -59.5t-10 -78.5q0 -58 17.5 -100.5t49.5 -65.5t77 -23z" />
    <glyph glyph-name="Uhorn" unicode="&#x1af;" horiz-adv-x="1289" 
d="M1244 1625q27 -42 32 -83t-15.5 -75.5t-70.5 -56.5t-132 -25v62q70 3 101 21t32 47.5t-22 66.5q-10 17 -4 32t20.5 23.5t31.5 6.5t27 -19zM647 -19q-109 0 -193.5 30t-141.5 89t-86 145.5t-29 199.5v981q0 14 11 20.5t33 6.5t33 -6.5t11 -20.5v-981q0 -123 40 -207.5
t120.5 -128t202.5 -43.5q120 0 199.5 43.5t118.5 128t39 207.5v981q0 14 11 20.5t32 6.5q44 0 44 -27v-981q0 -150 -51 -254t-150 -157t-244 -53z" />
    <glyph glyph-name="uhorn" unicode="&#x1b0;" horiz-adv-x="645" 
d="M269 -17q-58 0 -97 20.5t-58.5 61t-19.5 101.5v323q0 13 10.5 19.5t31.5 6.5q22 0 33 -6.5t11 -19.5v-323q0 -35 11 -59t33.5 -36t55.5 -12q28 0 52 9t43.5 24.5t34.5 37.5t25 47v312q0 13 10.5 19.5t32.5 6.5q68 4 97.5 22.5t28.5 48t-28 66.5q-12 16 -6.5 31t20.5 24.5
t32 8t29 -18.5q37 -52 38.5 -102.5t-39 -88t-129.5 -50.5v-360q0 -14 4 -23t11.5 -13t16.5 -4t16.5 3.5t15 9.5t14.5 11q8 6 17.5 3t17.5 -14q5 -7 7 -17t-5 -19q-10 -15 -26 -26.5t-35 -18.5t-39 -7q-24 0 -41.5 6.5t-29.5 18.5t-19 28t-9 35l-1 9q-14 -22 -31.5 -39.5
t-38.5 -30t-45.5 -19t-51.5 -6.5z" />
    <glyph glyph-name="Acaron" unicode="&#x1cd;" horiz-adv-x="1121" 
d="M83 -14q-26 0 -35.5 12.5t-3.5 32.5l461 1382q8 23 20.5 31.5t35.5 8.5t35.5 -8.5t19.5 -31.5l461 -1382q7 -20 -3.5 -32.5t-36.5 -12.5q-22 0 -32 8.5t-17 28.5l-132 405h-591l-134 -405q-7 -20 -16.5 -28.5t-31.5 -8.5zM291 508h537l-267 811zM733 1720q9 0 22 -11.5
t13 -22.5q0 -2 -0.5 -6t-5.5 -10l-156 -148q-7 -6 -15.5 -13t-28.5 -7q-19 0 -27 7t-15 13l-158 148q-6 6 -6 10v6q0 11 12.5 22.5t22.5 11.5q6 0 12 -3.5t13 -8.5l146 -106l146 106q8 5 13 8.5t12 3.5z" />
    <glyph glyph-name="acaron" unicode="&#x1ce;" horiz-adv-x="624" 
d="M258 -17q-57 0 -101 27.5t-69 83.5t-25 141q0 52 9.5 96t28.5 79t46 59t62 37t77 13q32 0 66 -10.5t64 -27.5v5q0 15 11 22t33 7t32.5 -6.5t10.5 -20.5v-392q0 -13 4 -21.5t11 -12.5t16 -4q10 0 16.5 2.5t13 7.5t15.5 12q7 6 16 3.5t18 -10.5q9 -10 10 -21t-4 -19
q-11 -16 -28 -27t-36.5 -17t-39.5 -6q-23 0 -40 5t-29 15.5t-18.5 25.5t-9.5 34q0 1 -1 4.5t-1 7.5q-23 -37 -49.5 -57t-54.5 -27.5t-54 -7.5zM151 239q0 -55 13 -94.5t39.5 -60.5t66.5 -21q29 0 55.5 10t49.5 33t41 60v242q-31 19 -60 25.5t-61 6.5q-26 0 -48 -8t-40 -24
t-30.5 -40t-19 -56t-6.5 -73zM449 845q9 0 22 -11.5t13 -22.5q0 -2 -1 -5.5t-6 -10.5l-127 -159q-6 -6 -15 -13t-29 -7q-19 0 -28 7t-14 13l-129 159q-4 7 -5 10.5t-1 5.5q0 11 12.5 22.5t22.5 11.5q6 0 12 -3.5t13 -8.5l117 -117l118 117q6 5 12 8.5t13 3.5z" />
    <glyph glyph-name="Icaron" unicode="&#x1cf;" horiz-adv-x="505" 
d="M252 -14q-21 0 -32 7t-11 21v1412q0 14 11 20.5t32 6.5q22 0 33 -6.5t11 -20.5v-1412q0 -14 -11 -21t-33 -7zM424 1720q9 0 22 -11.5t13 -22.5q0 -2 -0.5 -6t-5.5 -10l-156 -148q-7 -6 -15.5 -13t-28.5 -7q-19 0 -27 7t-15 13l-158 148q-6 6 -6 10v6q0 11 12.5 22.5
t22.5 11.5q6 0 12 -3.5t13 -8.5l146 -106l146 106q8 5 13 8.5t12 3.5z" />
    <glyph glyph-name="icaron" unicode="&#x1d0;" horiz-adv-x="304" 
d="M193 -17q-26 0 -45 7t-31 20t-17.5 32.5t-5.5 43.5v403q0 13 10.5 19.5t31.5 6.5q22 0 33 -6.5t11 -19.5v-393q0 -13 4 -21.5t11 -12.5t16 -4q11 0 19 4t15 10t15 12q7 5 15.5 -0.5t17.5 -15.5q5 -7 7 -16t-4 -17q-11 -15 -28 -27t-36.5 -18.5t-38.5 -6.5zM273 845
q9 0 22 -11.5t13 -22.5q0 -2 -1 -5.5t-6 -10.5l-127 -159q-6 -6 -15 -13t-29 -7q-19 0 -28 7t-14 13l-129 159q-4 7 -5 10.5t-1 5.5q0 11 12.5 22.5t22.5 11.5q6 0 12 -3.5t13 -8.5l117 -117l118 117q6 5 12 8.5t13 3.5z" />
    <glyph glyph-name="Ocaron" unicode="&#x1d1;" horiz-adv-x="1384" 
d="M694 -19q-128 0 -231.5 52.5t-177 149.5t-113.5 232.5t-40 302.5q0 111 18 208.5t52.5 179t83.5 145.5t111.5 109.5t137 69t159.5 23.5q126 0 228.5 -52.5t176 -149.5t113 -232t39.5 -301q0 -111 -18 -209t-51.5 -180t-82.5 -146t-111 -109.5t-136 -69t-158 -23.5z
M694 66q70 0 131 21t113 60.5t93 96t69 129t43 159.5t15 186q0 147 -33 267t-94 205.5t-146.5 131.5t-190.5 46q-71 0 -133 -21t-114 -60.5t-93 -96t-70 -129t-44 -158.5t-15 -185q0 -148 33.5 -268t95.5 -206t147.5 -132t192.5 -46zM865 1720q9 0 22 -11.5t13 -22.5
q0 -2 -0.5 -6t-5.5 -10l-156 -148q-7 -6 -15.5 -13t-28.5 -7q-19 0 -27 7t-15 13l-158 148q-6 6 -6 10v6q0 11 12.5 22.5t22.5 11.5q6 0 12 -3.5t13 -8.5l146 -106l146 106q8 5 13 8.5t12 3.5z" />
    <glyph glyph-name="ocaron" unicode="&#x1d2;" horiz-adv-x="589" 
d="M295 -19q-67 0 -119.5 35t-82.5 95.5t-30 138.5q0 59 17 108t48.5 85t73.5 56t93 20q67 0 119 -34.5t82 -95.5t30 -139q0 -47 -11 -88t-31.5 -74t-49 -57t-64 -37t-75.5 -13zM295 61q33 0 59.5 13t45 38t28.5 60t10 78q0 58 -17 100.5t-49 65.5t-77 23q-33 0 -60 -13
t-45.5 -38t-28.5 -59.5t-10 -78.5q0 -58 17.5 -100.5t49.5 -65.5t77 -23zM438 845q9 0 22 -11.5t13 -22.5q0 -2 -1 -5.5t-6 -10.5l-127 -159q-6 -6 -15 -13t-29 -7q-19 0 -28 7t-14 13l-129 159q-4 7 -5 10.5t-1 5.5q0 11 12.5 22.5t22.5 11.5q6 0 12 -3.5t13 -8.5l117 -117
l118 117q6 5 12 8.5t13 3.5z" />
    <glyph glyph-name="Ucaron" unicode="&#x1d3;" horiz-adv-x="1289" 
d="M647 -19q-109 0 -193.5 30t-141.5 89t-86 145.5t-29 199.5v981q0 14 11 20.5t33 6.5t33 -6.5t11 -20.5v-981q0 -123 40 -207.5t120.5 -128t202.5 -43.5q120 0 199.5 43.5t118.5 128t39 207.5v981q0 14 11 20.5t32 6.5q44 0 44 -27v-981q0 -150 -51 -254t-150 -157
t-244 -53zM817 1720q9 0 22 -11.5t13 -22.5q0 -2 -0.5 -6t-5.5 -10l-156 -148q-7 -6 -15.5 -13t-28.5 -7q-19 0 -27 7t-15 13l-158 148q-6 6 -6 10v6q0 11 12.5 22.5t22.5 11.5q6 0 12 -3.5t13 -8.5l146 -106l146 106q8 5 13 8.5t12 3.5z" />
    <glyph glyph-name="ucaron" unicode="&#x1d4;" horiz-adv-x="645" 
d="M269 -17q-58 0 -97 20.5t-58.5 61t-19.5 101.5v323q0 13 10.5 19.5t31.5 6.5q22 0 33 -6.5t11 -19.5v-323q0 -35 11 -59t33.5 -36t55.5 -12q28 0 52 9t43.5 24.5t34.5 37.5t25 47v312q0 13 10.5 19.5t32.5 6.5q21 0 32 -6.5t11 -19.5v-393q0 -14 4 -23t11.5 -13t16.5 -4
t16.5 3.5t15 9.5t14.5 11q8 6 17.5 3t17.5 -14q5 -7 7 -17t-5 -19q-10 -15 -26 -26.5t-35 -18.5t-39 -7q-24 0 -41.5 6.5t-29.5 18.5t-19 28t-9 35l-1 9q-14 -22 -31.5 -39.5t-38.5 -30t-45.5 -19t-51.5 -6.5zM446 845q9 0 22 -11.5t13 -22.5q0 -2 -1 -5.5t-6 -10.5
l-127 -159q-6 -6 -15 -13t-29 -7q-19 0 -28 7t-14 13l-129 159q-4 7 -5 10.5t-1 5.5q0 11 12.5 22.5t22.5 11.5q6 0 12 -3.5t13 -8.5l117 -117l118 117q6 5 12 8.5t13 3.5z" />
    <glyph glyph-name="Udieresismacron" unicode="&#x1d5;" horiz-adv-x="1289" 
d="M647 -19q-109 0 -193.5 30t-141.5 89t-86 145.5t-29 199.5v981q0 14 11 20.5t33 6.5t33 -6.5t11 -20.5v-981q0 -123 40 -207.5t120.5 -128t202.5 -43.5q120 0 199.5 43.5t118.5 128t39 207.5v981q0 14 11 20.5t32 6.5q44 0 44 -27v-981q0 -150 -51 -254t-150 -157
t-244 -53zM509 1545q-27 0 -41.5 15.5t-14.5 46.5q0 33 14 48.5t43 15.5q27 0 41 -16t14 -47q1 -32 -13.5 -47.5t-42.5 -15.5zM782 1545q-28 0 -42 15.5t-14 46.5q0 33 14 48.5t42 15.5q27 0 41 -16t14 -47q1 -32 -13.5 -47.5t-41.5 -15.5zM493 1764q-17 0 -22 11.5t-5 29.5
q0 19 5 31.5t22 12.5h305q18 0 23 -12.5t5 -31.5q0 -18 -5 -29.5t-23 -11.5h-305z" />
    <glyph glyph-name="udieresismacron" unicode="&#x1d6;" horiz-adv-x="645" 
d="M269 -17q-58 0 -97 20.5t-58.5 61t-19.5 101.5v323q0 13 10.5 19.5t31.5 6.5q22 0 33 -6.5t11 -19.5v-323q0 -35 11 -59t33.5 -36t55.5 -12q28 0 52 9t43.5 24.5t34.5 37.5t25 47v312q0 13 10.5 19.5t32.5 6.5q21 0 32 -6.5t11 -19.5v-393q0 -14 4 -23t11.5 -13t16.5 -4
t16.5 3.5t15 9.5t14.5 11q8 6 17.5 3t17.5 -14q5 -7 7 -17t-5 -19q-10 -15 -26 -26.5t-35 -18.5t-39 -7q-24 0 -41.5 6.5t-29.5 18.5t-19 28t-9 35l-1 9q-14 -22 -31.5 -39.5t-38.5 -30t-45.5 -19t-51.5 -6.5zM184 669q-28 0 -42 15.5t-14 46.5q0 32 14 48t42 16t41.5 -16
t13.5 -48q2 -31 -12.5 -46.5t-42.5 -15.5zM423 669q-28 0 -42 15.5t-14 46.5q0 32 14 48t42 16q27 0 41 -16t14 -48q1 -31 -13.5 -46.5t-41.5 -15.5zM169 917q-17 0 -22 12t-5 30q0 19 5 31t22 12h268q18 0 22.5 -12t4.5 -31q0 -18 -4.5 -30t-22.5 -12h-268z" />
    <glyph glyph-name="Udieresisacute" unicode="&#x1d7;" horiz-adv-x="1289" 
d="M647 -19q-109 0 -193.5 30t-141.5 89t-86 145.5t-29 199.5v981q0 14 11 20.5t33 6.5t33 -6.5t11 -20.5v-981q0 -123 40 -207.5t120.5 -128t202.5 -43.5q120 0 199.5 43.5t118.5 128t39 207.5v981q0 14 11 20.5t32 6.5q44 0 44 -27v-981q0 -150 -51 -254t-150 -157
t-244 -53zM509 1545q-27 0 -41.5 15.5t-14.5 46.5q0 33 14 48.5t43 15.5q27 0 41 -16t14 -47q1 -32 -13.5 -47.5t-42.5 -15.5zM782 1545q-28 0 -42 15.5t-14 46.5q0 33 14 48.5t42 15.5q27 0 41 -16t14 -47q1 -32 -13.5 -47.5t-41.5 -15.5zM586 1701q-15 0 -26.5 12
t-11.5 23q0 4 1.5 9t7.5 11l170 152q5 5 9.5 8t13.5 3t21.5 -9t21 -21.5t8.5 -24.5q0 -7 -2.5 -12t-12.5 -13l-181 -129q-6 -4 -10.5 -6.5t-8.5 -2.5z" />
    <glyph glyph-name="udieresisacute" unicode="&#x1d8;" horiz-adv-x="645" 
d="M269 -17q-58 0 -97 20.5t-58.5 61t-19.5 101.5v323q0 13 10.5 19.5t31.5 6.5q22 0 33 -6.5t11 -19.5v-323q0 -35 11 -59t33.5 -36t55.5 -12q28 0 52 9t43.5 24.5t34.5 37.5t25 47v312q0 13 10.5 19.5t32.5 6.5q21 0 32 -6.5t11 -19.5v-393q0 -14 4 -23t11.5 -13t16.5 -4
t16.5 3.5t15 9.5t14.5 11q8 6 17.5 3t17.5 -14q5 -7 7 -17t-5 -19q-10 -15 -26 -26.5t-35 -18.5t-39 -7q-24 0 -41.5 6.5t-29.5 18.5t-19 28t-9 35l-1 9q-14 -22 -31.5 -39.5t-38.5 -30t-45.5 -19t-51.5 -6.5zM184 669q-28 0 -42 15.5t-14 46.5q0 32 14 48t42 16t41.5 -16
t13.5 -48q2 -31 -12.5 -46.5t-42.5 -15.5zM423 669q-28 0 -42 15.5t-14 46.5q0 32 14 48t42 16q27 0 41 -16t14 -48q1 -31 -13.5 -46.5t-41.5 -15.5zM272 841q-11 0 -26 12t-15 22q0 3 1 6t5 10l107 164q5 8 10.5 11.5t13.5 3.5q10 0 23.5 -7.5t24 -18t10.5 -19.5
q0 -7 -2.5 -11.5t-9.5 -12.5l-123 -147q-12 -13 -19 -13z" />
    <glyph glyph-name="Udieresiscaron" unicode="&#x1d9;" horiz-adv-x="1289" 
d="M647 -19q-109 0 -193.5 30t-141.5 89t-86 145.5t-29 199.5v981q0 14 11 20.5t33 6.5t33 -6.5t11 -20.5v-981q0 -123 40 -207.5t120.5 -128t202.5 -43.5q120 0 199.5 43.5t118.5 128t39 207.5v981q0 14 11 20.5t32 6.5q44 0 44 -27v-981q0 -150 -51 -254t-150 -157
t-244 -53zM509 1545q-27 0 -41.5 15.5t-14.5 46.5q0 33 14 48.5t43 15.5q27 0 41 -16t14 -47q1 -32 -13.5 -47.5t-42.5 -15.5zM782 1545q-28 0 -42 15.5t-14 46.5q0 33 14 48.5t42 15.5q27 0 41 -16t14 -47q1 -32 -13.5 -47.5t-41.5 -15.5zM817 1919q9 0 22 -11.5t13 -22.5
q0 -2 -0.5 -6t-5.5 -10l-156 -148q-7 -6 -15.5 -13t-28.5 -7q-19 0 -27 7t-15 13l-158 148q-6 6 -6 10v6q0 11 12.5 22.5t22.5 11.5q6 0 12 -3.5t13 -8.5l146 -106l146 106q8 5 13 8.5t12 3.5z" />
    <glyph glyph-name="udieresiscaron" unicode="&#x1da;" horiz-adv-x="645" 
d="M269 -17q-58 0 -97 20.5t-58.5 61t-19.5 101.5v323q0 13 10.5 19.5t31.5 6.5q22 0 33 -6.5t11 -19.5v-323q0 -35 11 -59t33.5 -36t55.5 -12q28 0 52 9t43.5 24.5t34.5 37.5t25 47v312q0 13 10.5 19.5t32.5 6.5q21 0 32 -6.5t11 -19.5v-393q0 -14 4 -23t11.5 -13t16.5 -4
t16.5 3.5t15 9.5t14.5 11q8 6 17.5 3t17.5 -14q5 -7 7 -17t-5 -19q-10 -15 -26 -26.5t-35 -18.5t-39 -7q-24 0 -41.5 6.5t-29.5 18.5t-19 28t-9 35l-1 9q-14 -22 -31.5 -39.5t-38.5 -30t-45.5 -19t-51.5 -6.5zM184 669q-28 0 -42 15.5t-14 46.5q0 32 14 48t42 16t41.5 -16
t13.5 -48q2 -31 -12.5 -46.5t-42.5 -15.5zM423 669q-28 0 -42 15.5t-14 46.5q0 32 14 48t42 16q27 0 41 -16t14 -48q1 -31 -13.5 -46.5t-41.5 -15.5zM446 1076q9 0 22 -11.5t13 -22.5q0 -2 -1 -5.5t-6 -10.5l-127 -159q-6 -6 -15 -13t-29 -7q-19 0 -28 7t-14 13l-129 159
q-4 7 -5 10.5t-1 5.5q0 11 12.5 22.5t22.5 11.5q6 0 12 -3.5t13 -8.5l117 -117l118 117q6 5 12 8.5t13 3.5z" />
    <glyph glyph-name="Udieresisgrave" unicode="&#x1db;" horiz-adv-x="1289" 
d="M647 -19q-109 0 -193.5 30t-141.5 89t-86 145.5t-29 199.5v981q0 14 11 20.5t33 6.5t33 -6.5t11 -20.5v-981q0 -123 40 -207.5t120.5 -128t202.5 -43.5q120 0 199.5 43.5t118.5 128t39 207.5v981q0 14 11 20.5t32 6.5q44 0 44 -27v-981q0 -150 -51 -254t-150 -157
t-244 -53zM509 1545q-27 0 -41.5 15.5t-14.5 46.5q0 33 14 48.5t43 15.5q27 0 41 -16t14 -47q1 -32 -13.5 -47.5t-42.5 -15.5zM782 1545q-28 0 -42 15.5t-14 46.5q0 33 14 48.5t42 15.5q27 0 41 -16t14 -47q1 -32 -13.5 -47.5t-41.5 -15.5zM704 1701q-4 0 -8.5 2.5
t-10.5 6.5l-180 129q-10 8 -12.5 13t-2.5 12q0 12 8.5 24.5t21 21.5t21.5 9q8 0 12.5 -3t9.5 -8l170 -152q7 -6 8 -11t1 -9q0 -11 -11.5 -23t-26.5 -12z" />
    <glyph glyph-name="udieresisgrave" unicode="&#x1dc;" horiz-adv-x="645" 
d="M269 -17q-58 0 -97 20.5t-58.5 61t-19.5 101.5v323q0 13 10.5 19.5t31.5 6.5q22 0 33 -6.5t11 -19.5v-323q0 -35 11 -59t33.5 -36t55.5 -12q28 0 52 9t43.5 24.5t34.5 37.5t25 47v312q0 13 10.5 19.5t32.5 6.5q21 0 32 -6.5t11 -19.5v-393q0 -14 4 -23t11.5 -13t16.5 -4
t16.5 3.5t15 9.5t14.5 11q8 6 17.5 3t17.5 -14q5 -7 7 -17t-5 -19q-10 -15 -26 -26.5t-35 -18.5t-39 -7q-24 0 -41.5 6.5t-29.5 18.5t-19 28t-9 35l-1 9q-14 -22 -31.5 -39.5t-38.5 -30t-45.5 -19t-51.5 -6.5zM184 669q-28 0 -42 15.5t-14 46.5q0 32 14 48t42 16t41.5 -16
t13.5 -48q2 -31 -12.5 -46.5t-42.5 -15.5zM423 669q-28 0 -42 15.5t-14 46.5q0 32 14 48t42 16q27 0 41 -16t14 -48q1 -31 -13.5 -46.5t-41.5 -15.5zM333 841q-4 0 -8.5 3t-10.5 10l-123 147q-7 8 -9.5 12.5t-2.5 11.5q0 9 10.5 19.5t24 18t23.5 7.5q14 0 24 -15l107 -164
q5 -7 5.5 -10t0.5 -6q0 -10 -15 -22t-26 -12z" />
    <glyph glyph-name="AEacute" unicode="&#x1fc;" horiz-adv-x="1441" 
d="M1349 0h-571q-22 0 -32.5 10t-10.5 30v634h-312l-311 -673q-7 -13 -21 -16t-33 5q-16 8 -22 20.5t1 25.5l630 1356q10 21 21 28t39 7h622q15 0 21 -8.5t6 -31.5q0 -22 -6 -31t-21 -9h-527v-593h432q15 0 21.5 -8.5t6.5 -31.5q0 -22 -6.5 -31t-21.5 -9h-432v-594h527
q15 0 21 -8.5t6 -31.5q0 -22 -6 -31t-21 -9zM460 754h275v595zM976 1502q-15 0 -26.5 12t-11.5 23q0 4 1.5 9t7.5 11l170 152q5 5 9.5 8t13.5 3t21.5 -9t21 -21.5t8.5 -24.5q0 -7 -2.5 -12t-12.5 -13l-181 -129q-6 -4 -10.5 -6.5t-8.5 -2.5z" />
    <glyph glyph-name="aeacute" unicode="&#x1fd;" horiz-adv-x="893" 
d="M63 214q0 49 12 94t35.5 83.5t57.5 67t79 44.5t99 16q46 0 84 -7t73 -19t72 -27q-26 -56 -41 -113t-15 -115q0 -52 17.5 -92t50 -62.5t76.5 -22.5q30 0 51.5 7.5t40.5 23t39 37.5q14 16 27 15.5t27 -11.5t16.5 -23.5t-6.5 -25.5q-29 -38 -60.5 -60.5t-65.5 -32.5t-72 -10
q-70 0 -121 32t-78.5 88.5t-27.5 127.5q0 51 7.5 93t19 77t23.5 62l35 -68q-46 20 -85 33t-90 13q-43 0 -78.5 -16.5t-61 -46.5t-39 -70t-13.5 -88q0 -53 11 -87.5t32.5 -51t50.5 -16.5q30 0 57.5 16.5t52.5 53t49.5 97t48.5 148.5l66 -10q-27 -106 -56 -179.5t-63 -119
t-73.5 -66t-87.5 -20.5q-82 0 -129 60t-47 171zM846 386q0 -42 -17 -74.5t-49 -55.5t-76.5 -38t-99 -22t-116.5 -7v71q41 0 80 4.5t73.5 14t60.5 24t41 33.5t15 43q0 32 -22 46t-57 14q-41 0 -79 -12t-70 -36l-21 77q39 24 78 37.5t97 13.5q72 0 117 -33t45 -100zM475 610
q-11 0 -26 12t-15 22q0 3 1 6t5 10l107 164q5 8 10.5 11.5t13.5 3.5q10 0 23.5 -7.5t24 -18t10.5 -19.5q0 -7 -2.5 -11.5t-9.5 -12.5l-123 -147q-12 -13 -19 -13z" />
    <glyph glyph-name="Scommaaccent" unicode="&#x218;" horiz-adv-x="1029" 
d="M495 -19q-48 0 -99.5 10t-101 30.5t-94 54.5t-80.5 81q-7 11 -6.5 20t14.5 23q14 15 23.5 16.5t28.5 -15.5q41 -41 87.5 -71.5t102.5 -47t125 -16.5q77 0 138 21.5t103.5 62.5t64.5 98.5t22 130.5q0 67 -22 115t-62.5 82.5t-94 61t-116.5 49.5q-53 21 -105 45t-99 55.5
t-83 74.5t-56.5 101.5t-20.5 137.5q0 83 28 148.5t78.5 110.5t117.5 69t144 24q79 0 141.5 -23t114.5 -60.5t101 -81.5q11 -10 9 -20.5t-12 -21.5q-13 -13 -24.5 -18.5t-22.5 3.5q-50 43 -99 73.5t-100 47t-108 16.5q-64 0 -114.5 -18.5t-86.5 -53t-55 -84t-19 -111.5
q0 -78 25 -130.5t68 -88t97 -61t113 -47.5q63 -24 126 -54.5t115 -75t83.5 -109t31.5 -156.5q0 -90 -29.5 -163.5t-85 -126t-133 -80.5t-173.5 -28zM450 -312q-12 5 -15 13.5t3 23.5q12 30 18.5 57.5t9 55t2.5 57.5q0 17 9.5 24t28.5 7q23 0 35.5 -11t12.5 -30q0 -25 -8 -58
t-21 -65.5t-29 -56.5q-10 -16 -20 -19t-26 2z" />
    <glyph glyph-name="scommaaccent" unicode="&#x219;" horiz-adv-x="486" 
d="M244 -19q-40 0 -75 11t-62 27.5t-43 33.5q-7 8 -6.5 19.5t13.5 25.5q11 11 20 13t20 -6q37 -28 70.5 -41.5t64.5 -13.5q30 0 53 9.5t36.5 28.5t13.5 45q0 32 -19 49.5t-48.5 27t-62.5 19t-62.5 25t-48.5 43.5t-19 76q0 42 21.5 75t60 52t88.5 19q40 0 71.5 -8.5t55 -22
t38.5 -29.5q11 -11 9.5 -21.5t-12.5 -22.5q-11 -13 -21.5 -14.5t-23.5 7.5q-28 20 -56 31t-62 11q-36 0 -59.5 -17.5t-23.5 -49.5q0 -30 18.5 -46.5t48 -27t63 -20.5t63 -26t48 -43.5t18.5 -73.5q0 -43 -20.5 -81t-62.5 -61t-107 -23zM189 -291q-12 5 -15 13t2 23
q12 31 18 53t7.5 44.5t1.5 52.5q0 17 9.5 24t28.5 7q23 0 35.5 -11t12.5 -30q0 -25 -7 -53t-19 -55.5t-28 -51.5q-10 -16 -20 -19t-26 3z" />
    <glyph glyph-name="Tcommaaccent" unicode="&#x21a;" horiz-adv-x="1032" 
d="M516 -15q-44 0 -44 28v1334h-411q-15 0 -21.5 9t-6.5 31q0 23 6.5 31.5t21.5 8.5h911q15 0 21 -8.5t6 -31.5q0 -22 -6 -31t-21 -9h-412v-1334q0 -14 -11 -21t-33 -7zM447 -312q-12 5 -15 13.5t3 23.5q12 30 18.5 57.5t9 55t2.5 57.5q0 17 9.5 24t28.5 7q23 0 35.5 -11
t12.5 -30q0 -25 -8 -58t-21 -65.5t-29 -56.5q-10 -16 -20 -19t-26 2z" />
    <glyph glyph-name="tcommaaccent" unicode="&#x21b;" horiz-adv-x="388" 
d="M243 -17q-42 0 -69.5 15.5t-41 44t-13.5 68.5v309h-78q-15 0 -21 9t-6 31q0 23 6 31.5t21 8.5h78v204q0 13 10.5 19.5t31.5 6.5q22 0 33 -6.5t11 -19.5v-204h126q15 0 21.5 -8.5t6.5 -31.5q0 -22 -6.5 -31t-21.5 -9h-126v-299q0 -34 9.5 -48.5t34.5 -14.5q23 0 39.5 11
t34.5 27q12 11 22.5 7.5t19.5 -12.5q11 -10 11.5 -20.5t-5.5 -19.5q-17 -25 -38 -40t-44 -21.5t-46 -6.5zM189 -291q-12 5 -15 13t2 23q12 31 18 53t7.5 44.5t1.5 52.5q0 17 9.5 24t28.5 7q23 0 35.5 -11t12.5 -30q0 -25 -7 -53t-19 -55.5t-28 -51.5q-10 -16 -20 -19t-26 3z
" />
    <glyph glyph-name="jdotless.jmc" unicode="&#x237;" horiz-adv-x="316" 
d="M155 -88q16 17 32.5 33.5t32.5 31t30 26.5t26 20q14 11 26 6.5t19.5 -16.5t7 -26t-14.5 -24q-12 -9 -28 -23.5t-34 -32.5l-37 -37l-36 -36zM20 -957q-50 0 -86 23.5t-56 69t-20 112.5q0 63 12.5 135t38.5 147t65.5 149t93.5 141q10 15 22 28.5t24 26.5v614
q0 13 10.5 19.5t31.5 6.5q22 0 33 -6.5t11 -19.5v-1216q0 -54 -12 -96.5t-35 -72.5t-56 -45.5t-77 -15.5zM26 -882q22 0 38 11t27.5 31t17 48t5.5 64v489q-7 -9 -14 -18.5t-14 -19.5q-32 -49 -58.5 -107t-44 -121t-27.5 -126t-10 -120q0 -41 9.5 -70.5t28 -45t42.5 -15.5z
" />
    <glyph glyph-name="circumflex" unicode="&#x2c6;" horiz-adv-x="645" 
d="M181 610q-10 0 -22.5 12t-12.5 22q0 3 1 6t5 10l127 159q6 7 15.5 13.5t28.5 6.5t28 -6.5t15 -13.5l128 -159q5 -7 6 -10t1 -6q0 -10 -13 -22t-22 -12q-7 0 -13 3.5t-12 9.5l-118 116l-117 -116q-7 -6 -13 -9.5t-12 -3.5z" />
    <glyph glyph-name="caron" unicode="&#x2c7;" horiz-adv-x="645" 
d="M466 845q9 0 22 -11.5t13 -22.5q0 -2 -1 -5.5t-6 -10.5l-127 -159q-6 -6 -15 -13t-29 -7q-19 0 -28 7t-14 13l-129 159q-4 7 -5 10.5t-1 5.5q0 11 12.5 22.5t22.5 11.5q6 0 12 -3.5t13 -8.5l117 -117l118 117q6 5 12 8.5t13 3.5z" />
    <glyph glyph-name="breve" unicode="&#x2d8;" horiz-adv-x="645" 
d="M323 618q-79 0 -125.5 50.5t-50.5 140.5q-1 12 7 20.5t27 8.5t26 -8t10 -21q9 -45 34.5 -74t71.5 -29q47 0 72 29t34 74q3 14 9.5 21.5t25.5 7.5t28 -8.5t7 -20.5q-2 -57 -25 -100t-62 -67t-89 -24z" />
    <glyph glyph-name="dotaccent" unicode="&#x2d9;" horiz-adv-x="645" 
d="M323 669q-28 0 -42 15.5t-14 46.5q0 32 14 48t42 16q27 0 41 -16t14 -48q1 -31 -13.5 -46.5t-41.5 -15.5z" />
    <glyph glyph-name="ring" unicode="&#x2da;" horiz-adv-x="645" 
d="M323 601q-61 0 -98.5 36t-37.5 94q0 39 17 68t48 45t71 16q61 0 98.5 -35t37.5 -94q0 -39 -17 -68t-47.5 -45.5t-71.5 -16.5zM323 661q21 0 35.5 9t22 24.5t7.5 36.5q0 32 -17 50.5t-48 18.5q-20 0 -35 -8.5t-22.5 -24t-7.5 -36.5q0 -31 17 -50.5t48 -19.5z" />
    <glyph glyph-name="ogonek" unicode="&#x2db;" horiz-adv-x="645" 
d="M304 -257q-39 0 -67.5 22t-28.5 65q0 27 9 50t26.5 45t43 45t59.5 49l62 1v-9q-23 -19 -44.5 -38t-39 -38t-28 -38t-10.5 -38q0 -21 9.5 -30.5t25.5 -9.5q15 0 27 6t31 21q7 5 17 5.5t20 -8.5q10 -10 12.5 -23t-2.5 -21q-12 -17 -33.5 -30t-45 -19.5t-43.5 -6.5z" />
    <glyph glyph-name="tilde" unicode="&#x2dc;" horiz-adv-x="645" 
d="M172 640q-34 0 -34 26q1 73 30 104t75 31q30 0 52.5 -11.5t40.5 -26t34 -26t32 -11.5q13 0 21.5 14.5t9.5 40.5q2 22 34 22q20 0 28 -7t8 -21q-1 -61 -25.5 -97.5t-81.5 -36.5q-29 0 -52 11.5t-41.5 27t-34 27t-30.5 11.5q-12 0 -20 -13t-10 -39q-1 -13 -10 -19.5
t-26 -6.5z" />
    <glyph glyph-name="hungarumlaut" unicode="&#x2dd;" horiz-adv-x="645" 
d="M233 610q-12 0 -28 8.5t-16 21.5q0 3 0.5 6.5t3.5 8.5l79 165q4 8 9 13.5t16 5.5t25 -5.5t24.5 -14.5t10.5 -20q0 -4 -1.5 -8.5t-6.5 -12.5l-96 -153q-5 -8 -9.5 -11.5t-10.5 -3.5zM401 610q-13 0 -28.5 8.5t-15.5 21.5q0 3 0.5 6.5t3.5 8.5l86 165q5 8 9.5 13.5
t15.5 5.5t25 -5.5t24.5 -14.5t10.5 -20q0 -4 -1.5 -8.5t-6.5 -12.5l-103 -153q-6 -8 -10.5 -11.5t-9.5 -3.5z" />
    <glyph glyph-name="gravecomb" unicode="&#x300;" 
d="M30 610q-4 0 -8.5 3t-10.5 10l-123 147q-7 8 -9.5 12.5t-2.5 11.5q0 9 10.5 19.5t24 18t23.5 7.5q14 0 24 -15l107 -164q5 -7 5.5 -10t0.5 -6q0 -10 -15 -22t-26 -12z" />
    <glyph glyph-name="acutecomb" unicode="&#x301;" 
d="M-31 610q-11 0 -26 12t-15 22q0 3 1 6t5 10l107 164q5 8 10.5 11.5t13.5 3.5q10 0 23.5 -7.5t24 -18t10.5 -19.5q0 -7 -2.5 -11.5t-9.5 -12.5l-123 -147q-12 -13 -19 -13z" />
    <glyph glyph-name="circumflexcomb" unicode="&#x302;" 
d="M-142 610q-10 0 -22.5 12t-12.5 22q0 3 1 6t5 10l127 159q6 7 15.5 13.5t28.5 6.5t28 -6.5t15 -13.5l128 -159q5 -7 6 -10t1 -6q0 -10 -13 -22t-22 -12q-7 0 -13 3.5t-12 9.5l-118 116l-117 -116q-7 -6 -13 -9.5t-12 -3.5z" />
    <glyph glyph-name="tildecomb" unicode="&#x303;" 
d="M-151 640q-34 0 -34 26q1 73 30 104t75 31q30 0 52.5 -11.5t40.5 -26t34 -26t32 -11.5q13 0 21.5 14.5t9.5 40.5q2 22 34 22q20 0 28 -7t8 -21q-1 -61 -25.5 -97.5t-81.5 -36.5q-29 0 -52 11.5t-41.5 27t-34 27t-30.5 11.5q-12 0 -20 -13t-10 -39q-1 -13 -10 -19.5
t-26 -6.5z" />
    <glyph glyph-name="macroncomb" unicode="&#x304;" 
d="M-134 686q-17 0 -22 12t-5 30q0 19 5 31t22 12h268q18 0 22.5 -12t4.5 -31q0 -18 -4.5 -30t-22.5 -12h-268z" />
    <glyph glyph-name="brevecomb" unicode="&#x306;" 
d="M0 618q-79 0 -125.5 50.5t-50.5 140.5q-1 12 7 20.5t27 8.5t26 -8t10 -21q9 -45 34.5 -74t71.5 -29q47 0 72 29t34 74q3 14 9.5 21.5t25.5 7.5t28 -8.5t7 -20.5q-2 -57 -25 -100t-62 -67t-89 -24z" />
    <glyph glyph-name="dotaccentcomb" unicode="&#x307;" 
d="M0 669q-28 0 -42 15.5t-14 46.5q0 32 14 48t42 16q27 0 41 -16t14 -48q1 -31 -13.5 -46.5t-41.5 -15.5z" />
    </font>
</defs>
</svg>
