<?xml version="1.0" encoding="UTF-8"?> <svg xmlns="http://www.w3.org/2000/svg" width="64" height="64" viewBox="0 0 64 64" fill="none"><path d="M35.2737 14.7067L16.1874 27.4289L16.1966 27.4315L16.1706 27.4488L24.1377 29.6914L21.964 32.9254L23.8124 33.4457L23.8263 33.425L23.8291 33.4258L25.9889 30.2125L34.6543 32.6517L34.6551 32.6273L34.671 32.6318L35.2737 14.7067Z" fill="#333333"></path><path d="M30.135 7.55726C24.2549 5.86012 17.9488 8.12664 14.5214 13.169L5.80284 25.9958C5.70153 26.1449 5.60684 26.296 5.51867 26.449L5.51621 26.4475C1.14101 33.4891 0.147326 39.7731 0.00416417 43.4077C-0.101393 46.0877 1.814 48.1256 4.14158 48.7852L34.8593 57.4904C39.3732 58.7696 44.2029 57.0533 46.877 53.2197L62.9231 30.2164C64.2072 28.3755 64.4651 25.8365 63.0246 23.8258C60.9507 20.9309 56.6962 16.1601 49.637 13.2295L49.6337 13.2376C49.3741 13.128 49.1044 13.0323 48.825 12.9517L30.135 7.55726ZM17.1197 14.9181C19.7854 10.9962 24.6902 9.23339 29.2636 10.5534L47.9536 15.9478C50.4911 16.6802 51.5911 19.6484 50.1377 21.8415L41.4787 34.907C38.7997 38.9494 33.7624 40.7505 29.1059 39.3309L10.5035 33.6597C7.98242 32.8911 6.92512 29.9164 8.40115 27.7449L17.1197 14.9181Z" fill="#333333"></path></svg> 