<?xml version="1.0" encoding="UTF-8"?> <svg xmlns="http://www.w3.org/2000/svg" width="16" height="16" viewBox="0 0 16 16" fill="none"><g clip-path="url(#clip0_22440_38050)"><path fill-rule="evenodd" clip-rule="evenodd" d="M10.8655 0.211865L10.1828 1.47127C10.8685 1.82431 11.4167 2.31599 11.827 2.94737C12.2372 3.57924 12.4424 4.26961 12.4424 5.01961H3.54838C3.54838 4.26944 3.75358 3.5791 4.16382 2.94737C4.57405 2.31599 5.12541 1.82431 5.81769 1.47127L5.13496 0.211865C5.08997 0.128487 5.10591 0.0647529 5.18293 0.0195923C5.26613 -0.0190011 5.33021 0.00046916 5.3752 0.0771352L6.06748 1.34661C6.67638 1.07732 7.32069 0.942391 8.00022 0.942391C8.67959 0.942391 9.32385 1.07729 9.93298 1.34661L10.6252 0.0771352C10.67 0.00046916 10.7341 -0.0191747 10.8175 0.0195923C10.8943 0.0645504 10.9103 0.128487 10.8655 0.211865ZM5.97117 3.41393C6.07367 3.41393 6.16185 3.3771 6.23568 3.3031C6.30916 3.22944 6.34614 3.14143 6.34634 3.03876C6.34634 2.93626 6.30934 2.84842 6.23568 2.77442C6.16185 2.70076 6.07367 2.66393 5.97117 2.66393C5.86867 2.66393 5.78208 2.70076 5.7116 2.77442C5.64113 2.84825 5.60589 2.93626 5.60589 3.03876C5.60589 3.14161 5.64113 3.22944 5.7116 3.3031C5.78208 3.3771 5.86847 3.41393 5.97117 3.41393ZM10.0289 3.41393C10.1312 3.41393 10.2178 3.3771 10.2885 3.3031C10.359 3.22944 10.3942 3.14143 10.3942 3.03876C10.3942 2.93626 10.359 2.84842 10.2885 2.77442C10.2178 2.70076 10.1314 2.66393 10.0289 2.66393C9.92618 2.66393 9.83803 2.70076 9.76434 2.77442C9.69054 2.84825 9.65371 2.93626 9.65371 3.03876C9.65371 3.14161 9.69054 3.22944 9.76434 3.3031C9.83803 3.3771 9.92618 3.41393 10.0289 3.41393Z" fill="#777777"></path><path d="M1.51927 5.4713C1.71155 5.27903 1.94545 5.18289 2.22113 5.18289C2.49041 5.18289 2.72128 5.27903 2.91358 5.4713C3.10588 5.66357 3.20202 5.89426 3.20202 6.16358V10.2982C3.20202 10.5742 3.1073 10.8079 2.91838 11.0002C2.72909 11.1925 2.49661 11.2886 2.22113 11.2886C1.94545 11.2886 1.71155 11.1925 1.51927 11.0002C1.32697 10.8079 1.23083 10.5742 1.23083 10.2982V6.16358C1.23083 5.89429 1.327 5.66357 1.51927 5.4713Z" fill="#777777"></path><path d="M3.58657 11.7693C3.58657 12.0645 3.68907 12.3143 3.8941 12.5193C4.0993 12.7244 4.34915 12.8269 4.64409 12.8269H5.35567L5.36542 15.0098C5.36542 15.2855 5.46156 15.5195 5.65383 15.7118C5.8461 15.9041 6.077 16.0003 6.34611 16.0003C6.62161 16.0003 6.85566 15.9041 7.04796 15.7118C7.24027 15.5195 7.3364 15.2855 7.3364 15.0098V12.8271H8.66328V15.0098C8.66328 15.2855 8.75938 15.5195 8.95168 15.7118C9.14399 15.9041 9.37783 16.0003 9.65354 16.0003C9.92905 16.0003 10.1631 15.9041 10.3554 15.7118C10.5477 15.5195 10.6438 15.2855 10.6438 15.0098V12.8271H11.365C11.6534 12.8271 11.9 12.7245 12.1054 12.5195C12.3104 12.3145 12.413 12.0646 12.413 11.7695V5.36541H3.58657V11.7693Z" fill="#777777"></path><path d="M13.0866 5.46653C13.2789 5.27761 13.5096 5.18289 13.7789 5.18289C14.0544 5.18289 14.2885 5.27761 14.4808 5.46653C14.6731 5.65579 14.7692 5.88825 14.7692 6.16358V10.2982C14.7692 10.5742 14.6731 10.8079 14.4808 11.0002C14.2885 11.1925 14.0544 11.2886 13.7789 11.2886C13.5098 11.2886 13.2789 11.1925 13.0866 11.0002C12.8943 10.8079 12.7982 10.5742 12.7982 10.2982V6.16358C12.7982 5.88828 12.8943 5.65579 13.0866 5.46653Z" fill="#777777"></path></g><defs><clipPath id="clip0_22440_38050"><rect width="16" height="16" fill="white"></rect></clipPath></defs></svg> 