<?xml version="1.0" encoding="UTF-8"?> <svg xmlns="http://www.w3.org/2000/svg" width="16" height="16" viewBox="0 0 16 16" fill="none"><path d="M14.0976 5.4544C14.0048 5.5264 12.3664 6.4496 12.3664 8.5024C12.3664 10.8768 14.4512 11.7168 14.5136 11.7376C14.504 11.7888 14.1824 12.888 13.4144 14.008C12.7296 14.9936 12.0144 15.9776 10.9264 15.9776C9.83841 15.9776 9.55841 15.3456 8.30241 15.3456C7.07841 15.3456 6.64321 15.9984 5.64801 15.9984C4.65281 15.9984 3.95841 15.0864 3.16001 13.9664C2.23521 12.6512 1.48801 10.608 1.48801 8.6688C1.48801 5.5584 3.51041 3.9088 5.50081 3.9088C6.55841 3.9088 7.44001 4.6032 8.10401 4.6032C8.73601 4.6032 9.72161 3.8672 10.9248 3.8672C11.3808 3.8672 13.0192 3.9088 14.0976 5.4544ZM10.3536 2.5504C10.8512 1.96 11.2032 1.1408 11.2032 0.3216C11.2032 0.208 11.1936 0.0928 11.1728 0C10.3632 0.0304 9.40001 0.5392 8.81921 1.2128C8.36321 1.7312 7.93761 2.5504 7.93761 3.3808C7.93761 3.5056 7.95841 3.6304 7.96801 3.6704C8.01921 3.68 8.10241 3.6912 8.18561 3.6912C8.91201 3.6912 9.82561 3.2048 10.3536 2.5504Z" fill="#777777"></path></svg> 